Labtop Bold.ufo
<glyph name="exclam" format="1">
  <advance width="142"/>
  <unicode hex="0021"/>
  <outline>
    <contour>
      <point x="102" y="-1" type="line"/>
      <point x="41" y="-1" type="line"/>
      <point x="41" y="66" type="line"/>
      <point x="102" y="66" type="line"/>
    </contour>
    <contour>
      <point x="104" y="121" type="line"/>
      <point x="40" y="121" type="line"/>
      <point x="40" y="834" type="line"/>
      <point x="104" y="834" type="line"/>
    </contour>
  </outline>
</glyph>
<glyph name="quotedbl" format="1">
  <advance width="245"/>
  <unicode hex="0022"/>
  <outline>
    <contour>
      <point x="207" y="591" type="line"/>
      <point x="139" y="591" type="line"/>
      <point x="139" y="814" type="line"/>
      <point x="207" y="814" type="line"/>
    </contour>
    <contour>
      <point x="109" y="591" type="line"/>
      <point x="41" y="591" type="line"/>
      <point x="41" y="814" type="line"/>
      <point x="109" y="814" type="line"/>
    </contour>
  </outline>
</glyph>
<glyph name="numbersign" format="1">
  <advance width="399"/>
  <unicode hex="0023"/>
  <outline>
    <contour>
      <point x="176" y="329" type="line"/>
      <point x="222" y="330" type="line"/>
      <point x="228" y="402" type="line"/>
      <point x="183" y="402" type="line"/>
    </contour>
    <contour>
      <point x="298" y="466" type="line"/>
      <point x="398" y="467" type="line"/>
      <point x="394" y="404" type="line"/>
      <point x="293" y="404" type="line"/>
      <point x="286" y="330" type="line"/>
      <point x="386" y="330" type="line"/>
      <point x="381" y="267" type="line"/>
      <point x="280" y="266" type="line"/>
      <point x="269" y="139" type="line"/>
      <point x="205" y="139" type="line"/>
      <point x="215" y="266" type="line"/>
      <point x="170" y="266" type="line"/>
      <point x="159" y="137" type="line"/>
      <point x="96" y="137" type="line"/>
      <point x="107" y="266" type="line"/>
      <point x="5" y="265" type="line"/>
      <point x="13" y="329" type="line"/>
      <point x="112" y="329" type="line"/>
      <point x="119" y="402" type="line"/>
      <point x="18" y="401" type="line"/>
      <point x="26" y="465" type="line"/>
      <point x="125" y="465" type="line"/>
      <point x="137" y="594" type="line"/>
      <point x="200" y="594" type="line"/>
      <point x="188" y="465" type="line"/>
      <point x="235" y="466" type="line"/>
      <point x="246" y="595" type="line"/>
      <point x="310" y="595" type="line"/>
    </contour>
  </outline>
</glyph>
<glyph name="dollar" format="1">
  <advance width="285"/>
  <unicode hex="0024"/>
  <outline>
    <contour>
      <point x="89" y="581" type="line" smooth="yes"/>
      <point x="89" y="525"/>
      <point x="115" y="508" type="qcurve"/>
      <point x="115" y="779" type="line"/>
      <point x="89" y="764"/>
      <point x="89" y="707" type="qcurve" smooth="yes"/>
    </contour>
    <contour>
      <point x="199" y="386" type="line" smooth="yes"/>
      <point x="199" y="426"/>
      <point x="175" y="439" type="qcurve"/>
      <point x="175" y="56" type="line"/>
      <point x="199" y="72"/>
      <point x="199" y="127" type="qcurve" smooth="yes"/>
    </contour>
    <contour>
      <point x="175" y="499" type="line"/>
      <point x="245" y="487"/>
      <point x="258" y="412" type="qcurve"/>
      <point x="261" y="412" type="line"/>
      <point x="261" y="129" type="line" smooth="yes"/>
      <point x="261" y="11"/>
      <point x="175" y="-6" type="qcurve"/>
      <point x="175" y="-50" type="line"/>
      <point x="115" y="-50" type="line"/>
      <point x="115" y="-6" type="line"/>
      <point x="24" y="10"/>
      <point x="24" y="129" type="qcurve" smooth="yes"/>
      <point x="24" y="201" type="line"/>
      <point x="89" y="201" type="line"/>
      <point x="89" y="127" type="line" smooth="yes"/>
      <point x="89" y="72"/>
      <point x="115" y="55" type="qcurve"/>
      <point x="115" y="448" type="line"/>
      <point x="24" y="463"/>
      <point x="24" y="584" type="qcurve" smooth="yes"/>
      <point x="24" y="705" type="line" smooth="yes"/>
      <point x="24" y="824"/>
      <point x="115" y="839" type="qcurve"/>
      <point x="115" y="886" type="line"/>
      <point x="175" y="886" type="line"/>
      <point x="175" y="839" type="line"/>
      <point x="261" y="822"/>
      <point x="261" y="705" type="qcurve" smooth="yes"/>
      <point x="261" y="627" type="line"/>
      <point x="199" y="627" type="line"/>
      <point x="199" y="707" type="line" smooth="yes"/>
      <point x="199" y="762"/>
      <point x="175" y="778" type="qcurve"/>
    </contour>
  </outline>
</glyph>
<glyph name="percent" format="1">
  <advance width="577"/>
  <unicode hex="0025"/>
  <outline>
    <contour>
      <point x="185" y="702" type="line" smooth="yes"/>
      <point x="185" y="780"/>
      <point x="130" y="780" type="qcurve" smooth="yes"/>
      <point x="76" y="780"/>
      <point x="76" y="702" type="qcurve" smooth="yes"/>
      <point x="76" y="537" type="line" smooth="yes"/>
      <point x="76" y="498"/>
      <point x="86" y="477" type="qcurve"/>
      <point x="85" y="478" type="line"/>
      <point x="94" y="459"/>
      <point x="130" y="459" type="qcurve" smooth="yes"/>
      <point x="185" y="459"/>
      <point x="185" y="537" type="qcurve" smooth="yes"/>
    </contour>
    <contour>
      <point x="501" y="294" type="line" smooth="yes"/>
      <point x="501" y="371"/>
      <point x="391" y="371"/>
      <point x="391" y="294" type="qcurve" smooth="yes"/>
      <point x="391" y="129" type="line" smooth="yes"/>
      <point x="391" y="106"/>
      <point x="394" y="92" type="qcurve"/>
      <point x="395" y="82"/>
      <point x="401" y="68" type="qcurve"/>
      <point x="399" y="70" type="line"/>
      <point x="413" y="50"/>
      <point x="446" y="50" type="qcurve" smooth="yes"/>
      <point x="501" y="50"/>
      <point x="501" y="129" type="qcurve" smooth="yes"/>
    </contour>
    <contour>
      <point x="487" y="841" type="line"/>
      <point x="134" y="-8" type="line"/>
      <point x="69" y="-8" type="line"/>
      <point x="422" y="841" type="line"/>
    </contour>
    <contour>
      <point x="565" y="131" type="line" smooth="yes"/>
      <point x="565" y="97"/>
      <point x="558" y="67" type="qcurve"/>
      <point x="549" y="42"/>
      <point x="534" y="25" type="qcurve"/>
      <point x="517" y="10"/>
      <point x="490" y="2" type="qcurve" smooth="yes"/>
      <point x="466" y="-5"/>
      <point x="425" y="-5" type="qcurve" smooth="yes"/>
      <point x="396" y="-5"/>
      <point x="377" y="6" type="qcurve"/>
      <point x="372" y="11" type="line" smooth="yes"/>
      <point x="368" y="15"/>
      <point x="364" y="18" type="qcurve" smooth="yes"/>
      <point x="355" y="27" type="line"/>
      <point x="329" y="59"/>
      <point x="329" y="131" type="qcurve" smooth="yes"/>
      <point x="329" y="291" type="line" smooth="yes"/>
      <point x="329" y="429"/>
      <point x="446" y="429" type="qcurve" smooth="yes"/>
      <point x="565" y="429"/>
      <point x="565" y="291" type="qcurve" smooth="yes"/>
    </contour>
    <contour>
      <point x="250" y="540" type="line" smooth="yes"/>
      <point x="250" y="402"/>
      <point x="130" y="402" type="qcurve" smooth="yes"/>
      <point x="12" y="402"/>
      <point x="12" y="540" type="qcurve" smooth="yes"/>
      <point x="12" y="700" type="line" smooth="yes"/>
      <point x="12" y="836"/>
      <point x="130" y="836" type="qcurve" smooth="yes"/>
      <point x="250" y="836"/>
      <point x="250" y="700" type="qcurve" smooth="yes"/>
    </contour>
  </outline>
</glyph>
<glyph name="ampersand" format="1">
  <advance width="285"/>
  <unicode hex="0026"/>
  <outline>
    <contour>
      <point x="197" y="707" type="line" smooth="yes"/>
      <point x="197" y="785"/>
      <point x="87" y="785"/>
      <point x="87" y="707" type="qcurve" smooth="yes"/>
      <point x="87" y="589" type="line" smooth="yes"/>
      <point x="87" y="510"/>
      <point x="197" y="510"/>
      <point x="197" y="589" type="qcurve" smooth="yes"/>
    </contour>
    <contour>
      <point x="342" y="-109" type="line"/>
      <point x="221" y="-109"/>
      <point x="208" y="3" type="qcurve"/>
      <point x="177" y="-8"/>
      <point x="131" y="-8" type="qcurve" smooth="yes"/>
      <point x="14" y="-8"/>
      <point x="14" y="129" type="qcurve" smooth="yes"/>
      <point x="14" y="374" type="line" smooth="yes"/>
      <point x="14" y="424"/>
      <point x="23" y="445" type="qcurve"/>
      <point x="31" y="467"/>
      <point x="56" y="483" type="qcurve"/>
      <point x="24" y="518"/>
      <point x="24" y="591" type="qcurve" smooth="yes"/>
      <point x="24" y="705" type="line" smooth="yes"/>
      <point x="24" y="841"/>
      <point x="142" y="841" type="qcurve" smooth="yes"/>
      <point x="261" y="841"/>
      <point x="261" y="705" type="qcurve" smooth="yes"/>
      <point x="261" y="591" type="line" smooth="yes"/>
      <point x="261" y="541"/>
      <point x="249" y="514" type="qcurve" smooth="yes"/>
      <point x="223" y="455"/>
      <point x="142" y="455" type="qcurve" smooth="yes"/>
      <point x="107" y="455"/>
      <point x="83" y="431" type="qcurve" smooth="yes"/>
      <point x="76" y="424"/>
      <point x="76" y="375" type="qcurve" smooth="yes"/>
      <point x="76" y="127" type="line" smooth="yes"/>
      <point x="76" y="47"/>
      <point x="131" y="47" type="qcurve" smooth="yes"/>
      <point x="174" y="47"/>
      <point x="190" y="59" type="qcurve" smooth="yes"/>
      <point x="207" y="71"/>
      <point x="207" y="110" type="qcurve" smooth="yes"/>
      <point x="207" y="245" type="line" smooth="yes"/>
      <point x="207" y="322"/>
      <point x="137" y="322" type="qcurve"/>
      <point x="137" y="379" type="line"/>
      <point x="256" y="379"/>
      <point x="269" y="274" type="qcurve"/>
      <point x="272" y="274" type="line"/>
      <point x="272" y="26" type="line" smooth="yes"/>
      <point x="272" y="-53"/>
      <point x="342" y="-53" type="qcurve"/>
    </contour>
  </outline>
</glyph>
<glyph name="quotesingle" format="1">
  <advance width="150"/>
  <unicode hex="0027"/>
  <outline>
    <contour>
      <point x="109" y="591" type="line"/>
      <point x="41" y="591" type="line"/>
      <point x="41" y="814" type="line"/>
      <point x="109" y="814" type="line"/>
    </contour>
  </outline>
</glyph>
<glyph name="parenleft" format="1">
  <advance width="150"/>
  <unicode hex="0028"/>
  <outline>
    <contour>
      <point x="157" y="-231" type="line"/>
      <point x="75" y="-230"/>
      <point x="48" y="-192" type="qcurve" smooth="yes"/>
      <point x="24" y="-159"/>
      <point x="24" y="-95" type="qcurve" smooth="yes"/>
      <point x="24" y="760" type="line" smooth="yes"/>
      <point x="24" y="824"/>
      <point x="48" y="856" type="qcurve" smooth="yes"/>
      <point x="74" y="892"/>
      <point x="157" y="897" type="qcurve"/>
      <point x="157" y="841" type="line"/>
      <point x="107" y="836"/>
      <point x="96" y="819" type="qcurve" smooth="yes"/>
      <point x="87" y="806"/>
      <point x="87" y="761" type="qcurve" smooth="yes"/>
      <point x="87" y="-98" type="line" smooth="yes"/>
      <point x="87" y="-141"/>
      <point x="97" y="-157" type="qcurve"/>
      <point x="97" y="-156" type="line"/>
      <point x="110" y="-176"/>
      <point x="157" y="-177" type="qcurve"/>
    </contour>
  </outline>
</glyph>
<glyph name="parenright" format="1">
  <advance width="150"/>
  <unicode hex="0029"/>
  <outline>
    <contour>
      <point x="157" y="-95" type="line" smooth="yes"/>
      <point x="157" y="-159"/>
      <point x="133" y="-192" type="qcurve" smooth="yes"/>
      <point x="106" y="-230"/>
      <point x="24" y="-231" type="qcurve"/>
      <point x="24" y="-176" type="line"/>
      <point x="73" y="-174"/>
      <point x="84" y="-156" type="qcurve"/>
      <point x="84" y="-157" type="line"/>
      <point x="94" y="-141"/>
      <point x="94" y="-98" type="qcurve" smooth="yes"/>
      <point x="94" y="761" type="line" smooth="yes"/>
      <point x="94" y="806"/>
      <point x="84" y="819" type="qcurve"/>
      <point x="74" y="837"/>
      <point x="24" y="841" type="qcurve"/>
      <point x="24" y="897" type="line"/>
      <point x="107" y="892"/>
      <point x="133" y="856" type="qcurve" smooth="yes"/>
      <point x="157" y="824"/>
      <point x="157" y="760" type="qcurve" smooth="yes"/>
    </contour>
  </outline>
</glyph>
<glyph name="asterisk" format="1">
  <advance width="356"/>
  <unicode hex="002A"/>
  <outline>
    <contour>
      <point x="337" y="700" type="line"/>
      <point x="246" y="647" type="line"/>
      <point x="337" y="595" type="line"/>
      <point x="305" y="534" type="line"/>
      <point x="211" y="588" type="line"/>
      <point x="211" y="481" type="line"/>
      <point x="144" y="481" type="line"/>
      <point x="144" y="588" type="line"/>
      <point x="51" y="534" type="line"/>
      <point x="17" y="595" type="line"/>
      <point x="109" y="647" type="line"/>
      <point x="17" y="700" type="line"/>
      <point x="50" y="760" type="line"/>
      <point x="144" y="706" type="line"/>
      <point x="144" y="814" type="line"/>
      <point x="211" y="814" type="line"/>
      <point x="211" y="706" type="line"/>
      <point x="305" y="760" type="line"/>
    </contour>
  </outline>
</glyph>
<glyph name="plus" format="1">
  <advance width="366"/>
  <unicode hex="002B"/>
  <outline>
    <contour>
      <point x="363" y="324" type="line"/>
      <point x="215" y="324" type="line"/>
      <point x="215" y="175" type="line"/>
      <point x="153" y="175" type="line"/>
      <point x="153" y="324" type="line"/>
      <point x="5" y="324" type="line"/>
      <point x="5" y="385" type="line"/>
      <point x="153" y="385" type="line"/>
      <point x="153" y="532" type="line"/>
      <point x="215" y="532" type="line"/>
      <point x="215" y="385" type="line"/>
      <point x="363" y="385" type="line"/>
    </contour>
  </outline>
</glyph>
<glyph name="comma" format="1">
  <advance width="142"/>
  <unicode hex="002C"/>
  <outline>
    <contour>
      <point x="102" y="71" type="line"/>
      <point x="102" y="51" type="line"/>
      <point x="78" y="-73" type="line"/>
      <point x="13" y="-73" type="line"/>
      <point x="28" y="4" type="line"/>
      <point x="14" y="4" type="line"/>
      <point x="14" y="71" type="line"/>
    </contour>
  </outline>
</glyph>
<glyph name="hyphen" format="1">
  <advance width="270"/>
  <unicode hex="002D"/>
  <outline>
    <contour>
      <point x="246" y="324" type="line"/>
      <point x="24" y="324" type="line"/>
      <point x="24" y="385" type="line"/>
      <point x="246" y="385" type="line"/>
    </contour>
  </outline>
</glyph>
<glyph name="period" format="1">
  <advance width="142"/>
  <unicode hex="002E"/>
  <outline>
    <contour>
      <point x="102" y="4" type="line"/>
      <point x="40" y="4" type="line"/>
      <point x="40" y="71" type="line"/>
      <point x="102" y="71" type="line"/>
    </contour>
  </outline>
</glyph>
<glyph name="slash" format="1">
  <advance width="291"/>
  <unicode hex="002F"/>
  <outline>
    <contour>
      <point x="307" y="841" type="line"/>
      <point x="50" y="0" type="line"/>
      <point x="-14" y="0" type="line"/>
      <point x="243" y="841" type="line"/>
    </contour>
  </outline>
</glyph>
<glyph name="zero" format="1">
  <advance width="285"/>
  <unicode hex="0030"/>
  <outline>
    <contour>
      <point x="87" y="332" type="line"/>
      <point x="195" y="736" type="line"/>
      <point x="188" y="785"/>
      <point x="142" y="785" type="qcurve" smooth="yes"/>
      <point x="87" y="785"/>
      <point x="87" y="707" type="qcurve" smooth="yes"/>
    </contour>
    <contour>
      <point x="197" y="506" type="line"/>
      <point x="89" y="101" type="line"/>
      <point x="95" y="47"/>
      <point x="142" y="47" type="qcurve" smooth="yes"/>
      <point x="197" y="47"/>
      <point x="197" y="127" type="qcurve" smooth="yes"/>
    </contour>
    <contour>
      <point x="261" y="129" type="line" smooth="yes"/>
      <point x="261" y="-8"/>
      <point x="142" y="-8" type="qcurve" smooth="yes"/>
      <point x="24" y="-8"/>
      <point x="24" y="129" type="qcurve" smooth="yes"/>
      <point x="24" y="705" type="line" smooth="yes"/>
      <point x="24" y="841"/>
      <point x="142" y="841" type="qcurve" smooth="yes"/>
      <point x="261" y="841"/>
      <point x="261" y="705" type="qcurve" smooth="yes"/>
    </contour>
  </outline>
</glyph>
<glyph name="one" format="1">
  <advance width="132"/>
  <unicode hex="0031"/>
  <outline>
    <contour>
      <point x="126" y="0" type="line"/>
      <point x="9" y="0" type="line"/>
      <point x="9" y="61" type="line"/>
      <point x="35" y="61" type="line"/>
      <point x="35" y="751" type="line"/>
      <point x="0" y="738" type="line"/>
      <point x="0" y="801" type="line"/>
      <point x="99" y="842" type="line"/>
      <point x="99" y="61" type="line"/>
      <point x="126" y="61" type="line"/>
    </contour>
  </outline>
</glyph>
<glyph name="two" format="1">
  <advance width="272"/>
  <unicode hex="0032"/>
  <outline>
    <contour>
      <point x="261" y="0" type="line"/>
      <point x="24" y="0" type="line"/>
      <point x="24" y="372" type="line" smooth="yes"/>
      <point x="24" y="431"/>
      <point x="46" y="458" type="qcurve"/>
      <point x="71" y="486"/>
      <point x="130" y="490" type="qcurve"/>
      <point x="178" y="495"/>
      <point x="186" y="503" type="qcurve" smooth="yes"/>
      <point x="197" y="514"/>
      <point x="197" y="556" type="qcurve" smooth="yes"/>
      <point x="197" y="707" type="line" smooth="yes"/>
      <point x="197" y="785"/>
      <point x="87" y="785"/>
      <point x="87" y="707" type="qcurve" smooth="yes"/>
      <point x="87" y="632" type="line"/>
      <point x="24" y="632" type="line"/>
      <point x="24" y="705" type="line" smooth="yes"/>
      <point x="24" y="841"/>
      <point x="142" y="841" type="qcurve" smooth="yes"/>
      <point x="261" y="841"/>
      <point x="261" y="705" type="qcurve" smooth="yes"/>
      <point x="261" y="554" type="line" smooth="yes"/>
      <point x="261" y="486"/>
      <point x="235" y="460" type="qcurve"/>
      <point x="209" y="437"/>
      <point x="143" y="431" type="qcurve" smooth="yes"/>
      <point x="108" y="428"/>
      <point x="98" y="416" type="qcurve" smooth="yes"/>
      <point x="87" y="403"/>
      <point x="87" y="371" type="qcurve" smooth="yes"/>
      <point x="87" y="57" type="line"/>
      <point x="261" y="57" type="line"/>
    </contour>
  </outline>
</glyph>
<glyph name="three" format="1">
  <advance width="265"/>
  <unicode hex="0033"/>
  <outline>
    <contour>
      <point x="249" y="129" type="line" smooth="yes"/>
      <point x="249" y="-8"/>
      <point x="130" y="-8" type="qcurve" smooth="yes"/>
      <point x="12" y="-8"/>
      <point x="12" y="129" type="qcurve" smooth="yes"/>
      <point x="12" y="206" type="line"/>
      <point x="75" y="206" type="line"/>
      <point x="75" y="127" type="line" smooth="yes"/>
      <point x="75" y="47"/>
      <point x="185" y="47"/>
      <point x="185" y="127" type="qcurve" smooth="yes"/>
      <point x="185" y="376" type="line" smooth="yes"/>
      <point x="185" y="420"/>
      <point x="173" y="434" type="qcurve"/>
      <point x="174" y="434" type="line"/>
      <point x="162" y="449"/>
      <point x="120" y="449" type="qcurve" smooth="yes"/>
      <point x="72" y="449" type="line"/>
      <point x="72" y="505" type="line"/>
      <point x="120" y="505" type="line" smooth="yes"/>
      <point x="163" y="505"/>
      <point x="175" y="519" type="qcurve" smooth="yes"/>
      <point x="185" y="532"/>
      <point x="185" y="577" type="qcurve" smooth="yes"/>
      <point x="185" y="707" type="line" smooth="yes"/>
      <point x="185" y="785"/>
      <point x="75" y="785"/>
      <point x="75" y="707" type="qcurve" smooth="yes"/>
      <point x="75" y="632" type="line"/>
      <point x="12" y="632" type="line"/>
      <point x="12" y="705" type="line" smooth="yes"/>
      <point x="12" y="841"/>
      <point x="130" y="841" type="qcurve" smooth="yes"/>
      <point x="249" y="841"/>
      <point x="249" y="705" type="qcurve" smooth="yes"/>
      <point x="249" y="574" type="line" smooth="yes"/>
      <point x="249" y="506"/>
      <point x="208" y="476" type="qcurve"/>
      <point x="249" y="449"/>
      <point x="249" y="380" type="qcurve" smooth="yes"/>
    </contour>
  </outline>
</glyph>
<glyph name="four" format="1">
  <advance width="273"/>
  <unicode hex="0034"/>
  <outline>
    <contour>
      <point x="172" y="505" type="line"/>
      <point x="172" y="687" type="line"/>
      <point x="79" y="505" type="line"/>
    </contour>
    <contour>
      <point x="288" y="449" type="line"/>
      <point x="235" y="449" type="line"/>
      <point x="235" y="0" type="line"/>
      <point x="172" y="0" type="line"/>
      <point x="172" y="449" type="line"/>
      <point x="-21" y="449" type="line"/>
      <point x="176" y="834" type="line"/>
      <point x="235" y="834" type="line"/>
      <point x="235" y="505" type="line"/>
      <point x="288" y="505" type="line"/>
    </contour>
  </outline>
</glyph>
<glyph name="five" format="1">
  <advance width="285"/>
  <unicode hex="0035"/>
  <outline>
    <contour>
      <point x="261" y="129" type="line" smooth="yes"/>
      <point x="261" y="-8"/>
      <point x="142" y="-8" type="qcurve" smooth="yes"/>
      <point x="24" y="-8"/>
      <point x="24" y="129" type="qcurve" smooth="yes"/>
      <point x="24" y="206" type="line"/>
      <point x="87" y="206" type="line"/>
      <point x="87" y="127" type="line" smooth="yes"/>
      <point x="87" y="47"/>
      <point x="197" y="47"/>
      <point x="197" y="127" type="qcurve" smooth="yes"/>
      <point x="197" y="376" type="line" smooth="yes"/>
      <point x="197" y="422"/>
      <point x="187" y="435" type="qcurve" smooth="yes"/>
      <point x="175" y="450"/>
      <point x="132" y="450" type="qcurve" smooth="yes"/>
      <point x="24" y="450" type="line"/>
      <point x="24" y="834" type="line"/>
      <point x="261" y="834" type="line"/>
      <point x="261" y="776" type="line"/>
      <point x="87" y="776" type="line"/>
      <point x="87" y="506" type="line"/>
      <point x="140" y="506" type="line" smooth="yes"/>
      <point x="212" y="506"/>
      <point x="239" y="469" type="qcurve"/>
      <point x="261" y="441"/>
      <point x="261" y="367" type="qcurve" smooth="yes"/>
    </contour>
  </outline>
</glyph>
<glyph name="six" format="1">
  <advance width="285"/>
  <unicode hex="0036"/>
  <outline>
    <contour>
      <point x="197" y="371" type="line" smooth="yes"/>
      <point x="197" y="450"/>
      <point x="146" y="450" type="qcurve" smooth="yes"/>
      <point x="87" y="450"/>
      <point x="87" y="371" type="qcurve" smooth="yes"/>
      <point x="87" y="127" type="line" smooth="yes"/>
      <point x="87" y="47"/>
      <point x="197" y="47"/>
      <point x="197" y="127" type="qcurve" smooth="yes"/>
    </contour>
    <contour>
      <point x="261" y="129" type="line" smooth="yes"/>
      <point x="261" y="-8"/>
      <point x="142" y="-8" type="qcurve" smooth="yes"/>
      <point x="24" y="-8"/>
      <point x="24" y="129" type="qcurve" smooth="yes"/>
      <point x="24" y="705" type="line" smooth="yes"/>
      <point x="24" y="841"/>
      <point x="142" y="841" type="qcurve" smooth="yes"/>
      <point x="261" y="841"/>
      <point x="261" y="705" type="qcurve" smooth="yes"/>
      <point x="261" y="627" type="line"/>
      <point x="197" y="627" type="line"/>
      <point x="197" y="707" type="line" smooth="yes"/>
      <point x="197" y="785"/>
      <point x="87" y="785"/>
      <point x="87" y="707" type="qcurve" smooth="yes"/>
      <point x="87" y="490" type="line"/>
      <point x="112" y="506"/>
      <point x="146" y="506" type="qcurve" smooth="yes"/>
      <point x="261" y="506"/>
      <point x="261" y="370" type="qcurve" smooth="yes"/>
    </contour>
  </outline>
</glyph>
<glyph name="seven" format="1">
  <advance width="222"/>
  <unicode hex="0037"/>
  <outline>
    <contour>
      <point x="241" y="834" type="line"/>
      <point x="48" y="0" type="line"/>
      <point x="-14" y="0" type="line"/>
      <point x="164" y="776" type="line"/>
      <point x="0" y="776" type="line"/>
      <point x="0" y="834" type="line"/>
    </contour>
  </outline>
</glyph>
<glyph name="nine" format="1">
  <advance width="285"/>
  <unicode hex="0039"/>
  <outline>
    <contour>
      <point x="197" y="707" type="line" smooth="yes"/>
      <point x="197" y="785"/>
      <point x="87" y="785"/>
      <point x="87" y="707" type="qcurve" smooth="yes"/>
      <point x="87" y="582" type="line" smooth="yes"/>
      <point x="87" y="504"/>
      <point x="139" y="504" type="qcurve" smooth="yes"/>
      <point x="197" y="504"/>
      <point x="197" y="582" type="qcurve" smooth="yes"/>
    </contour>
    <contour>
      <point x="261" y="129" type="line" smooth="yes"/>
      <point x="261" y="-8"/>
      <point x="142" y="-8" type="qcurve" smooth="yes"/>
      <point x="24" y="-8"/>
      <point x="24" y="129" type="qcurve" smooth="yes"/>
      <point x="24" y="206" type="line"/>
      <point x="87" y="206" type="line"/>
      <point x="87" y="127" type="line" smooth="yes"/>
      <point x="87" y="47"/>
      <point x="197" y="47"/>
      <point x="197" y="127" type="qcurve" smooth="yes"/>
      <point x="197" y="461" type="line"/>
      <point x="171" y="447"/>
      <point x="134" y="447" type="qcurve" smooth="yes"/>
      <point x="24" y="447"/>
      <point x="24" y="582" type="qcurve" smooth="yes"/>
      <point x="24" y="705" type="line" smooth="yes"/>
      <point x="24" y="841"/>
      <point x="142" y="841" type="qcurve" smooth="yes"/>
      <point x="261" y="841"/>
      <point x="261" y="705" type="qcurve" smooth="yes"/>
    </contour>
  </outline>
</glyph>
<glyph name="colon" format="1">
  <advance width="142"/>
  <unicode hex="003A"/>
  <outline>
    <contour>
      <point x="102" y="4" type="line"/>
      <point x="40" y="4" type="line"/>
      <point x="40" y="71" type="line"/>
      <point x="102" y="71" type="line"/>
    </contour>
    <contour>
      <point x="102" y="326" type="line"/>
      <point x="40" y="326" type="line"/>
      <point x="40" y="394" type="line"/>
      <point x="102" y="394" type="line"/>
    </contour>
  </outline>
</glyph>
<glyph name="semicolon" format="1">
  <advance width="142"/>
  <unicode hex="003B"/>
  <outline>
    <contour>
      <point x="102" y="326" type="line"/>
      <point x="40" y="326" type="line"/>
      <point x="40" y="394" type="line"/>
      <point x="102" y="394" type="line"/>
    </contour>
    <contour>
      <point x="102" y="71" type="line"/>
      <point x="102" y="51" type="line"/>
      <point x="78" y="-73" type="line"/>
      <point x="13" y="-73" type="line"/>
      <point x="28" y="4" type="line"/>
      <point x="14" y="4" type="line"/>
      <point x="14" y="71" type="line"/>
    </contour>
  </outline>
</glyph>
<glyph name="less" format="1">
  <advance width="441"/>
  <unicode hex="003C"/>
  <outline>
    <contour>
      <point x="410" y="131" type="line"/>
      <point x="41" y="328" type="line"/>
      <point x="41" y="369" type="line"/>
      <point x="410" y="566" type="line"/>
      <point x="410" y="493" type="line"/>
      <point x="146" y="349" type="line"/>
      <point x="410" y="203" type="line"/>
    </contour>
  </outline>
</glyph>
<glyph name="equal" format="1">
  <advance width="641"/>
  <unicode hex="003D"/>
  <outline>
    <contour>
      <point x="586" y="386" type="line"/>
      <point x="55" y="386" type="line"/>
      <point x="55" y="450" type="line"/>
      <point x="586" y="450" type="line"/>
    </contour>
    <contour>
      <point x="586" y="246" type="line"/>
      <point x="55" y="246" type="line"/>
      <point x="55" y="311" type="line"/>
      <point x="586" y="311" type="line"/>
    </contour>
  </outline>
</glyph>
<glyph name="greater" format="1">
  <advance width="441"/>
  <unicode hex="003E"/>
  <outline>
    <contour>
      <point x="410" y="328" type="line"/>
      <point x="41" y="131" type="line"/>
      <point x="41" y="203" type="line"/>
      <point x="304" y="349" type="line"/>
      <point x="41" y="493" type="line"/>
      <point x="41" y="566" type="line"/>
      <point x="410" y="369" type="line"/>
    </contour>
  </outline>
</glyph>
<glyph name="question" format="1">
  <advance width="251"/>
  <unicode hex="003F"/>
  <outline>
    <contour>
      <point x="138" y="4" type="line"/>
      <point x="76" y="4" type="line"/>
      <point x="76" y="71" type="line"/>
      <point x="138" y="71" type="line"/>
    </contour>
    <contour>
      <point x="227" y="586" type="line" smooth="yes"/>
      <point x="227" y="525"/>
      <point x="208" y="497" type="qcurve" smooth="yes"/>
      <point x="186" y="464"/>
      <point x="140" y="453" type="qcurve"/>
      <point x="140" y="121" type="line"/>
      <point x="76" y="121" type="line"/>
      <point x="76" y="505" type="line"/>
      <point x="138" y="505"/>
      <point x="151" y="521" type="qcurve" smooth="yes"/>
      <point x="163" y="536"/>
      <point x="163" y="585" type="qcurve" smooth="yes"/>
      <point x="163" y="707" type="line" smooth="yes"/>
      <point x="163" y="785"/>
      <point x="53" y="785"/>
      <point x="53" y="707" type="qcurve" smooth="yes"/>
      <point x="53" y="632" type="line"/>
      <point x="-12" y="632" type="line"/>
      <point x="-12" y="705" type="line" smooth="yes"/>
      <point x="-12" y="841"/>
      <point x="108" y="841" type="qcurve" smooth="yes"/>
      <point x="227" y="841"/>
      <point x="227" y="705" type="qcurve" smooth="yes"/>
    </contour>
  </outline>
</glyph>
<glyph name="at" format="1">
  <advance width="659"/>
  <unicode hex="0040"/>
  <outline>
    <contour>
      <point x="385" y="307" type="line"/>
      <point x="384" y="356"/>
      <point x="338" y="356" type="qcurve" smooth="yes"/>
      <point x="308" y="356"/>
      <point x="292" y="336" type="qcurve"/>
      <point x="275" y="317"/>
      <point x="273" y="276" type="qcurve" smooth="yes"/>
      <point x="267" y="187" type="line"/>
      <point x="268" y="177"/>
      <point x="282" y="168" type="qcurve"/>
      <point x="298" y="160"/>
      <point x="313" y="160" type="qcurve" smooth="yes"/>
      <point x="363" y="160"/>
      <point x="375" y="214" type="qcurve"/>
      <point x="375" y="213" type="line"/>
    </contour>
    <contour>
      <point x="641" y="407" type="qcurve" smooth="yes"/>
      <point x="641" y="355"/>
      <point x="636" y="319" type="qcurve"/>
      <point x="633" y="280"/>
      <point x="620" y="232" type="qcurve"/>
      <point x="621" y="233" type="line"/>
      <point x="599" y="139"/>
      <point x="557" y="91" type="qcurve"/>
      <point x="507" y="32"/>
      <point x="446" y="32" type="qcurve" smooth="yes"/>
      <point x="369" y="32"/>
      <point x="367" y="112" type="qcurve"/>
      <point x="367" y="114" type="line"/>
      <point x="351" y="108"/>
      <point x="340" y="107" type="qcurve" smooth="yes"/>
      <point x="322" y="105"/>
      <point x="310" y="105" type="qcurve" smooth="yes"/>
      <point x="205" y="105"/>
      <point x="205" y="212" type="qcurve" smooth="yes"/>
      <point x="205" y="224"/>
      <point x="206" y="232" type="qcurve"/>
      <point x="206" y="247"/>
      <point x="210" y="278" type="qcurve"/>
      <point x="210" y="277" type="line"/>
      <point x="224" y="412"/>
      <point x="342" y="412" type="qcurve" smooth="yes"/>
      <point x="356" y="412"/>
      <point x="372" y="410" type="qcurve" smooth="yes"/>
      <point x="384" y="408"/>
      <point x="397" y="402" type="qcurve"/>
      <point x="402" y="448" type="line" smooth="yes"/>
      <point x="402" y="450"/>
      <point x="403" y="459"/>
      <point x="404" y="461" type="qcurve"/>
      <point x="404" y="472" type="line" smooth="yes"/>
      <point x="404" y="525"/>
      <point x="357" y="525" type="qcurve" smooth="yes"/>
      <point x="328" y="525"/>
      <point x="312" y="500" type="qcurve" smooth="yes"/>
      <point x="297" y="478"/>
      <point x="289" y="422" type="qcurve"/>
      <point x="223" y="422" type="line"/>
      <point x="230" y="449" type="line"/>
      <point x="230" y="446" type="line"/>
      <point x="243" y="582"/>
      <point x="361" y="582" type="qcurve" smooth="yes"/>
      <point x="468" y="582"/>
      <point x="468" y="472" type="qcurve" smooth="yes"/>
      <point x="468" y="457" type="line" smooth="yes"/>
      <point x="468" y="454"/>
      <point x="466" y="446"/>
      <point x="466" y="443" type="qcurve" smooth="yes"/>
      <point x="427" y="122" type="line"/>
      <point x="427" y="95"/>
      <point x="452" y="95" type="qcurve" smooth="yes"/>
      <point x="492" y="95"/>
      <point x="528" y="148" type="qcurve"/>
      <point x="527" y="147" type="line"/>
      <point x="581" y="229"/>
      <point x="581" y="409" type="qcurve" smooth="yes"/>
      <point x="581" y="521"/>
      <point x="525" y="601" type="qcurve"/>
      <point x="463" y="684"/>
      <point x="356" y="684" type="qcurve" smooth="yes"/>
      <point x="253" y="684"/>
      <point x="181" y="599" type="qcurve"/>
      <point x="78" y="480"/>
      <point x="78" y="279" type="qcurve" smooth="yes"/>
      <point x="78" y="141"/>
      <point x="137" y="52" type="qcurve" smooth="yes"/>
      <point x="206" y="-53"/>
      <point x="331" y="-53" type="qcurve" smooth="yes"/>
      <point x="438" y="-53"/>
      <point x="546" y="52" type="qcurve"/>
      <point x="566" y="4" type="line"/>
      <point x="461" y="-113"/>
      <point x="335" y="-113" type="qcurve" smooth="yes"/>
      <point x="202" y="-113"/>
      <point x="119" y="-20" type="qcurve"/>
      <point x="16" y="92"/>
      <point x="16" y="286" type="qcurve" smooth="yes"/>
      <point x="16" y="445"/>
      <point x="84" y="567" type="qcurve" smooth="yes"/>
      <point x="184" y="745"/>
      <point x="358" y="745" type="qcurve" smooth="yes"/>
      <point x="416" y="745"/>
      <point x="464" y="724" type="qcurve" smooth="yes"/>
      <point x="515" y="702"/>
      <point x="552" y="660" type="qcurve" smooth="yes"/>
      <point x="641" y="559"/>
    </contour>
  </outline>
</glyph>
<glyph name="B" format="1">
  <advance width="279"/>
  <unicode hex="0042"/>
  <outline>
    <contour>
      <point x="197" y="704" type="line" smooth="yes"/>
      <point x="197" y="748"/>
      <point x="186" y="762" type="qcurve" smooth="yes"/>
      <point x="174" y="777"/>
      <point x="130" y="777" type="qcurve" smooth="yes"/>
      <point x="87" y="777" type="line"/>
      <point x="87" y="506" type="line"/>
      <point x="130" y="506" type="line" smooth="yes"/>
      <point x="174" y="506"/>
      <point x="186" y="521" type="qcurve" smooth="yes"/>
      <point x="197" y="535"/>
      <point x="197" y="580" type="qcurve" smooth="yes"/>
    </contour>
    <contour>
      <point x="197" y="379" type="line" smooth="yes"/>
      <point x="197" y="422"/>
      <point x="186" y="436" type="qcurve" smooth="yes"/>
      <point x="174" y="451"/>
      <point x="130" y="451" type="qcurve" smooth="yes"/>
      <point x="87" y="451" type="line"/>
      <point x="87" y="56" type="line"/>
      <point x="130" y="56" type="line" smooth="yes"/>
      <point x="174" y="56"/>
      <point x="186" y="71" type="qcurve" smooth="yes"/>
      <point x="191" y="78"/>
      <point x="194" y="91" type="qcurve" smooth="yes"/>
      <point x="197" y="105"/>
      <point x="197" y="129" type="qcurve" smooth="yes"/>
    </contour>
    <contour>
      <point x="259" y="140" type="line" smooth="yes"/>
      <point x="259" y="68"/>
      <point x="239" y="36" type="qcurve"/>
      <point x="212" y="0"/>
      <point x="139" y="0" type="qcurve" smooth="yes"/>
      <point x="23" y="0" type="line"/>
      <point x="23" y="834" type="line"/>
      <point x="139" y="834" type="line" smooth="yes"/>
      <point x="259" y="834"/>
      <point x="259" y="707" type="qcurve" smooth="yes"/>
      <point x="259" y="576" type="line" smooth="yes"/>
      <point x="259" y="508"/>
      <point x="220" y="479" type="qcurve"/>
      <point x="259" y="449"/>
      <point x="259" y="381" type="qcurve" smooth="yes"/>
    </contour>
  </outline>
</glyph>
<glyph name="C" format="1">
  <advance width="265"/>
  <unicode hex="0043"/>
  <outline>
    <contour>
      <point x="261" y="129" type="line" smooth="yes"/>
      <point x="261" y="-8"/>
      <point x="142" y="-8" type="qcurve" smooth="yes"/>
      <point x="24" y="-8"/>
      <point x="24" y="129" type="qcurve" smooth="yes"/>
      <point x="24" y="705" type="line" smooth="yes"/>
      <point x="24" y="841"/>
      <point x="142" y="841" type="qcurve" smooth="yes"/>
      <point x="261" y="841"/>
      <point x="261" y="705" type="qcurve" smooth="yes"/>
      <point x="261" y="632" type="line"/>
      <point x="197" y="632" type="line"/>
      <point x="197" y="707" type="line" smooth="yes"/>
      <point x="197" y="785"/>
      <point x="87" y="785"/>
      <point x="87" y="707" type="qcurve" smooth="yes"/>
      <point x="87" y="127" type="line" smooth="yes"/>
      <point x="87" y="47"/>
      <point x="197" y="47"/>
      <point x="197" y="127" type="qcurve" smooth="yes"/>
      <point x="197" y="206" type="line"/>
      <point x="261" y="206" type="line"/>
    </contour>
  </outline>
</glyph>
<glyph name="D" format="1">
  <advance width="277"/>
  <unicode hex="0044"/>
  <outline>
    <contour>
      <point x="197" y="705" type="line" smooth="yes"/>
      <point x="197" y="748"/>
      <point x="175" y="776"/>
      <point x="132" y="776" type="qcurve" smooth="yes"/>
      <point x="87" y="776" type="line"/>
      <point x="87" y="56" type="line"/>
      <point x="132" y="56" type="line" smooth="yes"/>
      <point x="176" y="56"/>
      <point x="188" y="71" type="qcurve"/>
      <point x="187" y="70" type="line"/>
      <point x="197" y="83"/>
      <point x="197" y="129" type="qcurve" smooth="yes"/>
    </contour>
    <contour>
      <point x="261" y="126" type="line" smooth="yes"/>
      <point x="261" y="0"/>
      <point x="140" y="0" type="qcurve" smooth="yes"/>
      <point x="24" y="0" type="line"/>
      <point x="24" y="834" type="line"/>
      <point x="140" y="834" type="line" smooth="yes"/>
      <point x="179" y="834"/>
      <point x="202" y="824" type="qcurve" smooth="yes"/>
      <point x="227" y="812"/>
      <point x="239" y="795" type="qcurve"/>
      <point x="238" y="796" type="line"/>
      <point x="261" y="770"/>
      <point x="261" y="694" type="qcurve" smooth="yes"/>
    </contour>
  </outline>
</glyph>
<glyph name="E" format="1">
  <advance width="257"/>
  <unicode hex="0045"/>
  <outline>
    <contour>
      <point x="257" y="0" type="line"/>
      <point x="23" y="0" type="line"/>
      <point x="23" y="834" type="line"/>
      <point x="257" y="834" type="line"/>
      <point x="257" y="777" type="line"/>
      <point x="87" y="777" type="line"/>
      <point x="87" y="506" type="line"/>
      <point x="257" y="506" type="line"/>
      <point x="257" y="451" type="line"/>
      <point x="87" y="451" type="line"/>
      <point x="87" y="56" type="line"/>
      <point x="257" y="56" type="line"/>
    </contour>
  </outline>
</glyph>
<glyph name="F" format="1">
  <advance width="250"/>
  <unicode hex="0046"/>
  <outline>
    <contour>
      <point x="262" y="776" type="line"/>
      <point x="92" y="776" type="line"/>
      <point x="92" y="509" type="line"/>
      <point x="239" y="509" type="line"/>
      <point x="239" y="452" type="line"/>
      <point x="92" y="452" type="line"/>
      <point x="92" y="0" type="line"/>
      <point x="28" y="0" type="line"/>
      <point x="28" y="834" type="line"/>
      <point x="262" y="834" type="line"/>
    </contour>
  </outline>
</glyph>
<glyph name="G" format="1">
  <advance width="285"/>
  <unicode hex="0047"/>
  <outline>
    <contour>
      <point x="261" y="129" type="line" smooth="yes"/>
      <point x="261" y="-8"/>
      <point x="142" y="-8" type="qcurve" smooth="yes"/>
      <point x="24" y="-8"/>
      <point x="24" y="129" type="qcurve" smooth="yes"/>
      <point x="24" y="705" type="line" smooth="yes"/>
      <point x="24" y="841"/>
      <point x="142" y="841" type="qcurve" smooth="yes"/>
      <point x="261" y="841"/>
      <point x="261" y="705" type="qcurve" smooth="yes"/>
      <point x="261" y="632" type="line"/>
      <point x="197" y="632" type="line"/>
      <point x="197" y="707" type="line" smooth="yes"/>
      <point x="197" y="785"/>
      <point x="87" y="785"/>
      <point x="87" y="707" type="qcurve" smooth="yes"/>
      <point x="87" y="127" type="line" smooth="yes"/>
      <point x="87" y="47"/>
      <point x="197" y="47"/>
      <point x="197" y="127" type="qcurve" smooth="yes"/>
      <point x="197" y="447" type="line"/>
      <point x="141" y="447" type="line"/>
      <point x="141" y="509" type="line"/>
      <point x="261" y="509" type="line"/>
    </contour>
  </outline>
</glyph>
<glyph name="H" format="1">
  <advance width="281"/>
  <unicode hex="0048"/>
  <outline>
    <contour>
      <point x="263" y="0" type="line"/>
      <point x="201" y="0" type="line"/>
      <point x="201" y="451" type="line"/>
      <point x="91" y="451" type="line"/>
      <point x="91" y="0" type="line"/>
      <point x="27" y="0" type="line"/>
      <point x="27" y="834" type="line"/>
      <point x="91" y="834" type="line"/>
      <point x="91" y="506" type="line"/>
      <point x="201" y="506" type="line"/>
      <point x="201" y="834" type="line"/>
      <point x="263" y="834" type="line"/>
    </contour>
  </outline>
</glyph>
<glyph name="I" format="1">
  <advance width="111"/>
  <unicode hex="0049"/>
  <outline>
    <contour>
      <point x="110" y="1" type="line"/>
      <point x="4" y="1" type="line"/>
      <point x="4" y="62" type="line"/>
      <point x="25" y="62" type="line"/>
      <point x="25" y="771" type="line"/>
      <point x="4" y="771" type="line"/>
      <point x="4" y="832" type="line"/>
      <point x="110" y="832" type="line"/>
      <point x="110" y="771" type="line"/>
      <point x="88" y="771" type="line"/>
      <point x="88" y="62" type="line"/>
      <point x="110" y="62" type="line"/>
    </contour>
  </outline>
</glyph>
<glyph name="J" format="1">
  <advance width="265"/>
  <unicode hex="004A"/>
  <outline>
    <contour>
      <point x="241" y="129" type="line" smooth="yes"/>
      <point x="241" y="-8"/>
      <point x="122" y="-8" type="qcurve" smooth="yes"/>
      <point x="2" y="-8"/>
      <point x="2" y="129" type="qcurve" smooth="yes"/>
      <point x="2" y="206" type="line"/>
      <point x="67" y="206" type="line"/>
      <point x="67" y="127" type="line" smooth="yes"/>
      <point x="67" y="83"/>
      <point x="77" y="67" type="qcurve"/>
      <point x="77" y="68" type="line"/>
      <point x="89" y="47"/>
      <point x="122" y="47" type="qcurve" smooth="yes"/>
      <point x="177" y="47"/>
      <point x="177" y="127" type="qcurve" smooth="yes"/>
      <point x="177" y="834" type="line"/>
      <point x="241" y="834" type="line"/>
    </contour>
  </outline>
</glyph>
<glyph name="K" format="1">
  <advance width="295"/>
  <unicode hex="004B"/>
  <outline>
    <contour>
      <point x="265" y="0" type="line"/>
      <point x="203" y="0" type="line"/>
      <point x="203" y="379" type="line" smooth="yes"/>
      <point x="203" y="422"/>
      <point x="192" y="436" type="qcurve" smooth="yes"/>
      <point x="180" y="451"/>
      <point x="136" y="451" type="qcurve" smooth="yes"/>
      <point x="93" y="451" type="line"/>
      <point x="93" y="0" type="line"/>
      <point x="29" y="0" type="line"/>
      <point x="29" y="834" type="line"/>
      <point x="93" y="834" type="line"/>
      <point x="93" y="506" type="line"/>
      <point x="136" y="506" type="line" smooth="yes"/>
      <point x="180" y="506"/>
      <point x="192" y="521" type="qcurve" smooth="yes"/>
      <point x="203" y="535"/>
      <point x="203" y="580" type="qcurve" smooth="yes"/>
      <point x="203" y="834" type="line"/>
      <point x="265" y="834" type="line"/>
      <point x="265" y="576" type="line" smooth="yes"/>
      <point x="265" y="508"/>
      <point x="226" y="479" type="qcurve"/>
      <point x="265" y="449"/>
      <point x="265" y="381" type="qcurve" smooth="yes"/>
    </contour>
  </outline>
</glyph>
<glyph name="L" format="1">
  <advance width="246"/>
  <unicode hex="004C"/>
  <outline>
    <contour>
      <point x="261" y="0" type="line"/>
      <point x="26" y="0" type="line"/>
      <point x="26" y="834" type="line"/>
      <point x="90" y="834" type="line"/>
      <point x="90" y="56" type="line"/>
      <point x="261" y="56" type="line"/>
    </contour>
  </outline>
</glyph>
<glyph name="M" format="1">
  <advance width="459"/>
  <unicode hex="004D"/>
  <outline>
    <contour>
      <point x="434" y="0" type="line"/>
      <point x="371" y="0" type="line"/>
      <point x="371" y="557" type="line"/>
      <point x="253" y="49" type="line"/>
      <point x="202" y="49" type="line"/>
      <point x="90" y="545" type="line"/>
      <point x="90" y="0" type="line"/>
      <point x="26" y="0" type="line"/>
      <point x="26" y="834" type="line"/>
      <point x="88" y="834" type="line"/>
      <point x="227" y="209" type="line"/>
      <point x="372" y="834" type="line"/>
      <point x="434" y="834" type="line"/>
    </contour>
  </outline>
</glyph>
<glyph name="N" format="1">
  <advance width="287"/>
  <unicode hex="004E"/>
  <outline>
    <contour>
      <point x="275" y="0" type="line"/>
      <point x="207" y="0" type="line"/>
      <point x="207" y="29" type="line"/>
      <point x="90" y="545" type="line"/>
      <point x="90" y="0" type="line"/>
      <point x="26" y="0" type="line"/>
      <point x="26" y="834" type="line"/>
      <point x="90" y="834" type="line"/>
      <point x="90" y="827" type="line"/>
      <point x="207" y="314" type="line"/>
      <point x="207" y="834" type="line"/>
      <point x="270" y="834" type="line"/>
    </contour>
  </outline>
</glyph>
<glyph name="P" format="1">
  <advance width="280"/>
  <unicode hex="0050"/>
  <outline>
    <contour>
      <point x="207" y="705" type="line" smooth="yes"/>
      <point x="207" y="748"/>
      <point x="196" y="762" type="qcurve"/>
      <point x="182" y="776"/>
      <point x="140" y="776" type="qcurve" smooth="yes"/>
      <point x="97" y="776" type="line"/>
      <point x="97" y="509" type="line"/>
      <point x="140" y="509" type="line" smooth="yes"/>
      <point x="182" y="509"/>
      <point x="195" y="522" type="qcurve" smooth="yes"/>
      <point x="196" y="523" type="line"/>
      <point x="195" y="522" type="line"/>
      <point x="207" y="537"/>
      <point x="207" y="581" type="qcurve" smooth="yes"/>
    </contour>
    <contour>
      <point x="269" y="577" type="line" smooth="yes"/>
      <point x="269" y="452"/>
      <point x="149" y="452" type="qcurve" smooth="yes"/>
      <point x="97" y="452" type="line"/>
      <point x="97" y="0" type="line"/>
      <point x="33" y="0" type="line"/>
      <point x="33" y="834" type="line"/>
      <point x="149" y="834" type="line" smooth="yes"/>
      <point x="222" y="834"/>
      <point x="249" y="795" type="qcurve"/>
      <point x="269" y="763"/>
      <point x="269" y="694" type="qcurve" smooth="yes"/>
    </contour>
  </outline>
</glyph>
<glyph name="Q" format="1">
  <advance width="285"/>
  <unicode hex="0051"/>
  <outline>
    <contour>
      <point x="87" y="127" type="line" smooth="yes"/>
      <point x="87" y="67"/>
      <point x="116" y="53" type="qcurve"/>
      <point x="116" y="381" type="line" smooth="yes"/>
      <point x="116" y="439"/>
      <point x="87" y="454" type="qcurve"/>
    </contour>
    <contour>
      <point x="197" y="707" type="line" smooth="yes"/>
      <point x="197" y="785"/>
      <point x="87" y="785"/>
      <point x="87" y="707" type="qcurve" smooth="yes"/>
      <point x="87" y="513" type="line"/>
      <point x="180" y="498"/>
      <point x="180" y="379" type="qcurve" smooth="yes"/>
      <point x="180" y="60" type="line"/>
      <point x="197" y="80"/>
      <point x="197" y="127" type="qcurve" smooth="yes"/>
    </contour>
    <contour>
      <point x="261" y="129" type="line" smooth="yes"/>
      <point x="261" y="15"/>
      <point x="180" y="-3" type="qcurve"/>
      <point x="180" y="-46" type="line" smooth="yes"/>
      <point x="180" y="-124"/>
      <point x="250" y="-124" type="qcurve"/>
      <point x="250" y="-180" type="line"/>
      <point x="116" y="-180"/>
      <point x="116" y="-44" type="qcurve" smooth="yes"/>
      <point x="116" y="-6" type="line"/>
      <point x="24" y="9"/>
      <point x="24" y="129" type="qcurve" smooth="yes"/>
      <point x="24" y="705" type="line" smooth="yes"/>
      <point x="24" y="841"/>
      <point x="142" y="841" type="qcurve" smooth="yes"/>
      <point x="261" y="841"/>
      <point x="261" y="705" type="qcurve" smooth="yes"/>
    </contour>
  </outline>
</glyph>
<glyph name="R" format="1">
  <advance width="298"/>
  <unicode hex="0052"/>
  <outline>
    <contour>
      <point x="203" y="705" type="line" smooth="yes"/>
      <point x="203" y="748"/>
      <point x="192" y="762" type="qcurve"/>
      <point x="178" y="776"/>
      <point x="136" y="776" type="qcurve" smooth="yes"/>
      <point x="93" y="776" type="line"/>
      <point x="93" y="502" type="line"/>
      <point x="136" y="502" type="line" smooth="yes"/>
      <point x="178" y="502"/>
      <point x="192" y="517" type="qcurve"/>
      <point x="191" y="517" type="line"/>
      <point x="203" y="530"/>
      <point x="203" y="575" type="qcurve" smooth="yes"/>
    </contour>
    <contour>
      <point x="265" y="0" type="line"/>
      <point x="203" y="0" type="line"/>
      <point x="203" y="367" type="line" smooth="yes"/>
      <point x="203" y="410"/>
      <point x="190" y="423" type="qcurve"/>
      <point x="174" y="441"/>
      <point x="136" y="441" type="qcurve" smooth="yes"/>
      <point x="93" y="441" type="line"/>
      <point x="93" y="0" type="line"/>
      <point x="29" y="0" type="line"/>
      <point x="29" y="834" type="line"/>
      <point x="145" y="834" type="line" smooth="yes"/>
      <point x="218" y="834"/>
      <point x="245" y="795" type="qcurve"/>
      <point x="265" y="763"/>
      <point x="265" y="694" type="qcurve" smooth="yes"/>
      <point x="265" y="572" type="line" smooth="yes"/>
      <point x="265" y="502"/>
      <point x="225" y="474" type="qcurve"/>
      <point x="265" y="443"/>
      <point x="265" y="371" type="qcurve" smooth="yes"/>
    </contour>
  </outline>
</glyph>
<glyph name="S" format="1">
  <advance width="267"/>
  <unicode hex="0053"/>
  <outline>
    <contour>
      <point x="134" y="501" type="qcurve" smooth="yes"/>
      <point x="231" y="501"/>
      <point x="248" y="412" type="qcurve"/>
      <point x="251" y="412" type="line"/>
      <point x="251" y="129" type="line" smooth="yes"/>
      <point x="251" y="-8"/>
      <point x="134" y="-8" type="qcurve" smooth="yes"/>
      <point x="14" y="-8"/>
      <point x="14" y="129" type="qcurve" smooth="yes"/>
      <point x="14" y="201" type="line"/>
      <point x="79" y="201" type="line"/>
      <point x="79" y="127" type="line" smooth="yes"/>
      <point x="79" y="49"/>
      <point x="189" y="49"/>
      <point x="189" y="127" type="qcurve" smooth="yes"/>
      <point x="189" y="386" type="line" smooth="yes"/>
      <point x="189" y="446"/>
      <point x="134" y="446" type="qcurve" smooth="yes"/>
      <point x="14" y="446"/>
      <point x="14" y="584" type="qcurve" smooth="yes"/>
      <point x="14" y="705" type="line" smooth="yes"/>
      <point x="14" y="841"/>
      <point x="134" y="841" type="qcurve" smooth="yes"/>
      <point x="251" y="841"/>
      <point x="251" y="705" type="qcurve" smooth="yes"/>
      <point x="251" y="627" type="line"/>
      <point x="189" y="627" type="line"/>
      <point x="189" y="707" type="line" smooth="yes"/>
      <point x="189" y="786"/>
      <point x="79" y="786"/>
      <point x="79" y="707" type="qcurve" smooth="yes"/>
      <point x="79" y="581" type="line" smooth="yes"/>
      <point x="79" y="501"/>
    </contour>
  </outline>
</glyph>
<glyph name="T" format="1">
  <advance width="274"/>
  <unicode hex="0054"/>
  <outline>
    <contour>
      <point x="280" y="776" type="line"/>
      <point x="171" y="776" type="line"/>
      <point x="171" y="0" type="line"/>
      <point x="107" y="0" type="line"/>
      <point x="107" y="776" type="line"/>
      <point x="-6" y="776" type="line"/>
      <point x="-6" y="834" type="line"/>
      <point x="280" y="834" type="line"/>
    </contour>
  </outline>
</glyph>
<glyph name="U" format="1">
  <advance width="285"/>
  <unicode hex="0055"/>
  <outline>
    <contour>
      <point x="261" y="129" type="line" smooth="yes"/>
      <point x="261" y="-8"/>
      <point x="142" y="-8" type="qcurve" smooth="yes"/>
      <point x="24" y="-8"/>
      <point x="24" y="129" type="qcurve" smooth="yes"/>
      <point x="24" y="834" type="line"/>
      <point x="87" y="834" type="line"/>
      <point x="87" y="127" type="line" smooth="yes"/>
      <point x="87" y="47"/>
      <point x="197" y="47"/>
      <point x="197" y="127" type="qcurve" smooth="yes"/>
      <point x="197" y="834" type="line"/>
      <point x="261" y="834" type="line"/>
    </contour>
  </outline>
</glyph>
<glyph name="V" format="1">
  <advance width="280"/>
  <unicode hex="0056"/>
  <outline>
    <contour>
      <point x="287" y="834" type="line"/>
      <point x="167" y="0" type="line"/>
      <point x="113" y="0" type="line"/>
      <point x="-7" y="834" type="line"/>
      <point x="57" y="834" type="line"/>
      <point x="140" y="252" type="line"/>
      <point x="223" y="834" type="line"/>
    </contour>
  </outline>
</glyph>
<glyph name="X" format="1">
  <advance width="280"/>
  <unicode hex="0058"/>
  <outline>
    <contour>
      <point x="172" y="419" type="line"/>
      <point x="289" y="0" type="line"/>
      <point x="221" y="0" type="line"/>
      <point x="139" y="308" type="line"/>
      <point x="55" y="0" type="line"/>
      <point x="-9" y="0" type="line"/>
      <point x="107" y="426" type="line"/>
      <point x="-9" y="834" type="line"/>
      <point x="58" y="834" type="line"/>
      <point x="140" y="530" type="line"/>
      <point x="225" y="834" type="line"/>
      <point x="289" y="834" type="line"/>
    </contour>
  </outline>
</glyph>
<glyph name="Y" format="1">
  <advance width="267"/>
  <unicode hex="0059"/>
  <outline>
    <contour>
      <point x="285" y="834" type="line"/>
      <point x="166" y="426" type="line"/>
      <point x="166" y="0" type="line"/>
      <point x="102" y="0" type="line"/>
      <point x="102" y="428" type="line"/>
      <point x="-14" y="834" type="line"/>
      <point x="53" y="834" type="line"/>
      <point x="135" y="530" type="line"/>
      <point x="220" y="834" type="line"/>
    </contour>
  </outline>
</glyph>
<glyph name="Z" format="1">
  <advance width="262"/>
  <unicode hex="005A"/>
  <outline>
    <contour>
      <point x="263" y="834" type="line"/>
      <point x="80" y="56" type="line"/>
      <point x="256" y="56" type="line"/>
      <point x="256" y="0" type="line"/>
      <point x="0" y="0" type="line"/>
      <point x="183" y="776" type="line"/>
      <point x="8" y="776" type="line"/>
      <point x="8" y="834" type="line"/>
    </contour>
  </outline>
</glyph>
<glyph name="bracketleft" format="1">
  <advance width="150"/>
  <unicode hex="005B"/>
  <outline>
    <contour>
      <point x="155" y="-224" type="line"/>
      <point x="26" y="-224" type="line"/>
      <point x="26" y="887" type="line"/>
      <point x="155" y="887" type="line"/>
      <point x="155" y="831" type="line"/>
      <point x="90" y="831" type="line"/>
      <point x="90" y="-169" type="line"/>
      <point x="155" y="-169" type="line"/>
    </contour>
  </outline>
</glyph>
<glyph name="backslash" format="1">
  <advance width="291"/>
  <unicode hex="005C"/>
  <outline>
    <contour>
      <point x="307" y="0" type="line"/>
      <point x="243" y="0" type="line"/>
      <point x="-14" y="841" type="line"/>
      <point x="50" y="841" type="line"/>
    </contour>
  </outline>
</glyph>
<glyph name="bracketright" format="1">
  <advance width="150"/>
  <unicode hex="005D"/>
  <outline>
    <contour>
      <point x="155" y="-224" type="line"/>
      <point x="26" y="-224" type="line"/>
      <point x="26" y="-169" type="line"/>
      <point x="91" y="-169" type="line"/>
      <point x="91" y="831" type="line"/>
      <point x="26" y="831" type="line"/>
      <point x="26" y="887" type="line"/>
      <point x="155" y="887" type="line"/>
    </contour>
  </outline>
</glyph>
<glyph name="asciicircum" format="1">
  <advance width="332"/>
  <unicode hex="005E"/>
  <outline>
    <contour>
      <point x="238" y="536" type="line"/>
      <point x="174" y="536" type="line"/>
      <point x="166" y="587" type="line"/>
      <point x="158" y="536" type="line"/>
      <point x="94" y="536" type="line"/>
      <point x="139" y="824" type="line"/>
      <point x="193" y="824" type="line"/>
    </contour>
  </outline>
</glyph>
<glyph name="underscore" format="1">
  <advance width="558"/>
  <unicode hex="005F"/>
  <outline>
    <contour>
      <point x="574" y="-100" type="line"/>
      <point x="-16" y="-100" type="line"/>
      <point x="-16" y="-37" type="line"/>
      <point x="574" y="-37" type="line"/>
    </contour>
  </outline>
</glyph>
<glyph name="grave" format="1">
  <advance width="150"/>
  <unicode hex="0060"/>
  <outline>
    <contour>
      <point x="142" y="674" type="line"/>
      <point x="80" y="642" type="line"/>
      <point x="5" y="792" type="line"/>
      <point x="65" y="824" type="line"/>
    </contour>
  </outline>
</glyph>
<glyph name="b" format="1">
  <advance width="275"/>
  <unicode hex="0062"/>
  <outline>
    <contour>
      <point x="197" y="466" type="line" smooth="yes"/>
      <point x="197" y="545"/>
      <point x="87" y="545"/>
      <point x="87" y="466" type="qcurve" smooth="yes"/>
      <point x="87" y="127" type="line" smooth="yes"/>
      <point x="87" y="47"/>
      <point x="197" y="47"/>
      <point x="197" y="127" type="qcurve" smooth="yes"/>
    </contour>
    <contour>
      <point x="261" y="129" type="line" smooth="yes"/>
      <point x="261" y="-8"/>
      <point x="142" y="-8" type="qcurve" smooth="yes"/>
      <point x="108" y="-8"/>
      <point x="87" y="2" type="qcurve"/>
      <point x="87" y="-4" type="line"/>
      <point x="24" y="-4" type="line"/>
      <point x="24" y="824" type="line"/>
      <point x="87" y="824" type="line"/>
      <point x="87" y="592" type="line"/>
      <point x="109" y="601"/>
      <point x="142" y="601" type="qcurve" smooth="yes"/>
      <point x="261" y="601"/>
      <point x="261" y="464" type="qcurve" smooth="yes"/>
    </contour>
  </outline>
</glyph>
<glyph name="c" format="1">
  <advance width="272"/>
  <unicode hex="0063"/>
  <outline>
    <contour>
      <point x="261" y="129" type="line" smooth="yes"/>
      <point x="261" y="-8"/>
      <point x="142" y="-8" type="qcurve" smooth="yes"/>
      <point x="24" y="-8"/>
      <point x="24" y="129" type="qcurve" smooth="yes"/>
      <point x="24" y="464" type="line" smooth="yes"/>
      <point x="24" y="601"/>
      <point x="142" y="601" type="qcurve" smooth="yes"/>
      <point x="261" y="601"/>
      <point x="261" y="464" type="qcurve" smooth="yes"/>
      <point x="261" y="392" type="line"/>
      <point x="197" y="392" type="line"/>
      <point x="197" y="466" type="line" smooth="yes"/>
      <point x="197" y="545"/>
      <point x="87" y="545"/>
      <point x="87" y="466" type="qcurve" smooth="yes"/>
      <point x="87" y="127" type="line" smooth="yes"/>
      <point x="87" y="47"/>
      <point x="197" y="47"/>
      <point x="197" y="127" type="qcurve" smooth="yes"/>
      <point x="197" y="206" type="line"/>
      <point x="261" y="206" type="line"/>
    </contour>
  </outline>
</glyph>
<glyph name="d" format="1">
  <advance width="285"/>
  <unicode hex="0064"/>
  <outline>
    <contour>
      <point x="197" y="466" type="line" smooth="yes"/>
      <point x="197" y="545"/>
      <point x="144" y="545" type="qcurve" smooth="yes"/>
      <point x="87" y="545"/>
      <point x="87" y="466" type="qcurve" smooth="yes"/>
      <point x="87" y="127" type="line" smooth="yes"/>
      <point x="87" y="47"/>
      <point x="144" y="47" type="qcurve" smooth="yes"/>
      <point x="197" y="47"/>
      <point x="197" y="127" type="qcurve" smooth="yes"/>
    </contour>
    <contour>
      <point x="261" y="-4" type="line"/>
      <point x="199" y="-4" type="line"/>
      <point x="199" y="2" type="line"/>
      <point x="178" y="-8"/>
      <point x="144" y="-8" type="qcurve" smooth="yes"/>
      <point x="24" y="-8"/>
      <point x="24" y="129" type="qcurve" smooth="yes"/>
      <point x="24" y="464" type="line" smooth="yes"/>
      <point x="24" y="601"/>
      <point x="144" y="601" type="qcurve" smooth="yes"/>
      <point x="176" y="601"/>
      <point x="199" y="592" type="qcurve"/>
      <point x="199" y="824" type="line"/>
      <point x="261" y="824" type="line"/>
    </contour>
  </outline>
</glyph>
<glyph name="f" format="1">
  <advance width="254"/>
  <unicode hex="0066"/>
  <outline>
    <contour>
      <point x="268" y="664" type="line"/>
      <point x="203" y="664" type="line"/>
      <point x="203" y="699" type="line" smooth="yes"/>
      <point x="203" y="737"/>
      <point x="193" y="758" type="qcurve"/>
      <point x="180" y="777"/>
      <point x="148" y="777" type="qcurve" smooth="yes"/>
      <point x="93" y="777"/>
      <point x="93" y="699" type="qcurve" smooth="yes"/>
      <point x="93" y="600" type="line"/>
      <point x="229" y="600" type="line"/>
      <point x="229" y="540" type="line"/>
      <point x="93" y="540" type="line"/>
      <point x="93" y="-8" type="line"/>
      <point x="29" y="-8" type="line"/>
      <point x="29" y="696" type="line" smooth="yes"/>
      <point x="29" y="834"/>
      <point x="148" y="834" type="qcurve" smooth="yes"/>
      <point x="268" y="834"/>
      <point x="268" y="696" type="qcurve" smooth="yes"/>
    </contour>
  </outline>
</glyph>
<glyph name="g" format="1">
  <advance width="285"/>
  <unicode hex="0067"/>
  <outline>
    <contour>
      <point x="197" y="466" type="line" smooth="yes"/>
      <point x="197" y="545"/>
      <point x="87" y="545"/>
      <point x="87" y="466" type="qcurve" smooth="yes"/>
      <point x="87" y="127" type="line" smooth="yes"/>
      <point x="87" y="47"/>
      <point x="197" y="47"/>
      <point x="197" y="127" type="qcurve" smooth="yes"/>
    </contour>
    <contour>
      <point x="262" y="-95" type="line" smooth="yes"/>
      <point x="262" y="-231"/>
      <point x="144" y="-231" type="qcurve" smooth="yes"/>
      <point x="24" y="-231"/>
      <point x="24" y="-95" type="qcurve" smooth="yes"/>
      <point x="24" y="-18" type="line"/>
      <point x="89" y="-18" type="line"/>
      <point x="89" y="-98" type="line" smooth="yes"/>
      <point x="89" y="-140"/>
      <point x="98" y="-157" type="qcurve"/>
      <point x="98" y="-156" type="line"/>
      <point x="110" y="-176"/>
      <point x="144" y="-176" type="qcurve" smooth="yes"/>
      <point x="199" y="-176"/>
      <point x="199" y="-98" type="qcurve" smooth="yes"/>
      <point x="199" y="2" type="line"/>
      <point x="178" y="-8"/>
      <point x="142" y="-8" type="qcurve" smooth="yes"/>
      <point x="24" y="-8"/>
      <point x="24" y="129" type="qcurve" smooth="yes"/>
      <point x="24" y="464" type="line" smooth="yes"/>
      <point x="24" y="601"/>
      <point x="142" y="601" type="qcurve" smooth="yes"/>
      <point x="175" y="601"/>
      <point x="199" y="592" type="qcurve"/>
      <point x="199" y="599" type="line"/>
      <point x="262" y="599" type="line"/>
    </contour>
  </outline>
</glyph>
<glyph name="h" format="1">
  <advance width="285"/>
  <unicode hex="0068"/>
  <outline>
    <contour>
      <point x="261" y="-8" type="line"/>
      <point x="197" y="-8" type="line"/>
      <point x="197" y="469" type="line" smooth="yes"/>
      <point x="197" y="549"/>
      <point x="87" y="549"/>
      <point x="87" y="469" type="qcurve" smooth="yes"/>
      <point x="87" y="-8" type="line"/>
      <point x="21" y="-8" type="line"/>
      <point x="21" y="834" type="line"/>
      <point x="85" y="834" type="line"/>
      <point x="85" y="593" type="line"/>
      <point x="112" y="604"/>
      <point x="142" y="604" type="qcurve" smooth="yes"/>
      <point x="261" y="604"/>
      <point x="261" y="467" type="qcurve" smooth="yes"/>
    </contour>
  </outline>
</glyph>
<glyph name="i" format="1">
  <advance width="116"/>
  <unicode hex="0069"/>
  <outline>
    <contour>
      <point x="90" y="604" type="line"/>
      <point x="26" y="604" type="line"/>
      <point x="26" y="0" type="line"/>
      <point x="90" y="0" type="line"/>
    </contour>
    <contour>
      <point x="90" y="726" type="line"/>
      <point x="26" y="726" type="line"/>
      <point x="26" y="664" type="line"/>
      <point x="90" y="664" type="line"/>
    </contour>
  </outline>
</glyph>
<glyph name="j" format="1">
  <advance width="104"/>
  <unicode hex="006A"/>
  <outline>
    <contour>
      <point x="83" y="599" type="line"/>
      <point x="21" y="599" type="line"/>
      <point x="21" y="-98" type="line" smooth="yes"/>
      <point x="21" y="-176"/>
      <point x="-50" y="-176" type="qcurve"/>
      <point x="-50" y="-231" type="line"/>
      <point x="83" y="-231"/>
      <point x="83" y="-95" type="qcurve" smooth="yes"/>
    </contour>
    <contour>
      <point x="86" y="727" type="line"/>
      <point x="23" y="727" type="line"/>
      <point x="23" y="665" type="line"/>
      <point x="86" y="665" type="line"/>
    </contour>
  </outline>
</glyph>
<glyph name="k" format="1">
  <advance width="281"/>
  <unicode hex="006B"/>
  <outline>
    <contour>
      <point x="260" y="0" type="line"/>
      <point x="198" y="0" type="line"/>
      <point x="198" y="259" type="line" smooth="yes"/>
      <point x="198" y="305"/>
      <point x="185" y="318" type="qcurve" smooth="yes"/>
      <point x="177" y="326"/>
      <point x="131" y="326" type="qcurve" smooth="yes"/>
      <point x="88" y="326" type="line"/>
      <point x="88" y="0" type="line"/>
      <point x="24" y="0" type="line"/>
      <point x="24" y="834" type="line"/>
      <point x="88" y="834" type="line"/>
      <point x="88" y="386" type="line"/>
      <point x="131" y="386" type="line" smooth="yes"/>
      <point x="175" y="386"/>
      <point x="187" y="401" type="qcurve" smooth="yes"/>
      <point x="198" y="415"/>
      <point x="198" y="460" type="qcurve" smooth="yes"/>
      <point x="198" y="604" type="line"/>
      <point x="260" y="605" type="line"/>
      <point x="260" y="456" type="line" smooth="yes"/>
      <point x="260" y="388"/>
      <point x="224" y="359" type="qcurve"/>
      <point x="260" y="330"/>
      <point x="260" y="261" type="qcurve" smooth="yes"/>
    </contour>
  </outline>
</glyph>
<glyph name="l" format="1">
  <advance width="116"/>
  <unicode hex="006C"/>
  <outline>
    <contour>
      <point x="90" y="854" type="line"/>
      <point x="26" y="792" type="line"/>
      <point x="26" y="0" type="line"/>
      <point x="90" y="0" type="line"/>
    </contour>
  </outline>
</glyph>
<glyph name="m" format="1">
  <advance width="452"/>
  <unicode hex="006D"/>
  <outline>
    <contour>
      <point x="436" y="-8" type="line"/>
      <point x="372" y="-8" type="line"/>
      <point x="372" y="469" type="line" smooth="yes"/>
      <point x="372" y="549"/>
      <point x="262" y="549"/>
      <point x="262" y="469" type="qcurve" smooth="yes"/>
      <point x="262" y="-8" type="line"/>
      <point x="197" y="-8" type="line"/>
      <point x="197" y="469" type="line" smooth="yes"/>
      <point x="197" y="549"/>
      <point x="87" y="549"/>
      <point x="87" y="469" type="qcurve" smooth="yes"/>
      <point x="87" y="-8" type="line"/>
      <point x="21" y="-8" type="line"/>
      <point x="21" y="604" type="line"/>
      <point x="85" y="604" type="line"/>
      <point x="85" y="593" type="line"/>
      <point x="112" y="604"/>
      <point x="142" y="604" type="qcurve" smooth="yes"/>
      <point x="199" y="604"/>
      <point x="229" y="572" type="qcurve"/>
      <point x="259" y="604"/>
      <point x="317" y="604" type="qcurve" smooth="yes"/>
      <point x="436" y="604"/>
      <point x="436" y="467" type="qcurve" smooth="yes"/>
    </contour>
  </outline>
</glyph>
<glyph name="n" format="1">
  <advance width="279"/>
  <unicode hex="006E"/>
  <outline>
    <contour>
      <point x="261" y="-8" type="line"/>
      <point x="197" y="-8" type="line"/>
      <point x="197" y="469" type="line" smooth="yes"/>
      <point x="197" y="549"/>
      <point x="87" y="549"/>
      <point x="87" y="469" type="qcurve" smooth="yes"/>
      <point x="87" y="-8" type="line"/>
      <point x="21" y="-8" type="line"/>
      <point x="21" y="604" type="line"/>
      <point x="85" y="604" type="line"/>
      <point x="85" y="593" type="line"/>
      <point x="112" y="604"/>
      <point x="142" y="604" type="qcurve" smooth="yes"/>
      <point x="261" y="604"/>
      <point x="261" y="467" type="qcurve" smooth="yes"/>
    </contour>
  </outline>
</glyph>
<glyph name="p" format="1">
  <advance width="275"/>
  <unicode hex="0070"/>
  <outline>
    <contour>
      <point x="192" y="465" type="line" smooth="yes"/>
      <point x="192" y="545"/>
      <point x="136" y="545" type="qcurve" smooth="yes"/>
      <point x="82" y="545"/>
      <point x="82" y="465" type="qcurve" smooth="yes"/>
      <point x="82" y="126" type="line" smooth="yes"/>
      <point x="82" y="47"/>
      <point x="136" y="47" type="qcurve" smooth="yes"/>
      <point x="192" y="47"/>
      <point x="192" y="126" type="qcurve" smooth="yes"/>
    </contour>
    <contour>
      <point x="256" y="129" type="line" smooth="yes"/>
      <point x="256" y="-9"/>
      <point x="136" y="-9" type="qcurve" smooth="yes"/>
      <point x="104" y="-9"/>
      <point x="81" y="0" type="qcurve"/>
      <point x="81" y="-231" type="line"/>
      <point x="19" y="-231" type="line"/>
      <point x="19" y="596" type="line"/>
      <point x="81" y="596" type="line"/>
      <point x="81" y="591" type="line"/>
      <point x="104" y="600"/>
      <point x="136" y="600" type="qcurve" smooth="yes"/>
      <point x="256" y="600"/>
      <point x="256" y="464" type="qcurve" smooth="yes"/>
    </contour>
  </outline>
</glyph>
<glyph name="q" format="1">
  <advance width="275"/>
  <unicode hex="0071"/>
  <outline>
    <contour>
      <point x="192" y="465" type="line" smooth="yes"/>
      <point x="192" y="545"/>
      <point x="82" y="545"/>
      <point x="82" y="465" type="qcurve" smooth="yes"/>
      <point x="82" y="126" type="line" smooth="yes"/>
      <point x="82" y="47"/>
      <point x="192" y="47"/>
      <point x="192" y="126" type="qcurve" smooth="yes"/>
    </contour>
    <contour>
      <point x="256" y="-231" type="line"/>
      <point x="192" y="-231" type="line"/>
      <point x="192" y="0" type="line"/>
      <point x="168" y="-9"/>
      <point x="137" y="-9" type="qcurve" smooth="yes"/>
      <point x="19" y="-9"/>
      <point x="19" y="129" type="qcurve" smooth="yes"/>
      <point x="19" y="464" type="line" smooth="yes"/>
      <point x="19" y="600"/>
      <point x="137" y="600" type="qcurve" smooth="yes"/>
      <point x="168" y="600"/>
      <point x="192" y="591" type="qcurve"/>
      <point x="192" y="596" type="line"/>
      <point x="256" y="596" type="line"/>
    </contour>
  </outline>
</glyph>
<glyph name="r" format="1">
  <advance width="259"/>
  <unicode hex="0072"/>
  <outline>
    <contour>
      <point x="262" y="385" type="line"/>
      <point x="197" y="385" type="line"/>
      <point x="197" y="464" type="line" smooth="yes"/>
      <point x="197" y="500"/>
      <point x="187" y="520" type="qcurve" smooth="yes"/>
      <point x="177" y="542"/>
      <point x="142" y="542" type="qcurve" smooth="yes"/>
      <point x="100" y="542"/>
      <point x="90" y="496" type="qcurve"/>
      <point x="90" y="486" type="line"/>
      <point x="89" y="482"/>
      <point x="89" y="467" type="qcurve" smooth="yes"/>
      <point x="89" y="-3" type="line"/>
      <point x="24" y="-3" type="line"/>
      <point x="24" y="604" type="line"/>
      <point x="90" y="604" type="line"/>
      <point x="90" y="589" type="line"/>
      <point x="106" y="594"/>
      <point x="122" y="597" type="qcurve" smooth="yes"/>
      <point x="138" y="600"/>
      <point x="155" y="600" type="qcurve" smooth="yes"/>
      <point x="216" y="600"/>
      <point x="240" y="564" type="qcurve"/>
      <point x="262" y="528"/>
      <point x="262" y="461" type="qcurve" smooth="yes"/>
    </contour>
  </outline>
</glyph>
<glyph name="s" format="1">
  <advance width="267"/>
  <unicode hex="0073"/>
  <outline>
    <contour>
      <point x="137" y="349" type="qcurve" smooth="yes"/>
      <point x="234" y="349"/>
      <point x="251" y="259" type="qcurve"/>
      <point x="254" y="259" type="line"/>
      <point x="254" y="129" type="line" smooth="yes"/>
      <point x="254" y="-8"/>
      <point x="137" y="-8" type="qcurve" smooth="yes"/>
      <point x="17" y="-8"/>
      <point x="17" y="129" type="qcurve" smooth="yes"/>
      <point x="17" y="201" type="line"/>
      <point x="82" y="201" type="line"/>
      <point x="82" y="127" type="line" smooth="yes"/>
      <point x="82" y="49"/>
      <point x="192" y="49"/>
      <point x="192" y="127" type="qcurve" smooth="yes"/>
      <point x="192" y="234" type="line" smooth="yes"/>
      <point x="192" y="294"/>
      <point x="137" y="294" type="qcurve" smooth="yes"/>
      <point x="17" y="294"/>
      <point x="17" y="430" type="qcurve" smooth="yes"/>
      <point x="17" y="473" type="line" smooth="yes"/>
      <point x="17" y="601"/>
      <point x="137" y="601" type="qcurve" smooth="yes"/>
      <point x="254" y="601"/>
      <point x="254" y="464" type="qcurve" smooth="yes"/>
      <point x="254" y="404" type="line"/>
      <point x="192" y="404" type="line"/>
      <point x="192" y="466" type="line" smooth="yes"/>
      <point x="192" y="545"/>
      <point x="82" y="545"/>
      <point x="82" y="466" type="qcurve" smooth="yes"/>
      <point x="82" y="437" type="line" smooth="yes"/>
      <point x="82" y="388"/>
      <point x="96" y="370" type="qcurve"/>
      <point x="108" y="349"/>
    </contour>
  </outline>
</glyph>
<glyph name="t" format="1">
  <advance width="190"/>
  <unicode hex="0074"/>
  <outline>
    <contour>
      <point x="201" y="545" type="line"/>
      <point x="90" y="545" type="line"/>
      <point x="90" y="0" type="line"/>
      <point x="26" y="0" type="line"/>
      <point x="26" y="730" type="line"/>
      <point x="90" y="730" type="line"/>
      <point x="90" y="605" type="line"/>
      <point x="201" y="605" type="line"/>
    </contour>
  </outline>
</glyph>
<glyph name="v" format="1">
  <advance width="219"/>
  <unicode hex="0076"/>
  <outline>
    <contour>
      <point x="232" y="602" type="line"/>
      <point x="138" y="0" type="line"/>
      <point x="85" y="0" type="line"/>
      <point x="-9" y="602" type="line"/>
      <point x="56" y="602" type="line"/>
      <point x="111" y="240" type="line"/>
      <point x="167" y="602" type="line"/>
    </contour>
  </outline>
</glyph>
<glyph name="w" format="1">
  <advance width="459"/>
  <unicode hex="0077"/>
  <outline>
    <contour>
      <point x="435" y="129" type="line" smooth="yes"/>
      <point x="435" y="-8"/>
      <point x="319" y="-8" type="qcurve" smooth="yes"/>
      <point x="315" y="-8" type="line"/>
      <point x="247" y="-3"/>
      <point x="228" y="59" type="qcurve"/>
      <point x="203" y="-8"/>
      <point x="142" y="-8" type="qcurve" smooth="yes"/>
      <point x="139" y="-8" type="line" smooth="yes"/>
      <point x="24" y="-8"/>
      <point x="24" y="129" type="qcurve" smooth="yes"/>
      <point x="24" y="604" type="line"/>
      <point x="87" y="604" type="line"/>
      <point x="87" y="127" type="line" smooth="yes"/>
      <point x="87" y="47"/>
      <point x="142" y="47" type="qcurve" smooth="yes"/>
      <point x="168" y="47"/>
      <point x="185" y="119" type="qcurve" smooth="yes"/>
      <point x="192" y="146"/>
      <point x="194" y="175" type="qcurve"/>
      <point x="197" y="203"/>
      <point x="197" y="236" type="qcurve" smooth="yes"/>
      <point x="197" y="604" type="line"/>
      <point x="261" y="604" type="line"/>
      <point x="261" y="236" type="line" smooth="yes"/>
      <point x="261" y="180"/>
      <point x="272" y="119" type="qcurve"/>
      <point x="288" y="47"/>
      <point x="316" y="47" type="qcurve" smooth="yes"/>
      <point x="371" y="47"/>
      <point x="371" y="127" type="qcurve" smooth="yes"/>
      <point x="371" y="604" type="line"/>
      <point x="435" y="604" type="line"/>
    </contour>
  </outline>
</glyph>
<glyph name="x" format="1">
  <advance width="245"/>
  <unicode hex="0078"/>
  <outline>
    <contour>
      <point x="163" y="319" type="line"/>
      <point x="257" y="2" type="line"/>
      <point x="193" y="2" type="line"/>
      <point x="125" y="220" type="line"/>
      <point x="61" y="2" type="line"/>
      <point x="-6" y="2" type="line"/>
      <point x="89" y="311" type="line"/>
      <point x="6" y="600" type="line"/>
      <point x="69" y="600" type="line"/>
      <point x="124" y="414" type="line"/>
      <point x="182" y="600" type="line"/>
      <point x="248" y="600" type="line"/>
    </contour>
  </outline>
</glyph>
<glyph name="y" format="1">
  <advance width="285"/>
  <unicode hex="0079"/>
  <outline>
    <contour>
      <point x="262" y="-95" type="line" smooth="yes"/>
      <point x="262" y="-231"/>
      <point x="144" y="-231" type="qcurve" smooth="yes"/>
      <point x="24" y="-231"/>
      <point x="24" y="-95" type="qcurve" smooth="yes"/>
      <point x="24" y="-18" type="line"/>
      <point x="89" y="-18" type="line"/>
      <point x="89" y="-98" type="line" smooth="yes"/>
      <point x="89" y="-141"/>
      <point x="98" y="-156" type="qcurve" smooth="yes"/>
      <point x="110" y="-176"/>
      <point x="144" y="-176" type="qcurve" smooth="yes"/>
      <point x="199" y="-176"/>
      <point x="199" y="-98" type="qcurve" smooth="yes"/>
      <point x="199" y="2" type="line"/>
      <point x="178" y="-8"/>
      <point x="142" y="-8" type="qcurve" smooth="yes"/>
      <point x="24" y="-8"/>
      <point x="24" y="129" type="qcurve" smooth="yes"/>
      <point x="24" y="604" type="line"/>
      <point x="87" y="604" type="line"/>
      <point x="87" y="127" type="line" smooth="yes"/>
      <point x="87" y="47"/>
      <point x="197" y="47"/>
      <point x="197" y="127" type="qcurve" smooth="yes"/>
      <point x="197" y="604" type="line"/>
      <point x="261" y="604" type="line"/>
      <point x="261" y="599" type="line"/>
      <point x="262" y="599" type="line"/>
    </contour>
  </outline>
</glyph>
<glyph name="z" format="1">
  <advance width="245"/>
  <unicode hex="007A"/>
  <outline>
    <contour>
      <point x="260" y="605" type="line"/>
      <point x="68" y="56" type="line"/>
      <point x="242" y="56" type="line"/>
      <point x="242" y="0" type="line"/>
      <point x="-14" y="0" type="line"/>
      <point x="177" y="547" type="line"/>
      <point x="3" y="547" type="line"/>
      <point x="3" y="605" type="line"/>
    </contour>
  </outline>
</glyph>
<glyph name="braceleft" format="1">
  <advance width="270"/>
  <unicode hex="007B"/>
  <outline>
    <contour>
      <point x="250" y="-232" type="line"/>
      <point x="180" y="-229"/>
      <point x="148" y="-197" type="qcurve" smooth="yes"/>
      <point x="117" y="-166"/>
      <point x="117" y="-105" type="qcurve" smooth="yes"/>
      <point x="117" y="-95" type="line"/>
      <point x="139" y="308" type="line"/>
      <point x="19" y="345" type="line"/>
      <point x="19" y="395" type="line"/>
      <point x="139" y="432" type="line"/>
      <point x="117" y="759" type="line"/>
      <point x="117" y="768" type="line" smooth="yes"/>
      <point x="117" y="825"/>
      <point x="142" y="856" type="qcurve" smooth="yes"/>
      <point x="171" y="893"/>
      <point x="250" y="897" type="qcurve"/>
      <point x="250" y="841" type="line"/>
      <point x="200" y="837"/>
      <point x="190" y="819" type="qcurve"/>
      <point x="190" y="820" type="line"/>
      <point x="181" y="804"/>
      <point x="181" y="770" type="qcurve" smooth="yes"/>
      <point x="181" y="762" type="line"/>
      <point x="203" y="389" type="line"/>
      <point x="149" y="370" type="line"/>
      <point x="203" y="352" type="line"/>
      <point x="181" y="-99" type="line"/>
      <point x="181" y="-106" type="line" smooth="yes"/>
      <point x="181" y="-136"/>
      <point x="190" y="-156" type="qcurve"/>
      <point x="190" y="-157" type="line"/>
      <point x="191" y="-157"/>
      <point x="191" y="-158" type="qcurve" smooth="yes"/>
      <point x="190" y="-157" type="line" smooth="yes"/>
      <point x="199" y="-166"/>
      <point x="212" y="-170" type="qcurve"/>
      <point x="224" y="-175"/>
      <point x="250" y="-177" type="qcurve"/>
    </contour>
  </outline>
</glyph>
<glyph name="bar" format="1">
  <advance width="560"/>
  <unicode hex="007C"/>
  <outline>
    <contour>
      <point x="315" y="-264" type="line"/>
      <point x="245" y="-264" type="line"/>
      <point x="245" y="885" type="line"/>
      <point x="315" y="885" type="line"/>
    </contour>
  </outline>
</glyph>
<glyph name="braceright" format="1">
  <advance width="270"/>
  <unicode hex="007D"/>
  <outline>
    <contour>
      <point x="250" y="345" type="line"/>
      <point x="129" y="308" type="line"/>
      <point x="151" y="-95" type="line"/>
      <point x="151" y="-109" type="line" smooth="yes"/>
      <point x="151" y="-166"/>
      <point x="121" y="-198" type="qcurve" smooth="yes"/>
      <point x="91" y="-229"/>
      <point x="19" y="-232" type="qcurve"/>
      <point x="19" y="-177" type="line"/>
      <point x="57" y="-175"/>
      <point x="72" y="-158" type="qcurve"/>
      <point x="88" y="-143"/>
      <point x="88" y="-114" type="qcurve" smooth="yes"/>
      <point x="88" y="-106" type="line"/>
      <point x="87" y="-104"/>
      <point x="87" y="-99" type="qcurve" smooth="yes"/>
      <point x="65" y="352" type="line"/>
      <point x="119" y="370" type="line"/>
      <point x="65" y="389" type="line"/>
      <point x="87" y="762" type="line"/>
      <point x="87" y="761" type="line" smooth="yes"/>
      <point x="87" y="767"/>
      <point x="88" y="770" type="qcurve"/>
      <point x="88" y="777" type="line" smooth="yes"/>
      <point x="88" y="806"/>
      <point x="56" y="838"/>
      <point x="19" y="842" type="qcurve"/>
      <point x="19" y="897" type="line"/>
      <point x="101" y="893"/>
      <point x="127" y="856" type="qcurve" smooth="yes"/>
      <point x="138" y="841"/>
      <point x="146" y="820" type="qcurve"/>
      <point x="152" y="800"/>
      <point x="152" y="776" type="qcurve" smooth="yes"/>
      <point x="152" y="768" type="line"/>
      <point x="151" y="764"/>
      <point x="151" y="759" type="qcurve" smooth="yes"/>
      <point x="129" y="432" type="line"/>
      <point x="250" y="395" type="line"/>
    </contour>
  </outline>
</glyph>
<glyph name="asciitilde" format="1">
  <advance width="491"/>
  <unicode hex="007E"/>
  <outline>
    <contour>
      <point x="469" y="391" type="line"/>
      <point x="393" y="332"/>
      <point x="339" y="332" type="qcurve" smooth="yes"/>
      <point x="315" y="332"/>
      <point x="288" y="345" type="qcurve" smooth="yes"/>
      <point x="260" y="358"/>
      <point x="223" y="382" type="qcurve" smooth="yes"/>
      <point x="181" y="409"/>
      <point x="158" y="416" type="qcurve"/>
      <point x="152" y="416" type="line" smooth="yes"/>
      <point x="111" y="416"/>
      <point x="10" y="337" type="qcurve"/>
      <point x="21" y="419" type="line"/>
      <point x="94" y="476"/>
      <point x="150" y="479" type="qcurve"/>
      <point x="194" y="479"/>
      <point x="255" y="433" type="qcurve"/>
      <point x="306" y="397"/>
      <point x="332" y="394" type="qcurve"/>
      <point x="336" y="394" type="line"/>
      <point x="336" y="393"/>
      <point x="339" y="393" type="qcurve" smooth="yes"/>
      <point x="378" y="393"/>
      <point x="480" y="471" type="qcurve"/>
    </contour>
  </outline>
</glyph>
<glyph name="exclamdown" format="1">
  <advance width="142"/>
  <unicode hex="00A1"/>
  <outline>
    <contour>
      <point x="102" y="580" type="line"/>
      <point x="41" y="580" type="line"/>
      <point x="41" y="647" type="line"/>
      <point x="102" y="647" type="line"/>
    </contour>
    <contour>
      <point x="104" y="-188" type="line"/>
      <point x="40" y="-188" type="line"/>
      <point x="40" y="526" type="line"/>
      <point x="104" y="526" type="line"/>
    </contour>
  </outline>
</glyph>
<glyph name="cent" format="1">
  <advance width="275"/>
  <unicode hex="00A2"/>
  <outline>
    <contour>
      <point x="87" y="239" type="line" smooth="yes"/>
      <point x="87" y="184"/>
      <point x="111" y="168" type="qcurve"/>
      <point x="111" y="649" type="line"/>
      <point x="87" y="631"/>
      <point x="87" y="578" type="qcurve" smooth="yes"/>
    </contour>
    <contour>
      <point x="261" y="241" type="line" smooth="yes"/>
      <point x="261" y="125"/>
      <point x="175" y="108" type="qcurve"/>
      <point x="175" y="41" type="line"/>
      <point x="111" y="41" type="line"/>
      <point x="111" y="108" type="line"/>
      <point x="24" y="124"/>
      <point x="24" y="241" type="qcurve" smooth="yes"/>
      <point x="24" y="576" type="line" smooth="yes"/>
      <point x="24" y="692"/>
      <point x="111" y="710" type="qcurve"/>
      <point x="111" y="796" type="line"/>
      <point x="175" y="796" type="line"/>
      <point x="175" y="710" type="line"/>
      <point x="261" y="692"/>
      <point x="261" y="576" type="qcurve" smooth="yes"/>
      <point x="261" y="504" type="line"/>
      <point x="197" y="504" type="line"/>
      <point x="197" y="578" type="line" smooth="yes"/>
      <point x="197" y="630"/>
      <point x="175" y="648" type="qcurve"/>
      <point x="175" y="170" type="line"/>
      <point x="197" y="186"/>
      <point x="197" y="239" type="qcurve" smooth="yes"/>
      <point x="197" y="318" type="line"/>
      <point x="261" y="318" type="line"/>
    </contour>
  </outline>
</glyph>
<glyph name="sterling" format="1">
  <advance width="246"/>
  <unicode hex="00A3"/>
  <outline>
    <contour>
      <point x="224" y="322" type="line"/>
      <point x="90" y="322" type="line"/>
      <point x="90" y="56" type="line"/>
      <point x="261" y="56" type="line"/>
      <point x="261" y="0" type="line"/>
      <point x="26" y="0" type="line"/>
      <point x="26" y="322" type="line"/>
      <point x="-17" y="322" type="line"/>
      <point x="-17" y="387" type="line"/>
      <point x="26" y="387" type="line"/>
      <point x="26" y="462" type="line"/>
      <point x="-17" y="462" type="line"/>
      <point x="-17" y="526" type="line"/>
      <point x="26" y="526" type="line"/>
      <point x="26" y="834" type="line"/>
      <point x="90" y="834" type="line"/>
      <point x="90" y="526" type="line"/>
      <point x="224" y="526" type="line"/>
      <point x="224" y="462" type="line"/>
      <point x="90" y="462" type="line"/>
      <point x="90" y="387" type="line"/>
      <point x="224" y="387" type="line"/>
    </contour>
  </outline>
</glyph>
<glyph name="currency" format="1">
  <advance width="295"/>
  <unicode hex="00A4"/>
  <outline>
    <contour>
      <point x="286" y="129" type="line" smooth="yes"/>
      <point x="286" y="-8"/>
      <point x="48" y="-8"/>
      <point x="48" y="129" type="qcurve" smooth="yes"/>
      <point x="48" y="341" type="line"/>
      <point x="-12" y="341" type="line"/>
      <point x="-12" y="406" type="line"/>
      <point x="48" y="406" type="line"/>
      <point x="48" y="480" type="line"/>
      <point x="16" y="480" type="line"/>
      <point x="16" y="545" type="line"/>
      <point x="48" y="545" type="line"/>
      <point x="48" y="705" type="line" smooth="yes"/>
      <point x="48" y="841"/>
      <point x="286" y="841"/>
      <point x="286" y="705" type="qcurve" smooth="yes"/>
      <point x="286" y="632" type="line"/>
      <point x="222" y="632" type="line"/>
      <point x="222" y="707" type="line" smooth="yes"/>
      <point x="222" y="785"/>
      <point x="112" y="785"/>
      <point x="112" y="707" type="qcurve" smooth="yes"/>
      <point x="112" y="545" type="line"/>
      <point x="252" y="545" type="line"/>
      <point x="252" y="480" type="line"/>
      <point x="112" y="480" type="line"/>
      <point x="112" y="406" type="line"/>
      <point x="225" y="406" type="line"/>
      <point x="225" y="341" type="line"/>
      <point x="112" y="341" type="line"/>
      <point x="112" y="127" type="line" smooth="yes"/>
      <point x="112" y="47"/>
      <point x="222" y="47"/>
      <point x="222" y="127" type="qcurve" smooth="yes"/>
      <point x="222" y="206" type="line"/>
      <point x="286" y="206" type="line"/>
    </contour>
  </outline>
</glyph>
<glyph name="yen" format="1">
  <advance width="263"/>
  <unicode hex="00A5"/>
  <outline>
    <contour>
      <point x="283" y="834" type="line"/>
      <point x="164" y="426" type="line"/>
      <point x="164" y="396" type="line"/>
      <point x="254" y="396" type="line"/>
      <point x="254" y="331" type="line"/>
      <point x="164" y="331" type="line"/>
      <point x="164" y="284" type="line"/>
      <point x="254" y="284" type="line"/>
      <point x="254" y="219" type="line"/>
      <point x="164" y="219" type="line"/>
      <point x="164" y="0" type="line"/>
      <point x="100" y="0" type="line"/>
      <point x="100" y="219" type="line"/>
      <point x="12" y="219" type="line"/>
      <point x="12" y="284" type="line"/>
      <point x="100" y="284" type="line"/>
      <point x="100" y="331" type="line"/>
      <point x="12" y="331" type="line"/>
      <point x="12" y="396" type="line"/>
      <point x="100" y="396" type="line"/>
      <point x="100" y="428" type="line"/>
      <point x="-16" y="834" type="line"/>
      <point x="51" y="834" type="line"/>
      <point x="133" y="530" type="line"/>
      <point x="218" y="834" type="line"/>
    </contour>
  </outline>
</glyph>
<glyph name="brokenbar" format="1">
  <advance width="244"/>
  <unicode hex="00A6"/>
  <outline>
    <contour>
      <point x="156" y="369" type="line"/>
      <point x="86" y="369" type="line"/>
      <point x="86" y="812" type="line"/>
      <point x="156" y="812" type="line"/>
    </contour>
    <contour>
      <point x="156" y="-191" type="line"/>
      <point x="86" y="-191" type="line"/>
      <point x="86" y="252" type="line"/>
      <point x="156" y="252" type="line"/>
    </contour>
  </outline>
</glyph>
<glyph name="section" format="1">
  <advance width="285"/>
  <unicode hex="00A7"/>
  <outline>
    <contour>
      <point x="197" y="271" type="line"/>
      <point x="196" y="271" type="line"/>
      <point x="196" y="296" type="line" smooth="yes"/>
      <point x="196" y="332"/>
      <point x="187" y="353" type="qcurve"/>
      <point x="175" y="370"/>
      <point x="144" y="370" type="qcurve" smooth="yes"/>
      <point x="89" y="370"/>
      <point x="89" y="291" type="qcurve" smooth="yes"/>
      <point x="89" y="254" type="line" smooth="yes"/>
      <point x="89" y="212"/>
      <point x="97" y="199" type="qcurve" smooth="yes"/>
      <point x="109" y="179"/>
      <point x="141" y="179" type="qcurve" smooth="yes"/>
      <point x="197" y="179"/>
      <point x="197" y="257" type="qcurve" smooth="yes"/>
    </contour>
    <contour>
      <point x="262" y="36" type="line"/>
      <point x="261" y="6" type="line"/>
      <point x="261" y="-46" type="line" smooth="yes"/>
      <point x="261" y="-183"/>
      <point x="144" y="-183" type="qcurve" smooth="yes"/>
      <point x="24" y="-183"/>
      <point x="24" y="-46" type="qcurve" smooth="yes"/>
      <point x="24" y="26" type="line"/>
      <point x="89" y="26" type="line"/>
      <point x="89" y="-48" type="line" smooth="yes"/>
      <point x="89" y="-126"/>
      <point x="199" y="-126"/>
      <point x="199" y="-48" type="qcurve" smooth="yes"/>
      <point x="199" y="59" type="line" smooth="yes"/>
      <point x="199" y="119"/>
      <point x="144" y="119" type="qcurve" smooth="yes"/>
      <point x="60" y="119"/>
      <point x="35" y="189" type="qcurve" smooth="yes"/>
      <point x="29" y="206"/>
      <point x="26" y="222" type="qcurve"/>
      <point x="24" y="246"/>
      <point x="24" y="260" type="qcurve" smooth="yes"/>
      <point x="24" y="305" type="line"/>
      <point x="25" y="370"/>
      <point x="61" y="401" type="qcurve"/>
      <point x="34" y="425"/>
      <point x="27" y="465" type="qcurve"/>
      <point x="24" y="465" type="line"/>
      <point x="24" y="595" type="line" smooth="yes"/>
      <point x="24" y="731"/>
      <point x="141" y="731" type="qcurve" smooth="yes"/>
      <point x="261" y="731"/>
      <point x="261" y="595" type="qcurve" smooth="yes"/>
      <point x="261" y="522" type="line"/>
      <point x="197" y="522" type="line"/>
      <point x="197" y="597" type="line" smooth="yes"/>
      <point x="197" y="675"/>
      <point x="141" y="675" type="qcurve" smooth="yes"/>
      <point x="87" y="675"/>
      <point x="87" y="597" type="qcurve" smooth="yes"/>
      <point x="87" y="490" type="line" smooth="yes"/>
      <point x="87" y="431"/>
      <point x="142" y="431" type="qcurve" smooth="yes"/>
      <point x="223" y="431"/>
      <point x="250" y="360" type="qcurve" smooth="yes"/>
      <point x="257" y="342"/>
      <point x="258" y="326" type="qcurve"/>
      <point x="261" y="310"/>
      <point x="261" y="290" type="qcurve" smooth="yes"/>
      <point x="261" y="244" type="line"/>
      <point x="260" y="176"/>
      <point x="225" y="148" type="qcurve"/>
      <point x="251" y="125"/>
      <point x="258" y="84" type="qcurve"/>
      <point x="261" y="84" type="line"/>
      <point x="261" y="54" type="line" smooth="yes"/>
      <point x="261" y="51"/>
      <point x="262" y="49" type="qcurve"/>
    </contour>
  </outline>
</glyph>
<glyph name="dieresis" format="1">
  <advance width="174"/>
  <unicode hex="00A8"/>
  <outline>
    <contour>
      <point x="167" y="687" type="line"/>
      <point x="105" y="687" type="line"/>
      <point x="105" y="754" type="line"/>
      <point x="167" y="754" type="line"/>
    </contour>
    <contour>
      <point x="69" y="687" type="line"/>
      <point x="6" y="687" type="line"/>
      <point x="6" y="754" type="line"/>
      <point x="69" y="754" type="line"/>
    </contour>
  </outline>
</glyph>
<glyph name="copyright" format="1">
  <advance width="932"/>
  <unicode hex="00A9"/>
  <outline>
    <contour>
      <point x="585" y="267" type="line" smooth="yes"/>
      <point x="585" y="131"/>
      <point x="465" y="131" type="qcurve" smooth="yes"/>
      <point x="347" y="131"/>
      <point x="347" y="267" type="qcurve" smooth="yes"/>
      <point x="347" y="564" type="line" smooth="yes"/>
      <point x="347" y="701"/>
      <point x="465" y="701" type="qcurve" smooth="yes"/>
      <point x="585" y="701"/>
      <point x="585" y="564" type="qcurve" smooth="yes"/>
      <point x="585" y="492" type="line"/>
      <point x="521" y="492" type="line"/>
      <point x="521" y="566" type="line" smooth="yes"/>
      <point x="521" y="645"/>
      <point x="465" y="645" type="qcurve" smooth="yes"/>
      <point x="411" y="645"/>
      <point x="411" y="566" type="qcurve" smooth="yes"/>
      <point x="411" y="265" type="line" smooth="yes"/>
      <point x="411" y="186"/>
      <point x="465" y="186" type="qcurve" smooth="yes"/>
      <point x="521" y="186"/>
      <point x="521" y="265" type="qcurve" smooth="yes"/>
      <point x="521" y="344" type="line"/>
      <point x="585" y="344" type="line"/>
    </contour>
    <contour>
      <point x="732" y="407" type="qcurve" smooth="yes"/>
      <point x="732" y="722"/>
      <point x="200" y="722"/>
      <point x="200" y="407" type="qcurve" smooth="yes"/>
      <point x="200" y="258"/>
      <point x="264" y="179" type="qcurve"/>
      <point x="333" y="91"/>
      <point x="466" y="91" type="qcurve" smooth="yes"/>
      <point x="732" y="91"/>
    </contour>
    <contour>
      <point x="797" y="407" type="qcurve" smooth="yes"/>
      <point x="797" y="229"/>
      <point x="718" y="132" type="qcurve"/>
      <point x="631" y="27"/>
      <point x="466" y="27" type="qcurve" smooth="yes"/>
      <point x="300" y="27"/>
      <point x="214" y="135" type="qcurve"/>
      <point x="214" y="134" type="line"/>
      <point x="135" y="228"/>
      <point x="135" y="407" type="qcurve" smooth="yes"/>
      <point x="135" y="588"/>
      <point x="213" y="682" type="qcurve"/>
      <point x="213" y="681" type="line"/>
      <point x="298" y="787"/>
      <point x="466" y="787" type="qcurve" smooth="yes"/>
      <point x="797" y="787"/>
    </contour>
  </outline>
</glyph>
<glyph name="ordfeminine" format="1">
  <advance width="285"/>
  <unicode hex="00AA"/>
  <outline>
    <contour>
      <point x="141" y="392" type="qcurve" smooth="yes"/>
      <point x="189" y="392"/>
      <point x="195" y="446" type="qcurve"/>
      <point x="195" y="541" type="line"/>
      <point x="190" y="594"/>
      <point x="141" y="594" type="qcurve" smooth="yes"/>
      <point x="87" y="594"/>
      <point x="87" y="516" type="qcurve" smooth="yes"/>
      <point x="87" y="471" type="line" smooth="yes"/>
      <point x="87" y="428"/>
      <point x="97" y="412" type="qcurve"/>
      <point x="97" y="413" type="line"/>
      <point x="109" y="392"/>
    </contour>
    <contour>
      <point x="261" y="474" type="line" smooth="yes"/>
      <point x="261" y="460"/>
      <point x="260" y="454" type="qcurve"/>
      <point x="260" y="444"/>
      <point x="259" y="439" type="qcurve"/>
      <point x="259" y="340" type="line"/>
      <point x="195" y="340" type="line"/>
      <point x="195" y="345" type="line"/>
      <point x="172" y="336"/>
      <point x="141" y="336" type="qcurve" smooth="yes"/>
      <point x="24" y="336"/>
      <point x="24" y="474" type="qcurve" smooth="yes"/>
      <point x="24" y="514" type="line" smooth="yes"/>
      <point x="24" y="650"/>
      <point x="141" y="650" type="qcurve" smooth="yes"/>
      <point x="173" y="650"/>
      <point x="197" y="641" type="qcurve"/>
      <point x="197" y="696" type="line" smooth="yes"/>
      <point x="197" y="774"/>
      <point x="141" y="774" type="qcurve" smooth="yes"/>
      <point x="87" y="774"/>
      <point x="87" y="696" type="qcurve" smooth="yes"/>
      <point x="87" y="671" type="line"/>
      <point x="24" y="671" type="line"/>
      <point x="24" y="694" type="line" smooth="yes"/>
      <point x="24" y="831"/>
      <point x="141" y="831" type="qcurve" smooth="yes"/>
      <point x="261" y="831"/>
      <point x="261" y="694" type="qcurve" smooth="yes"/>
    </contour>
  </outline>
</glyph>
<glyph name="guillemotleft" format="1">
  <advance width="482"/>
  <unicode hex="00AB"/>
  <outline>
    <contour>
      <point x="447" y="125" type="line"/>
      <point x="190" y="330" type="line"/>
      <point x="190" y="367" type="line"/>
      <point x="447" y="572" type="line"/>
      <point x="447" y="494" type="line"/>
      <point x="271" y="348" type="line"/>
      <point x="447" y="201" type="line"/>
    </contour>
    <contour>
      <point x="300" y="125" type="line"/>
      <point x="41" y="330" type="line"/>
      <point x="41" y="367" type="line"/>
      <point x="300" y="572" type="line"/>
      <point x="300" y="494" type="line"/>
      <point x="124" y="348" type="line"/>
      <point x="300" y="201" type="line"/>
    </contour>
  </outline>
</glyph>
<glyph name="logicalnot" format="1">
  <advance width="497"/>
  <unicode hex="00AC"/>
  <outline>
    <contour>
      <point x="476" y="264" type="line"/>
      <point x="414" y="264" type="line"/>
      <point x="414" y="356" type="line"/>
      <point x="21" y="356" type="line"/>
      <point x="21" y="420" type="line"/>
      <point x="476" y="420" type="line"/>
    </contour>
  </outline>
</glyph>
<glyph name="registered" format="1">
  <advance width="932"/>
  <unicode hex="00AE"/>
  <outline>
    <contour>
      <point x="530" y="557" type="line" smooth="yes"/>
      <point x="530" y="601"/>
      <point x="508" y="629"/>
      <point x="464" y="629" type="qcurve" smooth="yes"/>
      <point x="420" y="629" type="line"/>
      <point x="420" y="447" type="line"/>
      <point x="464" y="447" type="line" smooth="yes"/>
      <point x="507" y="447"/>
      <point x="519" y="462" type="qcurve"/>
      <point x="518" y="462" type="line"/>
      <point x="530" y="476"/>
      <point x="530" y="520" type="qcurve" smooth="yes"/>
    </contour>
    <contour>
      <point x="594" y="245" type="line"/>
      <point x="592" y="245" type="line"/>
      <point x="592" y="131" type="line"/>
      <point x="530" y="131" type="line"/>
      <point x="530" y="314" type="line" smooth="yes"/>
      <point x="530" y="357"/>
      <point x="518" y="369" type="qcurve" smooth="yes"/>
      <point x="502" y="387"/>
      <point x="464" y="387" type="qcurve" smooth="yes"/>
      <point x="420" y="387" type="line"/>
      <point x="420" y="131" type="line"/>
      <point x="356" y="131" type="line"/>
      <point x="356" y="686" type="line"/>
      <point x="472" y="686" type="line" smooth="yes"/>
      <point x="545" y="686"/>
      <point x="572" y="649" type="qcurve"/>
      <point x="594" y="621"/>
      <point x="594" y="546" type="qcurve" smooth="yes"/>
      <point x="594" y="517" type="line" smooth="yes"/>
      <point x="594" y="448"/>
      <point x="552" y="419" type="qcurve"/>
      <point x="594" y="388"/>
      <point x="594" y="316" type="qcurve" smooth="yes"/>
    </contour>
    <contour>
      <point x="732" y="407" type="qcurve" smooth="yes"/>
      <point x="732" y="722"/>
      <point x="200" y="722"/>
      <point x="200" y="407" type="qcurve" smooth="yes"/>
      <point x="200" y="258"/>
      <point x="264" y="179" type="qcurve"/>
      <point x="333" y="91"/>
      <point x="466" y="91" type="qcurve" smooth="yes"/>
      <point x="732" y="91"/>
    </contour>
    <contour>
      <point x="797" y="407" type="qcurve" smooth="yes"/>
      <point x="797" y="229"/>
      <point x="718" y="132" type="qcurve"/>
      <point x="631" y="27"/>
      <point x="466" y="27" type="qcurve" smooth="yes"/>
      <point x="300" y="27"/>
      <point x="214" y="135" type="qcurve"/>
      <point x="214" y="134" type="line"/>
      <point x="135" y="228"/>
      <point x="135" y="407" type="qcurve" smooth="yes"/>
      <point x="135" y="588"/>
      <point x="213" y="682" type="qcurve"/>
      <point x="213" y="681" type="line"/>
      <point x="298" y="787"/>
      <point x="466" y="787" type="qcurve" smooth="yes"/>
      <point x="797" y="787"/>
    </contour>
  </outline>
</glyph>
<glyph name="macron" format="1">
  <advance width="266"/>
  <unicode hex="00AF"/>
  <outline>
    <contour>
      <point x="234" y="891" type="line"/>
      <point x="32" y="891" type="line"/>
      <point x="32" y="955" type="line"/>
      <point x="234" y="955" type="line"/>
    </contour>
  </outline>
</glyph>
<glyph name="degree" format="1">
  <advance width="369"/>
  <unicode hex="00B0"/>
  <outline>
    <contour>
      <point x="289" y="659" type="qcurve" smooth="yes"/>
      <point x="289" y="679"/>
      <point x="281" y="700" type="qcurve" smooth="yes"/>
      <point x="274" y="718"/>
      <point x="259" y="733" type="qcurve" smooth="yes"/>
      <point x="245" y="747"/>
      <point x="226" y="756" type="qcurve"/>
      <point x="205" y="764"/>
      <point x="185" y="764" type="qcurve" smooth="yes"/>
      <point x="164" y="764"/>
      <point x="143" y="756" type="qcurve" smooth="yes"/>
      <point x="125" y="749"/>
      <point x="110" y="734" type="qcurve" smooth="yes"/>
      <point x="94" y="717"/>
      <point x="88" y="700" type="qcurve" smooth="yes"/>
      <point x="80" y="679"/>
      <point x="80" y="659" type="qcurve" smooth="yes"/>
      <point x="80" y="614"/>
      <point x="140" y="554"/>
      <point x="185" y="554" type="qcurve" smooth="yes"/>
      <point x="205" y="554"/>
      <point x="226" y="562" type="qcurve" smooth="yes"/>
      <point x="244" y="569"/>
      <point x="274" y="599"/>
      <point x="281" y="617" type="qcurve" smooth="yes"/>
      <point x="289" y="638"/>
    </contour>
    <contour>
      <point x="346" y="659" type="qcurve" smooth="yes"/>
      <point x="346" y="592"/>
      <point x="298" y="544" type="qcurve"/>
      <point x="252" y="496"/>
      <point x="184" y="496" type="qcurve" smooth="yes"/>
      <point x="148" y="496"/>
      <point x="120" y="508" type="qcurve" smooth="yes"/>
      <point x="90" y="522"/>
      <point x="68" y="542" type="qcurve"/>
      <point x="46" y="564"/>
      <point x="22" y="624"/>
      <point x="22" y="659" type="qcurve" smooth="yes"/>
      <point x="22" y="694"/>
      <point x="34" y="722" type="qcurve" smooth="yes"/>
      <point x="48" y="752"/>
      <point x="68" y="774" type="qcurve"/>
      <point x="90" y="796"/>
      <point x="120" y="808" type="qcurve"/>
      <point x="149" y="821"/>
      <point x="185" y="821" type="qcurve" smooth="yes"/>
      <point x="219" y="821"/>
      <point x="248" y="808" type="qcurve" smooth="yes"/>
      <point x="278" y="794"/>
      <point x="320" y="752"/>
      <point x="334" y="722" type="qcurve"/>
      <point x="346" y="692"/>
    </contour>
  </outline>
</glyph>
<glyph name="plusminus" format="1">
  <advance width="399"/>
  <unicode hex="00B1"/>
  <outline>
    <contour>
      <point x="382" y="100" type="line"/>
      <point x="24" y="100" type="line"/>
      <point x="24" y="161" type="line"/>
      <point x="382" y="161" type="line"/>
    </contour>
    <contour>
      <point x="382" y="324" type="line"/>
      <point x="234" y="324" type="line"/>
      <point x="234" y="175" type="line"/>
      <point x="172" y="175" type="line"/>
      <point x="172" y="324" type="line"/>
      <point x="24" y="324" type="line"/>
      <point x="24" y="385" type="line"/>
      <point x="172" y="385" type="line"/>
      <point x="172" y="532" type="line"/>
      <point x="234" y="532" type="line"/>
      <point x="234" y="385" type="line"/>
      <point x="382" y="385" type="line"/>
    </contour>
  </outline>
</glyph>
<glyph name="twosuperior" format="1">
  <advance width="229"/>
  <unicode hex="00B2"/>
  <outline>
    <contour>
      <point x="224" y="317" type="line"/>
      <point x="61" y="317" type="line"/>
      <point x="61" y="550" type="line" smooth="yes"/>
      <point x="61" y="624"/>
      <point x="133" y="631" type="qcurve" smooth="yes"/>
      <point x="155" y="633"/>
      <point x="160" y="638" type="qcurve"/>
      <point x="165" y="641"/>
      <point x="165" y="661" type="qcurve" smooth="yes"/>
      <point x="165" y="751" type="line" smooth="yes"/>
      <point x="165" y="755"/>
      <point x="164" y="767"/>
      <point x="164" y="770" type="qcurve"/>
      <point x="163" y="772"/>
      <point x="162" y="776"/>
      <point x="160" y="781"/>
      <point x="160" y="782" type="qcurve" smooth="yes"/>
      <point x="155" y="787"/>
      <point x="142" y="787" type="qcurve" smooth="yes"/>
      <point x="128" y="787"/>
      <point x="123" y="781" type="qcurve" smooth="yes"/>
      <point x="124" y="782" type="line"/>
      <point x="120" y="775"/>
      <point x="120" y="751" type="qcurve" smooth="yes"/>
      <point x="120" y="696" type="line"/>
      <point x="61" y="696" type="line"/>
      <point x="61" y="750" type="line" smooth="yes"/>
      <point x="61" y="841"/>
      <point x="142" y="841" type="qcurve" smooth="yes"/>
      <point x="224" y="841"/>
      <point x="224" y="750" type="qcurve" smooth="yes"/>
      <point x="224" y="659" type="line" smooth="yes"/>
      <point x="224" y="633"/>
      <point x="220" y="620" type="qcurve"/>
      <point x="217" y="606"/>
      <point x="209" y="596" type="qcurve" smooth="yes"/>
      <point x="204" y="590"/>
      <point x="188" y="582" type="qcurve"/>
      <point x="161" y="577"/>
      <point x="153" y="576" type="qcurve" smooth="yes"/>
      <point x="129" y="573"/>
      <point x="124" y="568" type="qcurve" smooth="yes"/>
      <point x="120" y="564"/>
      <point x="120" y="550" type="qcurve" smooth="yes"/>
      <point x="120" y="371" type="line"/>
      <point x="224" y="371" type="line"/>
    </contour>
  </outline>
</glyph>
<glyph name="threesuperior" format="1">
  <advance width="229"/>
  <unicode hex="00B3"/>
  <outline>
    <contour>
      <point x="224" y="402" type="line" smooth="yes"/>
      <point x="224" y="310"/>
      <point x="142" y="310" type="qcurve" smooth="yes"/>
      <point x="61" y="310"/>
      <point x="61" y="402" type="qcurve" smooth="yes"/>
      <point x="61" y="459" type="line"/>
      <point x="120" y="459" type="line"/>
      <point x="120" y="401" type="line"/>
      <point x="120" y="382" type="line"/>
      <point x="121" y="377"/>
      <point x="123" y="371" type="qcurve"/>
      <point x="123" y="372" type="line"/>
      <point x="127" y="365"/>
      <point x="142" y="365" type="qcurve" smooth="yes"/>
      <point x="165" y="365"/>
      <point x="165" y="401" type="qcurve" smooth="yes"/>
      <point x="165" y="551" type="line" smooth="yes"/>
      <point x="165" y="572"/>
      <point x="160" y="578" type="qcurve"/>
      <point x="157" y="584"/>
      <point x="136" y="584" type="qcurve" smooth="yes"/>
      <point x="97" y="584" type="line"/>
      <point x="97" y="637" type="line"/>
      <point x="136" y="637" type="line" smooth="yes"/>
      <point x="153" y="637"/>
      <point x="160" y="641" type="qcurve" smooth="yes"/>
      <point x="160" y="642"/>
      <point x="162" y="646"/>
      <point x="163" y="651"/>
      <point x="164" y="653" type="qcurve" smooth="yes"/>
      <point x="164" y="655"/>
      <point x="165" y="668"/>
      <point x="165" y="672" type="qcurve" smooth="yes"/>
      <point x="165" y="750" type="line" smooth="yes"/>
      <point x="165" y="762"/>
      <point x="164" y="766" type="qcurve" smooth="yes"/>
      <point x="163" y="774"/>
      <point x="161" y="779" type="qcurve"/>
      <point x="154" y="786"/>
      <point x="142" y="786" type="qcurve" smooth="yes"/>
      <point x="127" y="786"/>
      <point x="123" y="779" type="qcurve"/>
      <point x="121" y="773"/>
      <point x="120" y="768" type="qcurve"/>
      <point x="120" y="750" type="line"/>
      <point x="120" y="695" type="line"/>
      <point x="61" y="695" type="line"/>
      <point x="61" y="747" type="line" smooth="yes"/>
      <point x="61" y="840"/>
      <point x="142" y="840" type="qcurve" smooth="yes"/>
      <point x="224" y="840"/>
      <point x="224" y="747" type="qcurve" smooth="yes"/>
      <point x="224" y="670" type="line" smooth="yes"/>
      <point x="224" y="630"/>
      <point x="205" y="611" type="qcurve"/>
      <point x="224" y="592"/>
      <point x="224" y="552" type="qcurve" smooth="yes"/>
    </contour>
  </outline>
</glyph>
<glyph name="acute" format="1">
  <advance width="150"/>
  <unicode hex="00B4"/>
  <outline>
    <contour>
      <point x="142" y="792" type="line"/>
      <point x="65" y="642" type="line"/>
      <point x="5" y="674" type="line"/>
      <point x="80" y="824" type="line"/>
    </contour>
  </outline>
</glyph>
<glyph name="paragraph" format="1">
  <advance width="366"/>
  <unicode hex="00B6"/>
  <outline>
    <contour>
      <point x="359" y="772" type="line"/>
      <point x="329" y="772" type="line"/>
      <point x="329" y="-60" type="line"/>
      <point x="265" y="-60" type="line"/>
      <point x="265" y="772" type="line"/>
      <point x="245" y="772" type="line"/>
      <point x="245" y="-60" type="line"/>
      <point x="181" y="-60" type="line"/>
      <point x="181" y="452" type="line"/>
      <point x="129" y="452" type="line" smooth="yes"/>
      <point x="7" y="452"/>
      <point x="7" y="577" type="qcurve" smooth="yes"/>
      <point x="7" y="694" type="line" smooth="yes"/>
      <point x="7" y="768"/>
      <point x="29" y="796" type="qcurve"/>
      <point x="56" y="834"/>
      <point x="129" y="834" type="qcurve" smooth="yes"/>
      <point x="359" y="834" type="line"/>
    </contour>
  </outline>
</glyph>
<glyph name="periodcentered" format="1">
  <advance width="426"/>
  <unicode hex="00B7"/>
  <outline>
    <contour>
      <point x="312" y="507" type="qcurve" smooth="yes"/>
      <point x="312" y="552"/>
      <point x="282" y="582" type="qcurve" smooth="yes"/>
      <point x="253" y="611"/>
      <point x="165" y="611"/>
      <point x="134" y="582" type="qcurve"/>
      <point x="104" y="552"/>
      <point x="104" y="507" type="qcurve" smooth="yes"/>
      <point x="104" y="486"/>
      <point x="112" y="465" type="qcurve" smooth="yes"/>
      <point x="119" y="447"/>
      <point x="134" y="432" type="qcurve" smooth="yes"/>
      <point x="150" y="416"/>
      <point x="168" y="409" type="qcurve" smooth="yes"/>
      <point x="189" y="401"/>
      <point x="229" y="401"/>
      <point x="250" y="409" type="qcurve" smooth="yes"/>
      <point x="270" y="417"/>
      <point x="282" y="432" type="qcurve"/>
      <point x="296" y="445"/>
      <point x="304" y="465" type="qcurve" smooth="yes"/>
      <point x="312" y="486"/>
    </contour>
    <contour>
      <point x="370" y="507" type="qcurve" smooth="yes"/>
      <point x="370" y="456"/>
      <point x="343" y="417" type="qcurve"/>
      <point x="378" y="380" type="line"/>
      <point x="336" y="338" type="line"/>
      <point x="300" y="373" type="line"/>
      <point x="263" y="345"/>
      <point x="207" y="345" type="qcurve" smooth="yes"/>
      <point x="159" y="345"/>
      <point x="119" y="370" type="qcurve"/>
      <point x="88" y="339" type="line"/>
      <point x="43" y="381" type="line"/>
      <point x="74" y="412" type="line"/>
      <point x="46" y="449"/>
      <point x="46" y="507" type="qcurve" smooth="yes"/>
      <point x="46" y="563"/>
      <point x="74" y="600" type="qcurve"/>
      <point x="43" y="630" type="line"/>
      <point x="87" y="674" type="line"/>
      <point x="119" y="642" type="line"/>
      <point x="138" y="656"/>
      <point x="161" y="663" type="qcurve" smooth="yes"/>
      <point x="182" y="670"/>
      <point x="209" y="670" type="qcurve" smooth="yes"/>
      <point x="262" y="670"/>
      <point x="302" y="640" type="qcurve"/>
      <point x="336" y="674" type="line"/>
      <point x="378" y="630" type="line"/>
      <point x="344" y="595" type="line"/>
      <point x="370" y="554"/>
    </contour>
  </outline>
</glyph>
<glyph name="cedilla" format="1">
  <advance width="249"/>
  <unicode hex="00B8"/>
  <outline>
    <contour>
      <point x="187" y="-129" type="line" smooth="yes"/>
      <point x="187" y="-195"/>
      <point x="120" y="-195" type="qcurve" smooth="yes"/>
      <point x="61" y="-195" type="line"/>
      <point x="61" y="-144" type="line"/>
      <point x="125" y="-144" type="line"/>
      <point x="131" y="-141"/>
      <point x="131" y="-129" type="qcurve" smooth="yes"/>
      <point x="131" y="-91" type="line" smooth="yes"/>
      <point x="131" y="-81"/>
      <point x="124" y="-81" type="qcurve" smooth="yes"/>
      <point x="122" y="-81"/>
      <point x="121" y="-80" type="qcurve"/>
      <point x="118" y="-80" type="line"/>
      <point x="115" y="-80" type="line"/>
      <point x="114" y="-81"/>
      <point x="112" y="-81" type="qcurve" smooth="yes"/>
      <point x="90" y="-81" type="line"/>
      <point x="90" y="35" type="line"/>
      <point x="142" y="35" type="line"/>
      <point x="142" y="-31" type="line"/>
      <point x="187" y="-32"/>
      <point x="187" y="-86" type="qcurve" smooth="yes"/>
    </contour>
  </outline>
</glyph>
<glyph name="onesuperior" format="1">
  <advance width="226"/>
  <unicode hex="00B9"/>
  <outline>
    <contour>
      <point x="186" y="315" type="line"/>
      <point x="95" y="315" type="line"/>
      <point x="95" y="372" type="line"/>
      <point x="111" y="372" type="line"/>
      <point x="111" y="762" type="line"/>
      <point x="90" y="754" type="line"/>
      <point x="90" y="814" type="line"/>
      <point x="170" y="843" type="line"/>
      <point x="170" y="372" type="line"/>
      <point x="186" y="372" type="line"/>
    </contour>
  </outline>
</glyph>
<glyph name="ordmasculine" format="1">
  <advance width="187"/>
  <unicode hex="00BA"/>
  <outline>
    <contour>
      <point x="120" y="751" type="line" smooth="yes"/>
      <point x="120" y="789"/>
      <point x="94" y="789" type="qcurve" smooth="yes"/>
      <point x="67" y="789"/>
      <point x="67" y="751" type="qcurve" smooth="yes"/>
      <point x="67" y="562" type="line" smooth="yes"/>
      <point x="67" y="525"/>
      <point x="94" y="525" type="qcurve" smooth="yes"/>
      <point x="120" y="525"/>
      <point x="120" y="562" type="qcurve" smooth="yes"/>
    </contour>
    <contour>
      <point x="181" y="564" type="line" smooth="yes"/>
      <point x="181" y="471"/>
      <point x="94" y="471" type="qcurve" smooth="yes"/>
      <point x="6" y="471"/>
      <point x="6" y="564" type="qcurve" smooth="yes"/>
      <point x="6" y="751" type="line" smooth="yes"/>
      <point x="6" y="842"/>
      <point x="94" y="842" type="qcurve" smooth="yes"/>
      <point x="181" y="842"/>
      <point x="181" y="751" type="qcurve" smooth="yes"/>
    </contour>
  </outline>
</glyph>
<glyph name="guillemotright" format="1">
  <advance width="482"/>
  <unicode hex="00BB"/>
  <outline>
    <contour>
      <point x="447" y="330" type="line"/>
      <point x="190" y="125" type="line"/>
      <point x="190" y="201" type="line"/>
      <point x="366" y="348" type="line"/>
      <point x="190" y="494" type="line"/>
      <point x="190" y="572" type="line"/>
      <point x="447" y="367" type="line"/>
    </contour>
    <contour>
      <point x="300" y="330" type="line"/>
      <point x="41" y="125" type="line"/>
      <point x="41" y="202" type="line"/>
      <point x="217" y="349" type="line"/>
      <point x="41" y="494" type="line"/>
      <point x="41" y="572" type="line"/>
      <point x="300" y="367" type="line"/>
    </contour>
  </outline>
</glyph>
<glyph name="onequarter" format="1">
  <advance width="291"/>
  <unicode hex="00BC"/>
  <outline>
    <contour>
      <point x="342" y="322" type="line"/>
      <point x="342" y="378" type="line"/>
      <point x="314" y="322" type="line"/>
    </contour>
    <contour>
      <point x="19" y="321" type="line"/>
      <point x="-71" y="321" type="line"/>
      <point x="-71" y="379" type="line"/>
      <point x="-56" y="379" type="line"/>
      <point x="-56" y="767" type="line"/>
      <point x="-78" y="758" type="line"/>
      <point x="-78" y="819" type="line"/>
      <point x="2" y="851" type="line"/>
      <point x="2" y="379" type="line"/>
      <point x="19" y="379" type="line"/>
    </contour>
    <contour>
      <point x="431" y="270" type="line"/>
      <point x="401" y="270" type="line"/>
      <point x="401" y="0" type="line"/>
      <point x="342" y="0" type="line"/>
      <point x="342" y="270" type="line"/>
      <point x="220" y="270" type="line"/>
      <point x="348" y="520" type="line"/>
      <point x="401" y="520" type="line"/>
      <point x="401" y="322" type="line"/>
      <point x="431" y="322" type="line"/>
    </contour>
    <contour>
      <point x="307" y="841" type="line"/>
      <point x="50" y="0" type="line"/>
      <point x="-14" y="0" type="line"/>
      <point x="243" y="841" type="line"/>
    </contour>
  </outline>
</glyph>
<glyph name="onehalf" format="1">
  <advance width="291"/>
  <unicode hex="00BD"/>
  <outline>
    <contour>
      <point x="326" y="467" type="line" smooth="yes"/>
      <point x="325" y="466"/>
      <point x="325" y="465" type="qcurve" smooth="yes"/>
    </contour>
    <contour>
      <point x="19" y="321" type="line"/>
      <point x="-71" y="321" type="line"/>
      <point x="-71" y="379" type="line"/>
      <point x="-56" y="379" type="line"/>
      <point x="-56" y="767" type="line"/>
      <point x="-78" y="758" type="line"/>
      <point x="-78" y="819" type="line"/>
      <point x="2" y="851" type="line"/>
      <point x="2" y="379" type="line"/>
      <point x="19" y="379" type="line"/>
    </contour>
    <contour>
      <point x="425" y="0" type="line"/>
      <point x="264" y="0" type="line"/>
      <point x="264" y="232" type="line" smooth="yes"/>
      <point x="264" y="307"/>
      <point x="334" y="314" type="qcurve" smooth="yes"/>
      <point x="356" y="317"/>
      <point x="362" y="320" type="qcurve"/>
      <point x="367" y="325"/>
      <point x="367" y="344" type="qcurve" smooth="yes"/>
      <point x="367" y="434" type="line" smooth="yes"/>
      <point x="367" y="459"/>
      <point x="363" y="463" type="qcurve"/>
      <point x="358" y="471"/>
      <point x="330" y="471"/>
      <point x="324" y="463" type="qcurve"/>
      <point x="321" y="452"/>
      <point x="321" y="434" type="qcurve" smooth="yes"/>
      <point x="321" y="379" type="line"/>
      <point x="264" y="379" type="line"/>
      <point x="264" y="432" type="line" smooth="yes"/>
      <point x="264" y="525"/>
      <point x="344" y="525" type="qcurve" smooth="yes"/>
      <point x="425" y="525"/>
      <point x="425" y="432" type="qcurve" smooth="yes"/>
      <point x="425" y="341" type="line" smooth="yes"/>
      <point x="425" y="297"/>
      <point x="407" y="279" type="qcurve"/>
      <point x="392" y="267"/>
      <point x="355" y="260" type="qcurve" smooth="yes"/>
      <point x="327" y="255"/>
      <point x="323" y="251" type="qcurve" smooth="yes"/>
      <point x="321" y="249"/>
      <point x="321" y="232" type="qcurve" smooth="yes"/>
      <point x="321" y="55" type="line"/>
      <point x="425" y="55" type="line"/>
    </contour>
    <contour>
      <point x="307" y="841" type="line"/>
      <point x="50" y="0" type="line"/>
      <point x="-14" y="0" type="line"/>
      <point x="243" y="841" type="line"/>
    </contour>
  </outline>
</glyph>
<glyph name="threequarters" format="1">
  <advance width="291"/>
  <unicode hex="00BE"/>
  <outline>
    <contour>
      <point x="-39" y="370" type="line"/>
      <point x="-39" y="371" type="line"/>
    </contour>
    <contour>
      <point x="-39" y="781" type="line"/>
      <point x="-39" y="780" type="line"/>
    </contour>
    <contour>
      <point x="342" y="322" type="line"/>
      <point x="342" y="378" type="line"/>
      <point x="314" y="322" type="line"/>
    </contour>
    <contour>
      <point x="431" y="270" type="line"/>
      <point x="401" y="270" type="line"/>
      <point x="401" y="0" type="line"/>
      <point x="342" y="0" type="line"/>
      <point x="342" y="270" type="line"/>
      <point x="220" y="270" type="line"/>
      <point x="348" y="520" type="line"/>
      <point x="401" y="520" type="line"/>
      <point x="401" y="322" type="line"/>
      <point x="431" y="322" type="line"/>
    </contour>
    <contour>
      <point x="60" y="402" type="line" smooth="yes"/>
      <point x="60" y="310"/>
      <point x="-21" y="310" type="qcurve" smooth="yes"/>
      <point x="-103" y="310"/>
      <point x="-103" y="402" type="qcurve" smooth="yes"/>
      <point x="-103" y="459" type="line"/>
      <point x="-44" y="459" type="line"/>
      <point x="-44" y="401" type="line" smooth="yes"/>
      <point x="-44" y="389"/>
      <point x="-43" y="384" type="qcurve" smooth="yes"/>
      <point x="-42" y="376"/>
      <point x="-40" y="372" type="qcurve"/>
      <point x="-34" y="365"/>
      <point x="-21" y="365" type="qcurve" smooth="yes"/>
      <point x="1" y="365"/>
      <point x="1" y="401" type="qcurve" smooth="yes"/>
      <point x="1" y="551" type="line" smooth="yes"/>
      <point x="1" y="570"/>
      <point x="-4" y="578" type="qcurve"/>
      <point x="-10" y="584"/>
      <point x="-28" y="584" type="qcurve" smooth="yes"/>
      <point x="-68" y="584" type="line"/>
      <point x="-68" y="637" type="line"/>
      <point x="-28" y="637" type="line" smooth="yes"/>
      <point x="-8" y="637"/>
      <point x="-2" y="644" type="qcurve" smooth="yes"/>
      <point x="1" y="647"/>
      <point x="1" y="672" type="qcurve" smooth="yes"/>
      <point x="1" y="750" type="line" smooth="yes"/>
      <point x="1" y="772"/>
      <point x="-2" y="779" type="qcurve" smooth="yes"/>
      <point x="-6" y="786"/>
      <point x="-21" y="786" type="qcurve" smooth="yes"/>
      <point x="-33" y="786"/>
      <point x="-40" y="779" type="qcurve"/>
      <point x="-42" y="774"/>
      <point x="-43" y="766" type="qcurve" smooth="yes"/>
      <point x="-44" y="762"/>
      <point x="-44" y="750" type="qcurve" smooth="yes"/>
      <point x="-44" y="695" type="line"/>
      <point x="-103" y="695" type="line"/>
      <point x="-103" y="747" type="line" smooth="yes"/>
      <point x="-103" y="840"/>
      <point x="-21" y="840" type="qcurve" smooth="yes"/>
      <point x="60" y="840"/>
      <point x="60" y="747" type="qcurve" smooth="yes"/>
      <point x="60" y="670" type="line" smooth="yes"/>
      <point x="60" y="630"/>
      <point x="41" y="611" type="qcurve"/>
      <point x="60" y="592"/>
      <point x="60" y="552" type="qcurve" smooth="yes"/>
    </contour>
    <contour>
      <point x="307" y="841" type="line"/>
      <point x="50" y="0" type="line"/>
      <point x="-14" y="0" type="line"/>
      <point x="243" y="841" type="line"/>
    </contour>
  </outline>
</glyph>
<glyph name="questiondown" format="1">
  <advance width="275"/>
  <unicode hex="00BF"/>
  <outline>
    <contour>
      <point x="164" y="589" type="line"/>
      <point x="101" y="589" type="line"/>
      <point x="101" y="656" type="line"/>
      <point x="164" y="656" type="line"/>
    </contour>
    <contour>
      <point x="251" y="-45" type="line" smooth="yes"/>
      <point x="251" y="-183"/>
      <point x="131" y="-183" type="qcurve" smooth="yes"/>
      <point x="12" y="-183"/>
      <point x="12" y="-45" type="qcurve" smooth="yes"/>
      <point x="12" y="72" type="line" smooth="yes"/>
      <point x="12" y="133"/>
      <point x="32" y="162" type="qcurve"/>
      <point x="31" y="162" type="line"/>
      <point x="51" y="196"/>
      <point x="100" y="206" type="qcurve"/>
      <point x="100" y="539" type="line"/>
      <point x="164" y="539" type="line"/>
      <point x="164" y="155" type="line"/>
      <point x="103" y="155"/>
      <point x="88" y="134" type="qcurve"/>
      <point x="76" y="122"/>
      <point x="76" y="75" type="qcurve" smooth="yes"/>
      <point x="76" y="-48" type="line" smooth="yes"/>
      <point x="76" y="-125"/>
      <point x="186" y="-125"/>
      <point x="186" y="-48" type="qcurve" smooth="yes"/>
      <point x="186" y="27" type="line"/>
      <point x="251" y="27" type="line"/>
    </contour>
  </outline>
</glyph>
<glyph name="Aacute" format="1">
  <advance width="280"/>
  <unicode hex="00C1"/>
  <outline>
    <contour>
      <point x="116" y="440" type="line"/>
      <point x="162" y="440" type="line"/>
      <point x="140" y="602" type="line"/>
    </contour>
    <contour>
      <point x="209" y="993" type="line"/>
      <point x="132" y="842" type="line"/>
      <point x="71" y="874" type="line"/>
      <point x="148" y="1022" type="line"/>
    </contour>
    <contour>
      <point x="287" y="0" type="line"/>
      <point x="224" y="0" type="line"/>
      <point x="171" y="379" type="line"/>
      <point x="108" y="379" type="line"/>
      <point x="53" y="0" type="line"/>
      <point x="-7" y="0" type="line"/>
      <point x="113" y="834" type="line"/>
      <point x="167" y="834" type="line"/>
    </contour>
  </outline>
</glyph>
<glyph name="Acircumflex" format="1">
  <advance width="280"/>
  <unicode hex="00C2"/>
  <outline>
    <contour>
      <point x="116" y="440" type="line"/>
      <point x="162" y="440" type="line"/>
      <point x="140" y="602" type="line"/>
    </contour>
    <contour>
      <point x="225" y="842" type="line"/>
      <point x="161" y="842" type="line"/>
      <point x="140" y="904" type="line"/>
      <point x="120" y="842" type="line"/>
      <point x="55" y="842" type="line"/>
      <point x="110" y="1027" type="line"/>
      <point x="170" y="1027" type="line"/>
    </contour>
    <contour>
      <point x="287" y="0" type="line"/>
      <point x="224" y="0" type="line"/>
      <point x="171" y="379" type="line"/>
      <point x="108" y="379" type="line"/>
      <point x="53" y="0" type="line"/>
      <point x="-7" y="0" type="line"/>
      <point x="113" y="834" type="line"/>
      <point x="167" y="834" type="line"/>
    </contour>
  </outline>
</glyph>
<glyph name="Atilde" format="1">
  <advance width="280"/>
  <unicode hex="00C3"/>
  <outline>
    <contour>
      <point x="116" y="440" type="line"/>
      <point x="162" y="440" type="line"/>
      <point x="140" y="602" type="line"/>
    </contour>
    <contour>
      <point x="274" y="915" type="line"/>
      <point x="226" y="864"/>
      <point x="189" y="864" type="qcurve" smooth="yes"/>
      <point x="184" y="864" type="line"/>
      <point x="170" y="866"/>
      <point x="156" y="874" type="qcurve" smooth="yes"/>
      <point x="142" y="881"/>
      <point x="126" y="894" type="qcurve" smooth="yes"/>
      <point x="120" y="899" type="line"/>
      <point x="121" y="899" type="line"/>
      <point x="107" y="909"/>
      <point x="102" y="912" type="qcurve" smooth="yes"/>
      <point x="92" y="918"/>
      <point x="89" y="919" type="qcurve"/>
      <point x="69" y="914"/>
      <point x="-3" y="838" type="qcurve"/>
      <point x="5" y="928" type="line"/>
      <point x="29" y="955"/>
      <point x="52" y="968" type="qcurve" smooth="yes"/>
      <point x="74" y="981"/>
      <point x="94" y="981" type="qcurve" smooth="yes"/>
      <point x="98" y="981" type="line"/>
      <point x="115" y="979"/>
      <point x="151" y="951" type="qcurve"/>
      <point x="178" y="928"/>
      <point x="188" y="926" type="qcurve"/>
      <point x="189" y="926" type="line"/>
      <point x="208" y="927"/>
      <point x="285" y="1006" type="qcurve"/>
    </contour>
    <contour>
      <point x="287" y="0" type="line"/>
      <point x="224" y="0" type="line"/>
      <point x="171" y="379" type="line"/>
      <point x="108" y="379" type="line"/>
      <point x="53" y="0" type="line"/>
      <point x="-7" y="0" type="line"/>
      <point x="113" y="834" type="line"/>
      <point x="167" y="834" type="line"/>
    </contour>
  </outline>
</glyph>
<glyph name="Adieresis" format="1">
  <advance width="280"/>
  <unicode hex="00C4"/>
  <outline>
    <contour>
      <point x="116" y="440" type="line"/>
      <point x="162" y="440" type="line"/>
      <point x="140" y="602" type="line"/>
    </contour>
    <contour>
      <point x="121" y="889" type="line"/>
      <point x="59" y="889" type="line"/>
      <point x="59" y="956" type="line"/>
      <point x="121" y="956" type="line"/>
    </contour>
    <contour>
      <point x="220" y="889" type="line"/>
      <point x="157" y="889" type="line"/>
      <point x="157" y="956" type="line"/>
      <point x="220" y="956" type="line"/>
    </contour>
    <contour>
      <point x="287" y="0" type="line"/>
      <point x="224" y="0" type="line"/>
      <point x="171" y="379" type="line"/>
      <point x="108" y="379" type="line"/>
      <point x="53" y="0" type="line"/>
      <point x="-7" y="0" type="line"/>
      <point x="113" y="834" type="line"/>
      <point x="167" y="834" type="line"/>
    </contour>
  </outline>
</glyph>
<glyph name="Aring" format="1">
  <advance width="280"/>
  <unicode hex="00C5"/>
  <outline>
    <contour>
      <point x="116" y="440" type="line"/>
      <point x="162" y="440" type="line"/>
      <point x="140" y="602" type="line"/>
    </contour>
    <contour>
      <point x="179" y="934"/>
      <point x="168" y="944" type="qcurve"/>
      <point x="159" y="955"/>
      <point x="141" y="955" type="qcurve" smooth="yes"/>
      <point x="125" y="955"/>
      <point x="114" y="944" type="qcurve" smooth="yes"/>
      <point x="104" y="934"/>
      <point x="104" y="898"/>
      <point x="114" y="888" type="qcurve" smooth="yes"/>
      <point x="125" y="877"/>
      <point x="141" y="877" type="qcurve" smooth="yes"/>
      <point x="159" y="877"/>
      <point x="168" y="888" type="qcurve"/>
      <point x="179" y="898"/>
    </contour>
    <contour>
      <point x="240" y="916" type="qcurve" smooth="yes"/>
      <point x="240" y="881"/>
      <point x="220" y="856" type="qcurve"/>
      <point x="201" y="830"/>
      <point x="169" y="821" type="qcurve"/>
      <point x="287" y="0" type="line"/>
      <point x="224" y="0" type="line"/>
      <point x="171" y="379" type="line"/>
      <point x="108" y="379" type="line"/>
      <point x="53" y="0" type="line"/>
      <point x="-7" y="0" type="line"/>
      <point x="111" y="821" type="line"/>
      <point x="80" y="830"/>
      <point x="60" y="856" type="qcurve"/>
      <point x="42" y="882"/>
      <point x="42" y="916" type="qcurve" smooth="yes"/>
      <point x="42" y="957"/>
      <point x="70" y="987" type="qcurve"/>
      <point x="101" y="1016"/>
      <point x="181" y="1016"/>
      <point x="212" y="987" type="qcurve"/>
      <point x="240" y="957"/>
    </contour>
  </outline>
</glyph>
<glyph name="AE" format="1">
  <advance width="475"/>
  <unicode hex="00C6"/>
  <outline>
    <contour>
      <point x="224" y="440" type="line"/>
      <point x="224" y="605" type="line"/>
      <point x="176" y="440" type="line"/>
    </contour>
    <contour>
      <point x="454" y="0" type="line"/>
      <point x="222" y="0" type="line"/>
      <point x="224" y="379" type="line"/>
      <point x="160" y="379" type="line"/>
      <point x="51" y="0" type="line"/>
      <point x="-9" y="0" type="line"/>
      <point x="230" y="834" type="line"/>
      <point x="454" y="834" type="line"/>
      <point x="454" y="777" type="line"/>
      <point x="284" y="777" type="line"/>
      <point x="284" y="506" type="line"/>
      <point x="454" y="506" type="line"/>
      <point x="454" y="451" type="line"/>
      <point x="284" y="451" type="line"/>
      <point x="284" y="56" type="line"/>
      <point x="454" y="56" type="line"/>
    </contour>
  </outline>
</glyph>
<glyph name="Ccedilla" format="1">
  <advance width="275"/>
  <unicode hex="00C7"/>
  <outline>
    <contour>
      <point x="261" y="129" type="line" smooth="yes"/>
      <point x="261" y="9"/>
      <point x="166" y="-6" type="qcurve"/>
      <point x="166" y="-31" type="line"/>
      <point x="211" y="-32"/>
      <point x="211" y="-86" type="qcurve" smooth="yes"/>
      <point x="211" y="-129" type="line" smooth="yes"/>
      <point x="211" y="-195"/>
      <point x="144" y="-195" type="qcurve" smooth="yes"/>
      <point x="85" y="-195" type="line"/>
      <point x="85" y="-144" type="line"/>
      <point x="149" y="-144" type="line"/>
      <point x="155" y="-141"/>
      <point x="155" y="-129" type="qcurve" smooth="yes"/>
      <point x="155" y="-91" type="line" smooth="yes"/>
      <point x="155" y="-81"/>
      <point x="147" y="-81" type="qcurve" smooth="yes"/>
      <point x="144" y="-81"/>
      <point x="144" y="-80" type="qcurve"/>
      <point x="140" y="-80" type="line"/>
      <point x="137" y="-80" type="line"/>
      <point x="136" y="-81"/>
      <point x="135" y="-81" type="qcurve" smooth="yes"/>
      <point x="112" y="-81" type="line"/>
      <point x="112" y="-6" type="line"/>
      <point x="24" y="12"/>
      <point x="24" y="129" type="qcurve" smooth="yes"/>
      <point x="24" y="705" type="line" smooth="yes"/>
      <point x="24" y="841"/>
      <point x="142" y="841" type="qcurve" smooth="yes"/>
      <point x="261" y="841"/>
      <point x="261" y="705" type="qcurve" smooth="yes"/>
      <point x="261" y="632" type="line"/>
      <point x="197" y="632" type="line"/>
      <point x="197" y="707" type="line" smooth="yes"/>
      <point x="197" y="785"/>
      <point x="87" y="785"/>
      <point x="87" y="707" type="qcurve" smooth="yes"/>
      <point x="87" y="127" type="line" smooth="yes"/>
      <point x="87" y="47"/>
      <point x="197" y="47"/>
      <point x="197" y="127" type="qcurve" smooth="yes"/>
      <point x="197" y="206" type="line"/>
      <point x="261" y="206" type="line"/>
    </contour>
  </outline>
</glyph>
<glyph name="Egrave" format="1">
  <advance width="290"/>
  <unicode hex="00C8"/>
  <outline>
    <contour>
      <point x="214" y="874" type="line"/>
      <point x="153" y="842" type="line"/>
      <point x="76" y="993" type="line"/>
      <point x="137" y="1022" type="line"/>
    </contour>
    <contour>
      <point x="274" y="0" type="line"/>
      <point x="40" y="0" type="line"/>
      <point x="40" y="834" type="line"/>
      <point x="274" y="834" type="line"/>
      <point x="274" y="777" type="line"/>
      <point x="104" y="777" type="line"/>
      <point x="104" y="506" type="line"/>
      <point x="274" y="506" type="line"/>
      <point x="274" y="451" type="line"/>
      <point x="104" y="451" type="line"/>
      <point x="104" y="56" type="line"/>
      <point x="274" y="56" type="line"/>
    </contour>
  </outline>
</glyph>
<glyph name="Ecircumflex" format="1">
  <advance width="290"/>
  <unicode hex="00CA"/>
  <outline>
    <contour>
      <point x="229" y="842" type="line"/>
      <point x="166" y="842" type="line"/>
      <point x="145" y="904" type="line"/>
      <point x="125" y="842" type="line"/>
      <point x="60" y="842" type="line"/>
      <point x="115" y="1027" type="line"/>
      <point x="175" y="1027" type="line"/>
    </contour>
    <contour>
      <point x="261" y="0" type="line"/>
      <point x="27" y="0" type="line"/>
      <point x="27" y="834" type="line"/>
      <point x="261" y="834" type="line"/>
      <point x="261" y="777" type="line"/>
      <point x="91" y="777" type="line"/>
      <point x="91" y="506" type="line"/>
      <point x="261" y="506" type="line"/>
      <point x="261" y="451" type="line"/>
      <point x="91" y="451" type="line"/>
      <point x="91" y="56" type="line"/>
      <point x="261" y="56" type="line"/>
    </contour>
  </outline>
</glyph>
<glyph name="Edieresis" format="1">
  <advance width="290"/>
  <unicode hex="00CB"/>
  <outline>
    <contour>
      <point x="126" y="889" type="line"/>
      <point x="64" y="889" type="line"/>
      <point x="64" y="956" type="line"/>
      <point x="126" y="956" type="line"/>
    </contour>
    <contour>
      <point x="225" y="889" type="line"/>
      <point x="162" y="889" type="line"/>
      <point x="162" y="956" type="line"/>
      <point x="225" y="956" type="line"/>
    </contour>
    <contour>
      <point x="261" y="0" type="line"/>
      <point x="27" y="0" type="line"/>
      <point x="27" y="834" type="line"/>
      <point x="261" y="834" type="line"/>
      <point x="261" y="777" type="line"/>
      <point x="91" y="777" type="line"/>
      <point x="91" y="506" type="line"/>
      <point x="261" y="506" type="line"/>
      <point x="261" y="451" type="line"/>
      <point x="91" y="451" type="line"/>
      <point x="91" y="56" type="line"/>
      <point x="261" y="56" type="line"/>
    </contour>
  </outline>
</glyph>
<glyph name="Iacute" format="1">
  <advance width="127"/>
  <unicode hex="00CD"/>
  <outline>
    <contour>
      <point x="132" y="993" type="line"/>
      <point x="55" y="842" type="line"/>
      <point x="-5" y="874" type="line"/>
      <point x="73" y="1022" type="line"/>
    </contour>
    <contour>
      <point x="117" y="1" type="line"/>
      <point x="95" y="1" type="line"/>
      <point x="95" y="0" type="line"/>
      <point x="32" y="0" type="line"/>
      <point x="32" y="1" type="line"/>
      <point x="11" y="1" type="line"/>
      <point x="11" y="62" type="line"/>
      <point x="32" y="62" type="line"/>
      <point x="32" y="771" type="line"/>
      <point x="11" y="771" type="line"/>
      <point x="11" y="832" type="line"/>
      <point x="32" y="832" type="line"/>
      <point x="32" y="834" type="line"/>
      <point x="95" y="834" type="line"/>
      <point x="95" y="832" type="line"/>
      <point x="117" y="832" type="line"/>
      <point x="117" y="771" type="line"/>
      <point x="95" y="771" type="line"/>
      <point x="95" y="62" type="line"/>
      <point x="117" y="62" type="line"/>
    </contour>
  </outline>
</glyph>
<glyph name="Icircumflex" format="1">
  <advance width="127"/>
  <unicode hex="00CE"/>
  <outline>
    <contour>
      <point x="149" y="842" type="line"/>
      <point x="85" y="842" type="line"/>
      <point x="64" y="905" type="line"/>
      <point x="43" y="842" type="line"/>
      <point x="-21" y="842" type="line"/>
      <point x="33" y="1027" type="line"/>
      <point x="93" y="1027" type="line"/>
    </contour>
    <contour>
      <point x="117" y="1" type="line"/>
      <point x="95" y="1" type="line"/>
      <point x="95" y="0" type="line"/>
      <point x="32" y="0" type="line"/>
      <point x="32" y="1" type="line"/>
      <point x="11" y="1" type="line"/>
      <point x="11" y="62" type="line"/>
      <point x="32" y="62" type="line"/>
      <point x="32" y="771" type="line"/>
      <point x="11" y="771" type="line"/>
      <point x="11" y="832" type="line"/>
      <point x="32" y="832" type="line"/>
      <point x="32" y="834" type="line"/>
      <point x="95" y="834" type="line"/>
      <point x="95" y="832" type="line"/>
      <point x="117" y="832" type="line"/>
      <point x="117" y="771" type="line"/>
      <point x="95" y="771" type="line"/>
      <point x="95" y="62" type="line"/>
      <point x="117" y="62" type="line"/>
    </contour>
  </outline>
</glyph>
<glyph name="Idieresis" format="1">
  <advance width="127"/>
  <unicode hex="00CF"/>
  <outline>
    <contour>
      <point x="45" y="889" type="line"/>
      <point x="-16" y="889" type="line"/>
      <point x="-16" y="956" type="line"/>
      <point x="45" y="956" type="line"/>
    </contour>
    <contour>
      <point x="144" y="889" type="line"/>
      <point x="81" y="889" type="line"/>
      <point x="81" y="956" type="line"/>
      <point x="144" y="956" type="line"/>
    </contour>
    <contour>
      <point x="117" y="1" type="line"/>
      <point x="95" y="1" type="line"/>
      <point x="95" y="0" type="line"/>
      <point x="32" y="0" type="line"/>
      <point x="32" y="1" type="line"/>
      <point x="11" y="1" type="line"/>
      <point x="11" y="62" type="line"/>
      <point x="32" y="62" type="line"/>
      <point x="32" y="771" type="line"/>
      <point x="11" y="771" type="line"/>
      <point x="11" y="832" type="line"/>
      <point x="32" y="832" type="line"/>
      <point x="32" y="834" type="line"/>
      <point x="95" y="834" type="line"/>
      <point x="95" y="832" type="line"/>
      <point x="117" y="832" type="line"/>
      <point x="117" y="771" type="line"/>
      <point x="95" y="771" type="line"/>
      <point x="95" y="62" type="line"/>
      <point x="117" y="62" type="line"/>
    </contour>
  </outline>
</glyph>
<glyph name="Ntilde" format="1">
  <advance width="287"/>
  <unicode hex="00D1"/>
  <outline>
    <contour>
      <point x="279" y="915" type="line"/>
      <point x="231" y="864"/>
      <point x="191" y="864" type="qcurve" smooth="yes"/>
      <point x="186" y="864" type="line"/>
      <point x="178" y="865"/>
      <point x="160" y="874" type="qcurve" smooth="yes"/>
      <point x="154" y="878"/>
      <point x="126" y="897" type="qcurve"/>
      <point x="123" y="900" type="line"/>
      <point x="125" y="899" type="line"/>
      <point x="111" y="909"/>
      <point x="106" y="912" type="qcurve" smooth="yes"/>
      <point x="96" y="918"/>
      <point x="93" y="919" type="qcurve"/>
      <point x="73" y="915"/>
      <point x="-1" y="838" type="qcurve"/>
      <point x="9" y="928" type="line"/>
      <point x="35" y="957"/>
      <point x="56" y="968" type="qcurve"/>
      <point x="76" y="981"/>
      <point x="97" y="981" type="qcurve" smooth="yes"/>
      <point x="100" y="981" type="line"/>
      <point x="119" y="980"/>
      <point x="155" y="951" type="qcurve" smooth="yes"/>
      <point x="182" y="928"/>
      <point x="192" y="926" type="qcurve"/>
      <point x="193" y="926" type="line"/>
      <point x="205" y="928"/>
      <point x="224" y="946" type="qcurve"/>
      <point x="250" y="967"/>
      <point x="285" y="1005" type="qcurve"/>
    </contour>
    <contour>
      <point x="275" y="0" type="line"/>
      <point x="207" y="0" type="line"/>
      <point x="207" y="29" type="line"/>
      <point x="90" y="545" type="line"/>
      <point x="90" y="0" type="line"/>
      <point x="26" y="0" type="line"/>
      <point x="26" y="834" type="line"/>
      <point x="90" y="834" type="line"/>
      <point x="90" y="827" type="line"/>
      <point x="207" y="314" type="line"/>
      <point x="207" y="834" type="line"/>
      <point x="270" y="834" type="line"/>
    </contour>
  </outline>
</glyph>
<glyph name="Ocircumflex" format="1">
  <advance width="285"/>
  <unicode hex="00D4"/>
  <outline>
    <contour>
      <point x="227" y="842" type="line"/>
      <point x="164" y="842" type="line"/>
      <point x="142" y="905" type="line"/>
      <point x="122" y="842" type="line"/>
      <point x="59" y="842" type="line"/>
      <point x="113" y="1027" type="line"/>
      <point x="172" y="1027" type="line"/>
    </contour>
    <contour>
      <point x="197" y="707" type="line" smooth="yes"/>
      <point x="197" y="785"/>
      <point x="87" y="785"/>
      <point x="87" y="707" type="qcurve" smooth="yes"/>
      <point x="87" y="127" type="line" smooth="yes"/>
      <point x="87" y="47"/>
      <point x="197" y="47"/>
      <point x="197" y="127" type="qcurve" smooth="yes"/>
    </contour>
    <contour>
      <point x="261" y="129" type="line" smooth="yes"/>
      <point x="261" y="-8"/>
      <point x="142" y="-8" type="qcurve" smooth="yes"/>
      <point x="24" y="-8"/>
      <point x="24" y="129" type="qcurve" smooth="yes"/>
      <point x="24" y="705" type="line" smooth="yes"/>
      <point x="24" y="841"/>
      <point x="142" y="841" type="qcurve" smooth="yes"/>
      <point x="261" y="841"/>
      <point x="261" y="705" type="qcurve" smooth="yes"/>
    </contour>
  </outline>
</glyph>
<glyph name="Otilde" format="1">
  <advance width="285"/>
  <unicode hex="00D5"/>
  <outline>
    <contour>
      <point x="277" y="915" type="line"/>
      <point x="230" y="864"/>
      <point x="191" y="864" type="qcurve" smooth="yes"/>
      <point x="186" y="864" type="line"/>
      <point x="174" y="865"/>
      <point x="160" y="874" type="qcurve"/>
      <point x="146" y="881"/>
      <point x="130" y="894" type="qcurve"/>
      <point x="124" y="898" type="line"/>
      <point x="112" y="908"/>
      <point x="106" y="910" type="qcurve" smooth="yes"/>
      <point x="90" y="918" type="line"/>
      <point x="70" y="911"/>
      <point x="-3" y="838" type="qcurve"/>
      <point x="8" y="928" type="line"/>
      <point x="38" y="960"/>
      <point x="54" y="969" type="qcurve"/>
      <point x="68" y="975"/>
      <point x="74" y="978" type="qcurve"/>
      <point x="85" y="981"/>
      <point x="94" y="981" type="qcurve" smooth="yes"/>
      <point x="98" y="981" type="line"/>
      <point x="118" y="979"/>
      <point x="154" y="951" type="qcurve"/>
      <point x="181" y="928"/>
      <point x="191" y="926" type="qcurve"/>
      <point x="208" y="926"/>
      <point x="285" y="1006" type="qcurve"/>
    </contour>
    <contour>
      <point x="197" y="707" type="line" smooth="yes"/>
      <point x="197" y="785"/>
      <point x="87" y="785"/>
      <point x="87" y="707" type="qcurve" smooth="yes"/>
      <point x="87" y="127" type="line" smooth="yes"/>
      <point x="87" y="47"/>
      <point x="197" y="47"/>
      <point x="197" y="127" type="qcurve" smooth="yes"/>
    </contour>
    <contour>
      <point x="261" y="129" type="line" smooth="yes"/>
      <point x="261" y="-8"/>
      <point x="142" y="-8" type="qcurve" smooth="yes"/>
      <point x="24" y="-8"/>
      <point x="24" y="129" type="qcurve" smooth="yes"/>
      <point x="24" y="705" type="line" smooth="yes"/>
      <point x="24" y="841"/>
      <point x="142" y="841" type="qcurve" smooth="yes"/>
      <point x="261" y="841"/>
      <point x="261" y="705" type="qcurve" smooth="yes"/>
    </contour>
  </outline>
</glyph>
<glyph name="multiply" format="1">
  <advance width="309"/>
  <unicode hex="00D7"/>
  <outline>
    <contour>
      <point x="202" y="354" type="line"/>
      <point x="306" y="251" type="line"/>
      <point x="264" y="205" type="line"/>
      <point x="159" y="310" type="line"/>
      <point x="54" y="205" type="line"/>
      <point x="9" y="250" type="line"/>
      <point x="114" y="354" type="line"/>
      <point x="9" y="459" type="line"/>
      <point x="55" y="502" type="line"/>
      <point x="159" y="398" type="line"/>
      <point x="264" y="503" type="line"/>
      <point x="306" y="458" type="line"/>
    </contour>
  </outline>
</glyph>
<glyph name="Oslash" format="1">
  <advance width="285"/>
  <unicode hex="00D8"/>
  <outline>
    <contour>
      <point x="87" y="336" type="line"/>
      <point x="194" y="740" type="line"/>
      <point x="186" y="785"/>
      <point x="142" y="785" type="qcurve" smooth="yes"/>
      <point x="87" y="785"/>
      <point x="87" y="707" type="qcurve" smooth="yes"/>
    </contour>
    <contour>
      <point x="197" y="507" type="line"/>
      <point x="89" y="98" type="line"/>
      <point x="95" y="47"/>
      <point x="142" y="47" type="qcurve" smooth="yes"/>
      <point x="197" y="47"/>
      <point x="197" y="127" type="qcurve" smooth="yes"/>
    </contour>
    <contour>
      <point x="286" y="841" type="line"/>
      <point x="259" y="740" type="line"/>
      <point x="260" y="735"/>
      <point x="260" y="724" type="qcurve"/>
      <point x="261" y="719"/>
      <point x="261" y="705" type="qcurve" smooth="yes"/>
      <point x="261" y="129" type="line" smooth="yes"/>
      <point x="261" y="-8"/>
      <point x="142" y="-8" type="qcurve" smooth="yes"/>
      <point x="95" y="-8"/>
      <point x="66" y="15" type="qcurve"/>
      <point x="63" y="0" type="line"/>
      <point x="-2" y="0" type="line"/>
      <point x="26" y="101" type="line" smooth="yes"/>
      <point x="26" y="103"/>
      <point x="25" y="112"/>
      <point x="24" y="114" type="qcurve"/>
      <point x="24" y="129" type="line"/>
      <point x="24" y="705" type="line" smooth="yes"/>
      <point x="24" y="841"/>
      <point x="142" y="841" type="qcurve" smooth="yes"/>
      <point x="186" y="841"/>
      <point x="215" y="821" type="qcurve"/>
      <point x="220" y="841" type="line"/>
    </contour>
  </outline>
</glyph>
<glyph name="Ucircumflex" format="1">
  <advance width="285"/>
  <unicode hex="00DB"/>
  <outline>
    <contour>
      <point x="227" y="842" type="line"/>
      <point x="164" y="842" type="line"/>
      <point x="142" y="905" type="line"/>
      <point x="122" y="842" type="line"/>
      <point x="59" y="842" type="line"/>
      <point x="113" y="1027" type="line"/>
      <point x="172" y="1027" type="line"/>
    </contour>
    <contour>
      <point x="261" y="129" type="line" smooth="yes"/>
      <point x="261" y="-8"/>
      <point x="142" y="-8" type="qcurve" smooth="yes"/>
      <point x="24" y="-8"/>
      <point x="24" y="129" type="qcurve" smooth="yes"/>
      <point x="24" y="834" type="line"/>
      <point x="87" y="834" type="line"/>
      <point x="87" y="127" type="line" smooth="yes"/>
      <point x="87" y="47"/>
      <point x="197" y="47"/>
      <point x="197" y="127" type="qcurve" smooth="yes"/>
      <point x="197" y="834" type="line"/>
      <point x="261" y="834" type="line"/>
    </contour>
  </outline>
</glyph>
<glyph name="Yacute" format="1">
  <advance width="280"/>
  <unicode hex="00DD"/>
  <outline>
    <contour>
      <point x="209" y="993" type="line"/>
      <point x="132" y="842" type="line"/>
      <point x="71" y="874" type="line"/>
      <point x="148" y="1022" type="line"/>
    </contour>
    <contour>
      <point x="290" y="834" type="line"/>
      <point x="171" y="426" type="line"/>
      <point x="171" y="0" type="line"/>
      <point x="107" y="0" type="line"/>
      <point x="107" y="428" type="line"/>
      <point x="-9" y="834" type="line"/>
      <point x="58" y="834" type="line"/>
      <point x="140" y="530" type="line"/>
      <point x="225" y="834" type="line"/>
    </contour>
  </outline>
</glyph>
<glyph name="Thorn" format="1">
  <advance width="284"/>
  <unicode hex="00DE"/>
  <outline>
    <contour>
      <point x="206" y="497" type="line" smooth="yes"/>
      <point x="206" y="541"/>
      <point x="184" y="569"/>
      <point x="140" y="569" type="qcurve" smooth="yes"/>
      <point x="90" y="569" type="line"/>
      <point x="90" y="300" type="line"/>
      <point x="140" y="300" type="line" smooth="yes"/>
      <point x="183" y="300"/>
      <point x="195" y="315" type="qcurve" smooth="yes"/>
      <point x="206" y="329"/>
      <point x="206" y="372" type="qcurve" smooth="yes"/>
    </contour>
    <contour>
      <point x="269" y="370" type="line" smooth="yes"/>
      <point x="269" y="245"/>
      <point x="147" y="245" type="qcurve" smooth="yes"/>
      <point x="90" y="245" type="line"/>
      <point x="90" y="0" type="line"/>
      <point x="26" y="0" type="line"/>
      <point x="26" y="834" type="line"/>
      <point x="90" y="834" type="line"/>
      <point x="90" y="626" type="line"/>
      <point x="147" y="626" type="line" smooth="yes"/>
      <point x="221" y="626"/>
      <point x="247" y="588" type="qcurve"/>
      <point x="247" y="589" type="line"/>
      <point x="269" y="561"/>
      <point x="269" y="485" type="qcurve" smooth="yes"/>
    </contour>
  </outline>
</glyph>
<glyph name="germandbls" format="1">
  <advance width="326"/>
  <unicode hex="00DF"/>
  <outline>
    <contour>
      <point x="311" y="64" type="line" smooth="yes"/>
      <point x="311" y="-74"/>
      <point x="176" y="-74" type="qcurve"/>
      <point x="176" y="-19" type="line"/>
      <point x="246" y="-13"/>
      <point x="246" y="61" type="qcurve" smooth="yes"/>
      <point x="246" y="376" type="line" smooth="yes"/>
      <point x="246" y="418"/>
      <point x="235" y="435" type="qcurve"/>
      <point x="236" y="434" type="line"/>
      <point x="224" y="449"/>
      <point x="181" y="449" type="qcurve" smooth="yes"/>
      <point x="121" y="449" type="line"/>
      <point x="121" y="505" type="line"/>
      <point x="149" y="505" type="line" smooth="yes"/>
      <point x="173" y="505"/>
      <point x="187" y="518" type="qcurve"/>
      <point x="197" y="531"/>
      <point x="197" y="577" type="qcurve" smooth="yes"/>
      <point x="197" y="707" type="line" smooth="yes"/>
      <point x="197" y="785"/>
      <point x="87" y="785"/>
      <point x="87" y="707" type="qcurve" smooth="yes"/>
      <point x="87" y="4" type="line"/>
      <point x="24" y="4" type="line"/>
      <point x="24" y="705" type="line" smooth="yes"/>
      <point x="24" y="841"/>
      <point x="142" y="841" type="qcurve" smooth="yes"/>
      <point x="261" y="841"/>
      <point x="261" y="705" type="qcurve" smooth="yes"/>
      <point x="261" y="574" type="line" smooth="yes"/>
      <point x="261" y="529"/>
      <point x="247" y="499" type="qcurve"/>
      <point x="290" y="486"/>
      <point x="301" y="445" type="qcurve"/>
      <point x="300" y="445" type="line"/>
      <point x="307" y="423"/>
      <point x="308" y="409" type="qcurve"/>
      <point x="311" y="393"/>
      <point x="311" y="380" type="qcurve" smooth="yes"/>
    </contour>
  </outline>
</glyph>
<glyph name="acircumflex" format="1">
  <advance width="285"/>
  <unicode hex="00E2"/>
  <outline>
    <contour>
      <point x="227" y="640" type="line"/>
      <point x="164" y="642" type="line"/>
      <point x="142" y="705" type="line"/>
      <point x="122" y="641" type="line"/>
      <point x="59" y="641" type="line"/>
      <point x="113" y="826" type="line"/>
      <point x="172" y="826" type="line"/>
    </contour>
    <contour>
      <point x="196" y="279" type="line"/>
      <point x="190" y="331"/>
      <point x="142" y="331" type="qcurve" smooth="yes"/>
      <point x="87" y="331"/>
      <point x="87" y="254" type="qcurve" smooth="yes"/>
      <point x="87" y="127" type="line" smooth="yes"/>
      <point x="87" y="83"/>
      <point x="97" y="67" type="qcurve"/>
      <point x="97" y="68" type="line"/>
      <point x="109" y="47"/>
      <point x="142" y="47" type="qcurve" smooth="yes"/>
      <point x="190" y="47"/>
      <point x="196" y="102" type="qcurve"/>
    </contour>
    <contour>
      <point x="261" y="129" type="line" smooth="yes"/>
      <point x="261" y="118"/>
      <point x="260" y="112" type="qcurve"/>
      <point x="260" y="102"/>
      <point x="259" y="97" type="qcurve"/>
      <point x="259" y="-4" type="line"/>
      <point x="196" y="-4" type="line"/>
      <point x="196" y="1" type="line"/>
      <point x="172" y="-8"/>
      <point x="142" y="-8" type="qcurve" smooth="yes"/>
      <point x="24" y="-8"/>
      <point x="24" y="129" type="qcurve" smooth="yes"/>
      <point x="24" y="251" type="line" smooth="yes"/>
      <point x="24" y="387"/>
      <point x="142" y="387" type="qcurve" smooth="yes"/>
      <point x="173" y="387"/>
      <point x="197" y="378" type="qcurve"/>
      <point x="197" y="466" type="line" smooth="yes"/>
      <point x="197" y="545"/>
      <point x="87" y="545"/>
      <point x="87" y="466" type="qcurve" smooth="yes"/>
      <point x="87" y="420" type="line"/>
      <point x="24" y="420" type="line"/>
      <point x="24" y="464" type="line" smooth="yes"/>
      <point x="24" y="601"/>
      <point x="142" y="601" type="qcurve" smooth="yes"/>
      <point x="261" y="601"/>
      <point x="261" y="464" type="qcurve" smooth="yes"/>
    </contour>
  </outline>
</glyph>
<glyph name="atilde" format="1">
  <advance width="285"/>
  <unicode hex="00E3"/>
  <outline>
    <contour>
      <point x="277" y="723" type="line"/>
      <point x="232" y="671"/>
      <point x="191" y="671" type="qcurve" smooth="yes"/>
      <point x="186" y="671" type="line"/>
      <point x="164" y="672"/>
      <point x="130" y="700" type="qcurve"/>
      <point x="124" y="704" type="line"/>
      <point x="104" y="723"/>
      <point x="94" y="726" type="qcurve"/>
      <point x="75" y="726"/>
      <point x="-3" y="645" type="qcurve"/>
      <point x="7" y="736" type="line"/>
      <point x="54" y="787"/>
      <point x="91" y="787" type="qcurve" smooth="yes"/>
      <point x="98" y="787" type="line"/>
      <point x="118" y="785"/>
      <point x="154" y="757" type="qcurve" smooth="yes"/>
      <point x="180" y="736"/>
      <point x="191" y="734" type="qcurve"/>
      <point x="192" y="734" type="line" smooth="yes"/>
      <point x="210" y="734"/>
      <point x="285" y="813" type="qcurve"/>
    </contour>
    <contour>
      <point x="142" y="47" type="qcurve" smooth="yes"/>
      <point x="190" y="47"/>
      <point x="196" y="102" type="qcurve"/>
      <point x="196" y="279" type="line"/>
      <point x="190" y="331"/>
      <point x="142" y="331" type="qcurve" smooth="yes"/>
      <point x="87" y="331"/>
      <point x="87" y="254" type="qcurve" smooth="yes"/>
      <point x="87" y="127" type="line" smooth="yes"/>
      <point x="87" y="83"/>
      <point x="97" y="67" type="qcurve"/>
      <point x="97" y="68" type="line"/>
      <point x="109" y="47"/>
    </contour>
    <contour>
      <point x="261" y="129" type="line" smooth="yes"/>
      <point x="261" y="118"/>
      <point x="260" y="112" type="qcurve"/>
      <point x="260" y="102"/>
      <point x="259" y="97" type="qcurve"/>
      <point x="259" y="-4" type="line"/>
      <point x="196" y="-4" type="line"/>
      <point x="196" y="1" type="line"/>
      <point x="172" y="-8"/>
      <point x="142" y="-8" type="qcurve" smooth="yes"/>
      <point x="24" y="-8"/>
      <point x="24" y="129" type="qcurve" smooth="yes"/>
      <point x="24" y="251" type="line" smooth="yes"/>
      <point x="24" y="387"/>
      <point x="142" y="387" type="qcurve" smooth="yes"/>
      <point x="173" y="387"/>
      <point x="197" y="378" type="qcurve"/>
      <point x="197" y="466" type="line" smooth="yes"/>
      <point x="197" y="545"/>
      <point x="87" y="545"/>
      <point x="87" y="466" type="qcurve" smooth="yes"/>
      <point x="87" y="420" type="line"/>
      <point x="24" y="420" type="line"/>
      <point x="24" y="464" type="line" smooth="yes"/>
      <point x="24" y="601"/>
      <point x="142" y="601" type="qcurve" smooth="yes"/>
      <point x="261" y="601"/>
      <point x="261" y="464" type="qcurve" smooth="yes"/>
    </contour>
  </outline>
</glyph>
<glyph name="aring" format="1">
  <advance width="285"/>
  <unicode hex="00E5"/>
  <outline>
    <contour>
      <point x="177" y="729"/>
      <point x="167" y="739" type="qcurve" smooth="yes"/>
      <point x="156" y="750"/>
      <point x="140" y="750" type="qcurve" smooth="yes"/>
      <point x="123" y="750"/>
      <point x="112" y="739" type="qcurve"/>
      <point x="102" y="727"/>
      <point x="102" y="695"/>
      <point x="112" y="683" type="qcurve"/>
      <point x="125" y="672"/>
      <point x="140" y="672" type="qcurve" smooth="yes"/>
      <point x="156" y="672"/>
      <point x="167" y="683" type="qcurve" smooth="yes"/>
      <point x="177" y="693"/>
    </contour>
    <contour>
      <point x="196" y="279" type="line"/>
      <point x="190" y="331"/>
      <point x="142" y="331" type="qcurve" smooth="yes"/>
      <point x="87" y="331"/>
      <point x="87" y="254" type="qcurve" smooth="yes"/>
      <point x="87" y="127" type="line" smooth="yes"/>
      <point x="87" y="83"/>
      <point x="97" y="67" type="qcurve"/>
      <point x="97" y="68" type="line"/>
      <point x="109" y="47"/>
      <point x="142" y="47" type="qcurve" smooth="yes"/>
      <point x="190" y="47"/>
      <point x="196" y="102" type="qcurve"/>
    </contour>
    <contour>
      <point x="239" y="711" type="qcurve" smooth="yes"/>
      <point x="239" y="671"/>
      <point x="210" y="640" type="qcurve"/>
      <point x="180" y="612"/>
      <point x="98" y="612"/>
      <point x="69" y="641" type="qcurve" smooth="yes"/>
      <point x="41" y="669"/>
      <point x="41" y="753"/>
      <point x="70" y="782" type="qcurve" smooth="yes"/>
      <point x="98" y="810"/>
      <point x="182" y="810"/>
      <point x="210" y="782" type="qcurve"/>
      <point x="238" y="751"/>
    </contour>
    <contour>
      <point x="261" y="129" type="line" smooth="yes"/>
      <point x="261" y="118"/>
      <point x="260" y="112" type="qcurve"/>
      <point x="260" y="102"/>
      <point x="259" y="97" type="qcurve"/>
      <point x="259" y="-4" type="line"/>
      <point x="196" y="-4" type="line"/>
      <point x="196" y="1" type="line"/>
      <point x="172" y="-8"/>
      <point x="142" y="-8" type="qcurve" smooth="yes"/>
      <point x="24" y="-8"/>
      <point x="24" y="129" type="qcurve" smooth="yes"/>
      <point x="24" y="251" type="line" smooth="yes"/>
      <point x="24" y="387"/>
      <point x="142" y="387" type="qcurve" smooth="yes"/>
      <point x="173" y="387"/>
      <point x="197" y="378" type="qcurve"/>
      <point x="197" y="466" type="line" smooth="yes"/>
      <point x="197" y="545"/>
      <point x="87" y="545"/>
      <point x="87" y="466" type="qcurve" smooth="yes"/>
      <point x="87" y="420" type="line"/>
      <point x="24" y="420" type="line"/>
      <point x="24" y="464" type="line" smooth="yes"/>
      <point x="24" y="601"/>
      <point x="142" y="601" type="qcurve" smooth="yes"/>
      <point x="261" y="601"/>
      <point x="261" y="464" type="qcurve" smooth="yes"/>
    </contour>
  </outline>
</glyph>
<glyph name="ae" format="1">
  <advance width="462"/>
  <unicode hex="00E6"/>
  <outline>
    <contour>
      <point x="262" y="362" type="line"/>
      <point x="372" y="362" type="line"/>
      <point x="372" y="466" type="line" smooth="yes"/>
      <point x="372" y="545"/>
      <point x="262" y="545"/>
      <point x="262" y="466" type="qcurve" smooth="yes"/>
    </contour>
    <contour>
      <point x="196" y="279" type="line"/>
      <point x="190" y="331"/>
      <point x="142" y="331" type="qcurve" smooth="yes"/>
      <point x="87" y="331"/>
      <point x="87" y="254" type="qcurve" smooth="yes"/>
      <point x="87" y="127" type="line" smooth="yes"/>
      <point x="87" y="83"/>
      <point x="97" y="67" type="qcurve"/>
      <point x="97" y="68" type="line"/>
      <point x="109" y="47"/>
      <point x="142" y="47" type="qcurve" smooth="yes"/>
      <point x="190" y="47"/>
      <point x="196" y="102" type="qcurve"/>
    </contour>
    <contour>
      <point x="436" y="129" type="line" smooth="yes"/>
      <point x="436" y="-8"/>
      <point x="317" y="-8" type="qcurve" smooth="yes"/>
      <point x="283" y="-8"/>
      <point x="259" y="4" type="qcurve"/>
      <point x="259" y="-4" type="line"/>
      <point x="196" y="-4" type="line"/>
      <point x="196" y="1" type="line"/>
      <point x="172" y="-8"/>
      <point x="142" y="-8" type="qcurve" smooth="yes"/>
      <point x="24" y="-8"/>
      <point x="24" y="129" type="qcurve" smooth="yes"/>
      <point x="24" y="251" type="line" smooth="yes"/>
      <point x="24" y="387"/>
      <point x="142" y="387" type="qcurve" smooth="yes"/>
      <point x="173" y="387"/>
      <point x="197" y="378" type="qcurve"/>
      <point x="197" y="466" type="line" smooth="yes"/>
      <point x="197" y="545"/>
      <point x="87" y="545"/>
      <point x="87" y="466" type="qcurve" smooth="yes"/>
      <point x="87" y="420" type="line"/>
      <point x="24" y="420" type="line"/>
      <point x="24" y="464" type="line" smooth="yes"/>
      <point x="24" y="601"/>
      <point x="142" y="601" type="qcurve" smooth="yes"/>
      <point x="199" y="601"/>
      <point x="230" y="567" type="qcurve"/>
      <point x="258" y="601"/>
      <point x="317" y="601" type="qcurve" smooth="yes"/>
      <point x="436" y="601"/>
      <point x="436" y="464" type="qcurve" smooth="yes"/>
      <point x="436" y="301" type="line"/>
      <point x="262" y="301" type="line"/>
      <point x="262" y="127" type="line" smooth="yes"/>
      <point x="262" y="47"/>
      <point x="372" y="47"/>
      <point x="372" y="127" type="qcurve" smooth="yes"/>
      <point x="372" y="161" type="line"/>
      <point x="436" y="161" type="line"/>
    </contour>
  </outline>
</glyph>
<glyph name="ccedilla" format="1">
  <advance width="275"/>
  <unicode hex="00E7"/>
  <outline>
    <contour>
      <point x="261" y="129" type="line" smooth="yes"/>
      <point x="261" y="12"/>
      <point x="171" y="-6" type="qcurve"/>
      <point x="171" y="-31" type="line"/>
      <point x="216" y="-32"/>
      <point x="216" y="-86" type="qcurve" smooth="yes"/>
      <point x="216" y="-129" type="line" smooth="yes"/>
      <point x="216" y="-195"/>
      <point x="149" y="-195" type="qcurve" smooth="yes"/>
      <point x="90" y="-195" type="line"/>
      <point x="90" y="-144" type="line"/>
      <point x="154" y="-144" type="line"/>
      <point x="160" y="-141"/>
      <point x="160" y="-129" type="qcurve" smooth="yes"/>
      <point x="160" y="-91" type="line" smooth="yes"/>
      <point x="160" y="-81"/>
      <point x="152" y="-81" type="qcurve" smooth="yes"/>
      <point x="150" y="-81"/>
      <point x="150" y="-80" type="qcurve"/>
      <point x="147" y="-80" type="line"/>
      <point x="144" y="-80" type="line"/>
      <point x="143" y="-81"/>
      <point x="141" y="-81" type="qcurve" smooth="yes"/>
      <point x="119" y="-81" type="line"/>
      <point x="119" y="-6" type="line"/>
      <point x="24" y="9"/>
      <point x="24" y="129" type="qcurve" smooth="yes"/>
      <point x="24" y="464" type="line" smooth="yes"/>
      <point x="24" y="601"/>
      <point x="142" y="601" type="qcurve" smooth="yes"/>
      <point x="261" y="601"/>
      <point x="261" y="464" type="qcurve" smooth="yes"/>
      <point x="261" y="392" type="line"/>
      <point x="197" y="392" type="line"/>
      <point x="197" y="466" type="line" smooth="yes"/>
      <point x="197" y="545"/>
      <point x="87" y="545"/>
      <point x="87" y="466" type="qcurve" smooth="yes"/>
      <point x="87" y="127" type="line" smooth="yes"/>
      <point x="87" y="47"/>
      <point x="197" y="47"/>
      <point x="197" y="127" type="qcurve" smooth="yes"/>
      <point x="197" y="206" type="line"/>
      <point x="261" y="206" type="line"/>
    </contour>
  </outline>
</glyph>
<glyph name="edieresis" format="1">
  <advance width="285"/>
  <unicode hex="00EB"/>
  <outline>
    <contour>
      <point x="222" y="676" type="line"/>
      <point x="160" y="676" type="line"/>
      <point x="160" y="744" type="line"/>
      <point x="222" y="744" type="line"/>
    </contour>
    <contour>
      <point x="124" y="676" type="line"/>
      <point x="62" y="676" type="line"/>
      <point x="62" y="744" type="line"/>
      <point x="124" y="744" type="line"/>
    </contour>
    <contour>
      <point x="87" y="362" type="line"/>
      <point x="197" y="362" type="line"/>
      <point x="197" y="466" type="line" smooth="yes"/>
      <point x="197" y="545"/>
      <point x="87" y="545"/>
      <point x="87" y="466" type="qcurve" smooth="yes"/>
    </contour>
    <contour>
      <point x="261" y="129" type="line" smooth="yes"/>
      <point x="261" y="-8"/>
      <point x="142" y="-8" type="qcurve" smooth="yes"/>
      <point x="24" y="-8"/>
      <point x="24" y="129" type="qcurve" smooth="yes"/>
      <point x="24" y="464" type="line" smooth="yes"/>
      <point x="24" y="601"/>
      <point x="142" y="601" type="qcurve" smooth="yes"/>
      <point x="261" y="601"/>
      <point x="261" y="464" type="qcurve" smooth="yes"/>
      <point x="261" y="301" type="line"/>
      <point x="87" y="301" type="line"/>
      <point x="87" y="127" type="line" smooth="yes"/>
      <point x="87" y="47"/>
      <point x="197" y="47"/>
      <point x="197" y="127" type="qcurve" smooth="yes"/>
      <point x="197" y="161" type="line"/>
      <point x="261" y="161" type="line"/>
    </contour>
  </outline>
</glyph>
<glyph name="igrave" format="1">
  <advance width="116"/>
  <unicode hex="00EC"/>
  <outline>
    <contour>
      <point x="126" y="670" type="line"/>
      <point x="65" y="640" type="line"/>
      <point x="-10" y="788" type="line"/>
      <point x="50" y="820" type="line"/>
    </contour>
    <contour>
      <point x="90" y="0" type="line"/>
      <point x="26" y="0" type="line"/>
      <point x="26" y="604" type="line"/>
      <point x="90" y="604" type="line"/>
    </contour>
  </outline>
</glyph>
<glyph name="iacute" format="1">
  <advance width="116"/>
  <unicode hex="00ED"/>
  <outline>
    <contour>
      <point x="126" y="788" type="line"/>
      <point x="51" y="640" type="line"/>
      <point x="-10" y="670" type="line"/>
      <point x="66" y="820" type="line"/>
    </contour>
    <contour>
      <point x="90" y="0" type="line"/>
      <point x="26" y="0" type="line"/>
      <point x="26" y="604" type="line"/>
      <point x="90" y="604" type="line"/>
    </contour>
  </outline>
</glyph>
<glyph name="icircumflex" format="1">
  <advance width="116"/>
  <unicode hex="00EE"/>
  <outline>
    <contour>
      <point x="142" y="640" type="line"/>
      <point x="79" y="642" type="line"/>
      <point x="57" y="705" type="line"/>
      <point x="37" y="641" type="line"/>
      <point x="-26" y="641" type="line"/>
      <point x="28" y="826" type="line"/>
      <point x="88" y="826" type="line"/>
    </contour>
    <contour>
      <point x="90" y="0" type="line"/>
      <point x="26" y="0" type="line"/>
      <point x="26" y="604" type="line"/>
      <point x="90" y="604" type="line"/>
    </contour>
  </outline>
</glyph>
<glyph name="idieresis" format="1">
  <advance width="116"/>
  <unicode hex="00EF"/>
  <outline>
    <contour>
      <point x="139" y="676" type="line"/>
      <point x="76" y="676" type="line"/>
      <point x="76" y="744" type="line"/>
      <point x="139" y="744" type="line"/>
    </contour>
    <contour>
      <point x="40" y="676" type="line"/>
      <point x="-23" y="676" type="line"/>
      <point x="-23" y="744" type="line"/>
      <point x="40" y="744" type="line"/>
    </contour>
    <contour>
      <point x="90" y="0" type="line"/>
      <point x="26" y="0" type="line"/>
      <point x="26" y="604" type="line"/>
      <point x="90" y="604" type="line"/>
    </contour>
  </outline>
</glyph>
<glyph name="eth" format="1">
  <advance width="359"/>
  <unicode hex="00F0"/>
  <outline>
    <contour>
      <point x="261" y="610" type="line"/>
      <point x="261" y="609" type="line"/>
      <point x="262" y="609" type="line"/>
      <point x="262" y="610" type="line"/>
    </contour>
    <contour>
      <point x="199" y="371" type="line" smooth="yes"/>
      <point x="199" y="450"/>
      <point x="139" y="450" type="qcurve" smooth="yes"/>
      <point x="89" y="450"/>
      <point x="89" y="371" type="qcurve" smooth="yes"/>
      <point x="89" y="127" type="line" smooth="yes"/>
      <point x="89" y="47"/>
      <point x="199" y="47"/>
      <point x="199" y="127" type="qcurve" smooth="yes"/>
    </contour>
    <contour>
      <point x="350" y="599" type="line"/>
      <point x="302" y="547"/>
      <point x="265" y="547" type="qcurve" smooth="yes"/>
      <point x="261" y="547" type="line"/>
      <point x="261" y="129" type="line" smooth="yes"/>
      <point x="261" y="-8"/>
      <point x="144" y="-8" type="qcurve" smooth="yes"/>
      <point x="24" y="-8"/>
      <point x="24" y="129" type="qcurve" smooth="yes"/>
      <point x="24" y="370" type="line" smooth="yes"/>
      <point x="24" y="506"/>
      <point x="139" y="506" type="qcurve" smooth="yes"/>
      <point x="171" y="506"/>
      <point x="199" y="490" type="qcurve"/>
      <point x="199" y="579" type="line"/>
      <point x="196" y="582" type="line"/>
      <point x="197" y="582" type="line"/>
      <point x="175" y="601"/>
      <point x="169" y="601" type="qcurve" smooth="yes"/>
      <point x="166" y="601" type="line" smooth="yes"/>
      <point x="150" y="601"/>
      <point x="71" y="522" type="qcurve"/>
      <point x="82" y="612" type="line"/>
      <point x="130" y="664"/>
      <point x="167" y="664" type="qcurve" smooth="yes"/>
      <point x="173" y="664" type="line"/>
      <point x="187" y="662"/>
      <point x="199" y="654" type="qcurve"/>
      <point x="199" y="707" type="line" smooth="yes"/>
      <point x="199" y="785"/>
      <point x="89" y="785"/>
      <point x="89" y="707" type="qcurve" smooth="yes"/>
      <point x="89" y="627" type="line"/>
      <point x="24" y="627" type="line"/>
      <point x="24" y="705" type="line" smooth="yes"/>
      <point x="24" y="841"/>
      <point x="144" y="841" type="qcurve" smooth="yes"/>
      <point x="261" y="841"/>
      <point x="261" y="705" type="qcurve" smooth="yes"/>
      <point x="261" y="611" type="line"/>
      <point x="262" y="611"/>
      <point x="263" y="610" type="qcurve"/>
      <point x="265" y="610"/>
      <point x="268" y="609" type="qcurve"/>
      <point x="266" y="609" type="line" smooth="yes"/>
      <point x="284" y="609"/>
      <point x="359" y="688" type="qcurve"/>
    </contour>
  </outline>
</glyph>
<glyph name="ntilde" format="1">
  <advance width="285"/>
  <unicode hex="00F1"/>
  <outline>
    <contour>
      <point x="277" y="723" type="line"/>
      <point x="232" y="671"/>
      <point x="191" y="671" type="qcurve" smooth="yes"/>
      <point x="186" y="671" type="line"/>
      <point x="164" y="672"/>
      <point x="130" y="700" type="qcurve"/>
      <point x="124" y="704" type="line"/>
      <point x="100" y="725"/>
      <point x="93" y="726" type="qcurve"/>
      <point x="72" y="723"/>
      <point x="-3" y="645" type="qcurve"/>
      <point x="7" y="736" type="line"/>
      <point x="54" y="787"/>
      <point x="91" y="787" type="qcurve" smooth="yes"/>
      <point x="98" y="787" type="line"/>
      <point x="118" y="785"/>
      <point x="154" y="757" type="qcurve" smooth="yes"/>
      <point x="180" y="736"/>
      <point x="191" y="734" type="qcurve"/>
      <point x="192" y="734" type="line" smooth="yes"/>
      <point x="210" y="734"/>
      <point x="285" y="813" type="qcurve"/>
    </contour>
    <contour>
      <point x="261" y="-8" type="line"/>
      <point x="197" y="-8" type="line"/>
      <point x="197" y="469" type="line" smooth="yes"/>
      <point x="197" y="549"/>
      <point x="87" y="549"/>
      <point x="87" y="469" type="qcurve" smooth="yes"/>
      <point x="87" y="-8" type="line"/>
      <point x="21" y="-8" type="line"/>
      <point x="21" y="604" type="line"/>
      <point x="85" y="604" type="line"/>
      <point x="85" y="593" type="line"/>
      <point x="112" y="604"/>
      <point x="142" y="604" type="qcurve" smooth="yes"/>
      <point x="261" y="604"/>
      <point x="261" y="467" type="qcurve" smooth="yes"/>
    </contour>
  </outline>
</glyph>
<glyph name="oacute" format="1">
  <advance width="285"/>
  <unicode hex="00F3"/>
  <outline>
    <contour>
      <point x="211" y="788" type="line"/>
      <point x="136" y="640" type="line"/>
      <point x="74" y="670" type="line"/>
      <point x="150" y="820" type="line"/>
    </contour>
    <contour>
      <point x="197" y="466" type="line" smooth="yes"/>
      <point x="197" y="545"/>
      <point x="87" y="545"/>
      <point x="87" y="466" type="qcurve" smooth="yes"/>
      <point x="87" y="127" type="line" smooth="yes"/>
      <point x="87" y="47"/>
      <point x="197" y="47"/>
      <point x="197" y="127" type="qcurve" smooth="yes"/>
    </contour>
    <contour>
      <point x="261" y="129" type="line" smooth="yes"/>
      <point x="261" y="-8"/>
      <point x="142" y="-8" type="qcurve" smooth="yes"/>
      <point x="24" y="-8"/>
      <point x="24" y="129" type="qcurve" smooth="yes"/>
      <point x="24" y="464" type="line" smooth="yes"/>
      <point x="24" y="601"/>
      <point x="142" y="601" type="qcurve" smooth="yes"/>
      <point x="261" y="601"/>
      <point x="261" y="464" type="qcurve" smooth="yes"/>
    </contour>
  </outline>
</glyph>
<glyph name="ocircumflex" format="1">
  <advance width="285"/>
  <unicode hex="00F4"/>
  <outline>
    <contour>
      <point x="227" y="640" type="line"/>
      <point x="164" y="642" type="line"/>
      <point x="142" y="705" type="line"/>
      <point x="122" y="641" type="line"/>
      <point x="59" y="641" type="line"/>
      <point x="113" y="826" type="line"/>
      <point x="172" y="826" type="line"/>
    </contour>
    <contour>
      <point x="197" y="466" type="line" smooth="yes"/>
      <point x="197" y="545"/>
      <point x="87" y="545"/>
      <point x="87" y="466" type="qcurve" smooth="yes"/>
      <point x="87" y="127" type="line" smooth="yes"/>
      <point x="87" y="47"/>
      <point x="197" y="47"/>
      <point x="197" y="127" type="qcurve" smooth="yes"/>
    </contour>
    <contour>
      <point x="261" y="129" type="line" smooth="yes"/>
      <point x="261" y="-8"/>
      <point x="142" y="-8" type="qcurve" smooth="yes"/>
      <point x="24" y="-8"/>
      <point x="24" y="129" type="qcurve" smooth="yes"/>
      <point x="24" y="464" type="line" smooth="yes"/>
      <point x="24" y="601"/>
      <point x="142" y="601" type="qcurve" smooth="yes"/>
      <point x="261" y="601"/>
      <point x="261" y="464" type="qcurve" smooth="yes"/>
    </contour>
  </outline>
</glyph>
<glyph name="otilde" format="1">
  <advance width="285"/>
  <unicode hex="00F5"/>
  <outline>
    <contour>
      <point x="277" y="723" type="line"/>
      <point x="232" y="671"/>
      <point x="191" y="671" type="qcurve" smooth="yes"/>
      <point x="186" y="671" type="line"/>
      <point x="164" y="672"/>
      <point x="130" y="700" type="qcurve"/>
      <point x="124" y="704" type="line"/>
      <point x="100" y="725"/>
      <point x="93" y="726" type="qcurve"/>
      <point x="72" y="723"/>
      <point x="-3" y="645" type="qcurve"/>
      <point x="7" y="736" type="line"/>
      <point x="54" y="787"/>
      <point x="91" y="787" type="qcurve" smooth="yes"/>
      <point x="98" y="787" type="line"/>
      <point x="118" y="785"/>
      <point x="154" y="757" type="qcurve" smooth="yes"/>
      <point x="180" y="736"/>
      <point x="191" y="734" type="qcurve"/>
      <point x="192" y="734" type="line" smooth="yes"/>
      <point x="210" y="734"/>
      <point x="285" y="813" type="qcurve"/>
    </contour>
    <contour>
      <point x="197" y="466" type="line" smooth="yes"/>
      <point x="197" y="545"/>
      <point x="87" y="545"/>
      <point x="87" y="466" type="qcurve" smooth="yes"/>
      <point x="87" y="127" type="line" smooth="yes"/>
      <point x="87" y="47"/>
      <point x="197" y="47"/>
      <point x="197" y="127" type="qcurve" smooth="yes"/>
    </contour>
    <contour>
      <point x="261" y="129" type="line" smooth="yes"/>
      <point x="261" y="-8"/>
      <point x="142" y="-8" type="qcurve" smooth="yes"/>
      <point x="24" y="-8"/>
      <point x="24" y="129" type="qcurve" smooth="yes"/>
      <point x="24" y="464" type="line" smooth="yes"/>
      <point x="24" y="601"/>
      <point x="142" y="601" type="qcurve" smooth="yes"/>
      <point x="261" y="601"/>
      <point x="261" y="464" type="qcurve" smooth="yes"/>
    </contour>
  </outline>
</glyph>
<glyph name="divide" format="1">
  <advance width="377"/>
  <unicode hex="00F7"/>
  <outline>
    <contour>
      <point x="220" y="205" type="line"/>
      <point x="157" y="205" type="line"/>
      <point x="157" y="272" type="line"/>
      <point x="220" y="272" type="line"/>
    </contour>
    <contour>
      <point x="220" y="424" type="line"/>
      <point x="157" y="424" type="line"/>
      <point x="157" y="491" type="line"/>
      <point x="220" y="491" type="line"/>
    </contour>
    <contour>
      <point x="369" y="324" type="line"/>
      <point x="10" y="324" type="line"/>
      <point x="10" y="385" type="line"/>
      <point x="369" y="385" type="line"/>
    </contour>
  </outline>
</glyph>
<glyph name="oslash" format="1">
  <advance width="285"/>
  <unicode hex="00F8"/>
  <outline>
    <contour>
      <point x="87" y="216" type="line"/>
      <point x="172" y="539" type="line"/>
      <point x="162" y="545"/>
      <point x="142" y="545" type="qcurve" smooth="yes"/>
      <point x="87" y="545"/>
      <point x="87" y="466" type="qcurve" smooth="yes"/>
    </contour>
    <contour>
      <point x="197" y="388" type="line"/>
      <point x="107" y="56" type="line"/>
      <point x="120" y="47"/>
      <point x="142" y="47" type="qcurve" smooth="yes"/>
      <point x="197" y="47"/>
      <point x="197" y="127" type="qcurve" smooth="yes"/>
    </contour>
    <contour>
      <point x="261" y="129" type="line" smooth="yes"/>
      <point x="261" y="-8"/>
      <point x="142" y="-8" type="qcurve" smooth="yes"/>
      <point x="116" y="-8"/>
      <point x="94" y="1" type="qcurve"/>
      <point x="91" y="-15" type="line"/>
      <point x="25" y="-15" type="line"/>
      <point x="40" y="45" type="line"/>
      <point x="24" y="76"/>
      <point x="24" y="129" type="qcurve" smooth="yes"/>
      <point x="24" y="464" type="line" smooth="yes"/>
      <point x="24" y="601"/>
      <point x="142" y="601" type="qcurve" smooth="yes"/>
      <point x="152" y="601"/>
      <point x="166" y="599" type="qcurve" smooth="yes"/>
      <point x="173" y="598"/>
      <point x="187" y="594" type="qcurve"/>
      <point x="196" y="625" type="line"/>
      <point x="260" y="625" type="line"/>
      <point x="241" y="553" type="line"/>
      <point x="261" y="518"/>
      <point x="261" y="464" type="qcurve" smooth="yes"/>
    </contour>
  </outline>
</glyph>
<glyph name="ugrave" format="1">
  <advance width="285"/>
  <unicode hex="00F9"/>
  <outline>
    <contour>
      <point x="211" y="670" type="line"/>
      <point x="149" y="640" type="line"/>
      <point x="74" y="788" type="line"/>
      <point x="135" y="820" type="line"/>
    </contour>
    <contour>
      <point x="261" y="129" type="line" smooth="yes"/>
      <point x="261" y="-8"/>
      <point x="142" y="-8" type="qcurve" smooth="yes"/>
      <point x="24" y="-8"/>
      <point x="24" y="129" type="qcurve" smooth="yes"/>
      <point x="24" y="604" type="line"/>
      <point x="87" y="604" type="line"/>
      <point x="87" y="127" type="line" smooth="yes"/>
      <point x="87" y="47"/>
      <point x="197" y="47"/>
      <point x="197" y="127" type="qcurve" smooth="yes"/>
      <point x="197" y="604" type="line"/>
      <point x="261" y="604" type="line"/>
    </contour>
  </outline>
</glyph>
<glyph name="ucircumflex" format="1">
  <advance width="285"/>
  <unicode hex="00FB"/>
  <outline>
    <contour>
      <point x="227" y="640" type="line"/>
      <point x="164" y="642" type="line"/>
      <point x="142" y="705" type="line"/>
      <point x="122" y="641" type="line"/>
      <point x="59" y="641" type="line"/>
      <point x="113" y="826" type="line"/>
      <point x="172" y="826" type="line"/>
    </contour>
    <contour>
      <point x="261" y="129" type="line" smooth="yes"/>
      <point x="261" y="-8"/>
      <point x="142" y="-8" type="qcurve" smooth="yes"/>
      <point x="24" y="-8"/>
      <point x="24" y="129" type="qcurve" smooth="yes"/>
      <point x="24" y="604" type="line"/>
      <point x="87" y="604" type="line"/>
      <point x="87" y="127" type="line" smooth="yes"/>
      <point x="87" y="47"/>
      <point x="197" y="47"/>
      <point x="197" y="127" type="qcurve" smooth="yes"/>
      <point x="197" y="604" type="line"/>
      <point x="261" y="604" type="line"/>
    </contour>
  </outline>
</glyph>
<glyph name="udieresis" format="1">
  <advance width="285"/>
  <unicode hex="00FC"/>
  <outline>
    <contour>
      <point x="222" y="676" type="line"/>
      <point x="160" y="676" type="line"/>
      <point x="160" y="744" type="line"/>
      <point x="222" y="744" type="line"/>
    </contour>
    <contour>
      <point x="124" y="676" type="line"/>
      <point x="62" y="676" type="line"/>
      <point x="62" y="744" type="line"/>
      <point x="124" y="744" type="line"/>
    </contour>
    <contour>
      <point x="261" y="129" type="line" smooth="yes"/>
      <point x="261" y="-8"/>
      <point x="142" y="-8" type="qcurve" smooth="yes"/>
      <point x="24" y="-8"/>
      <point x="24" y="129" type="qcurve" smooth="yes"/>
      <point x="24" y="604" type="line"/>
      <point x="87" y="604" type="line"/>
      <point x="87" y="127" type="line" smooth="yes"/>
      <point x="87" y="47"/>
      <point x="197" y="47"/>
      <point x="197" y="127" type="qcurve" smooth="yes"/>
      <point x="197" y="604" type="line"/>
      <point x="261" y="604" type="line"/>
    </contour>
  </outline>
</glyph>
<glyph name="dotlessi" format="1">
  <advance width="116"/>
  <unicode hex="0131"/>
  <outline>
    <contour>
      <point x="90" y="0" type="line"/>
      <point x="26" y="0" type="line"/>
      <point x="26" y="604" type="line"/>
      <point x="90" y="604" type="line"/>
    </contour>
  </outline>
</glyph>
<glyph name="Lslash" format="1">
  <advance width="246"/>
  <unicode hex="0141"/>
  <outline>
    <contour>
      <point x="189" y="437" type="line"/>
      <point x="90" y="386" type="line"/>
      <point x="90" y="56" type="line"/>
      <point x="261" y="56" type="line"/>
      <point x="261" y="0" type="line"/>
      <point x="26" y="0" type="line"/>
      <point x="26" y="354" type="line"/>
      <point x="-48" y="316" type="line"/>
      <point x="-74" y="371" type="line"/>
      <point x="26" y="421" type="line"/>
      <point x="26" y="834" type="line"/>
      <point x="90" y="834" type="line"/>
      <point x="90" y="454" type="line"/>
      <point x="163" y="491" type="line"/>
    </contour>
  </outline>
</glyph>
<glyph name="lslash" format="1">
  <advance width="116"/>
  <unicode hex="0142"/>
  <outline>
    <contour>
      <point x="90" y="383" type="line"/>
      <point x="90" y="0" type="line"/>
      <point x="26" y="0" type="line"/>
      <point x="26" y="350" type="line"/>
      <point x="-49" y="312" type="line"/>
      <point x="-75" y="366" type="line"/>
      <point x="26" y="418" type="line"/>
      <point x="26" y="792" type="line"/>
      <point x="90" y="854" type="line"/>
      <point x="90" y="450" type="line"/>
      <point x="162" y="487" type="line"/>
      <point x="188" y="432" type="line"/>
    </contour>
  </outline>
</glyph>
<glyph name="OE" format="1">
  <advance width="449"/>
  <unicode hex="0152"/>
  <outline>
    <contour>
      <point x="197" y="707" type="line" smooth="yes"/>
      <point x="197" y="785"/>
      <point x="87" y="785"/>
      <point x="87" y="707" type="qcurve" smooth="yes"/>
      <point x="87" y="127" type="line" smooth="yes"/>
      <point x="87" y="47"/>
      <point x="197" y="47"/>
      <point x="197" y="127" type="qcurve" smooth="yes"/>
    </contour>
    <contour>
      <point x="432" y="0" type="line"/>
      <point x="199" y="0" type="line"/>
      <point x="199" y="4" type="line"/>
      <point x="174" y="-8"/>
      <point x="142" y="-8" type="qcurve" smooth="yes"/>
      <point x="24" y="-8"/>
      <point x="24" y="129" type="qcurve" smooth="yes"/>
      <point x="24" y="705" type="line" smooth="yes"/>
      <point x="24" y="841"/>
      <point x="142" y="841" type="qcurve" smooth="yes"/>
      <point x="178" y="841"/>
      <point x="199" y="831" type="qcurve"/>
      <point x="199" y="834" type="line"/>
      <point x="432" y="834" type="line"/>
      <point x="432" y="777" type="line"/>
      <point x="262" y="777" type="line"/>
      <point x="262" y="506" type="line"/>
      <point x="432" y="506" type="line"/>
      <point x="432" y="451" type="line"/>
      <point x="262" y="451" type="line"/>
      <point x="262" y="56" type="line"/>
      <point x="432" y="56" type="line"/>
    </contour>
  </outline>
</glyph>
<glyph name="oe" format="1">
  <advance width="456"/>
  <unicode hex="0153"/>
  <outline>
    <contour>
      <point x="262" y="362" type="line"/>
      <point x="372" y="362" type="line"/>
      <point x="372" y="466" type="line" smooth="yes"/>
      <point x="372" y="545"/>
      <point x="262" y="545"/>
      <point x="262" y="466" type="qcurve" smooth="yes"/>
    </contour>
    <contour>
      <point x="197" y="466" type="line" smooth="yes"/>
      <point x="197" y="545"/>
      <point x="87" y="545"/>
      <point x="87" y="466" type="qcurve" smooth="yes"/>
      <point x="87" y="127" type="line" smooth="yes"/>
      <point x="87" y="47"/>
      <point x="197" y="47"/>
      <point x="197" y="127" type="qcurve" smooth="yes"/>
    </contour>
    <contour>
      <point x="436" y="129" type="line" smooth="yes"/>
      <point x="436" y="-8"/>
      <point x="317" y="-8" type="qcurve" smooth="yes"/>
      <point x="258" y="-8"/>
      <point x="230" y="26" type="qcurve"/>
      <point x="199" y="-8"/>
      <point x="142" y="-8" type="qcurve" smooth="yes"/>
      <point x="24" y="-8"/>
      <point x="24" y="129" type="qcurve" smooth="yes"/>
      <point x="24" y="464" type="line" smooth="yes"/>
      <point x="24" y="601"/>
      <point x="142" y="601" type="qcurve" smooth="yes"/>
      <point x="199" y="601"/>
      <point x="230" y="567" type="qcurve"/>
      <point x="258" y="601"/>
      <point x="317" y="601" type="qcurve" smooth="yes"/>
      <point x="436" y="601"/>
      <point x="436" y="464" type="qcurve" smooth="yes"/>
      <point x="436" y="301" type="line"/>
      <point x="262" y="301" type="line"/>
      <point x="262" y="127" type="line" smooth="yes"/>
      <point x="262" y="47"/>
      <point x="372" y="47"/>
      <point x="372" y="127" type="qcurve" smooth="yes"/>
      <point x="372" y="161" type="line"/>
      <point x="436" y="161" type="line"/>
    </contour>
  </outline>
</glyph>
<glyph name="Scaron" format="1">
  <advance width="285"/>
  <unicode hex="0160"/>
  <outline>
    <contour>
      <point x="227" y="1028" type="line"/>
      <point x="172" y="842" type="line"/>
      <point x="113" y="842" type="line"/>
      <point x="59" y="1027" type="line"/>
      <point x="122" y="1027" type="line"/>
      <point x="142" y="963" type="line"/>
      <point x="164" y="1026" type="line"/>
    </contour>
    <contour>
      <point x="144" y="501" type="qcurve" smooth="yes"/>
      <point x="241" y="501"/>
      <point x="258" y="412" type="qcurve"/>
      <point x="261" y="412" type="line"/>
      <point x="261" y="129" type="line" smooth="yes"/>
      <point x="261" y="-8"/>
      <point x="144" y="-8" type="qcurve" smooth="yes"/>
      <point x="24" y="-8"/>
      <point x="24" y="129" type="qcurve" smooth="yes"/>
      <point x="24" y="201" type="line"/>
      <point x="89" y="201" type="line"/>
      <point x="89" y="127" type="line" smooth="yes"/>
      <point x="89" y="49"/>
      <point x="199" y="49"/>
      <point x="199" y="127" type="qcurve" smooth="yes"/>
      <point x="199" y="386" type="line" smooth="yes"/>
      <point x="199" y="446"/>
      <point x="144" y="446" type="qcurve" smooth="yes"/>
      <point x="24" y="446"/>
      <point x="24" y="584" type="qcurve" smooth="yes"/>
      <point x="24" y="705" type="line" smooth="yes"/>
      <point x="24" y="841"/>
      <point x="144" y="841" type="qcurve" smooth="yes"/>
      <point x="261" y="841"/>
      <point x="261" y="705" type="qcurve" smooth="yes"/>
      <point x="261" y="627" type="line"/>
      <point x="199" y="627" type="line"/>
      <point x="199" y="707" type="line" smooth="yes"/>
      <point x="199" y="786"/>
      <point x="89" y="786"/>
      <point x="89" y="707" type="qcurve" smooth="yes"/>
      <point x="89" y="581" type="line" smooth="yes"/>
      <point x="89" y="501"/>
    </contour>
  </outline>
</glyph>
<glyph name="scaron" format="1">
  <advance width="285"/>
  <unicode hex="0161"/>
  <outline>
    <contour>
      <point x="227" y="826" type="line"/>
      <point x="172" y="641" type="line"/>
      <point x="113" y="641" type="line"/>
      <point x="59" y="826" type="line"/>
      <point x="122" y="826" type="line"/>
      <point x="142" y="763" type="line"/>
      <point x="164" y="826" type="line"/>
    </contour>
    <contour>
      <point x="144" y="349" type="qcurve" smooth="yes"/>
      <point x="242" y="349"/>
      <point x="258" y="259" type="qcurve"/>
      <point x="261" y="259" type="line"/>
      <point x="261" y="129" type="line" smooth="yes"/>
      <point x="261" y="-8"/>
      <point x="144" y="-8" type="qcurve" smooth="yes"/>
      <point x="24" y="-8"/>
      <point x="24" y="129" type="qcurve" smooth="yes"/>
      <point x="24" y="201" type="line"/>
      <point x="89" y="201" type="line"/>
      <point x="89" y="127" type="line" smooth="yes"/>
      <point x="89" y="49"/>
      <point x="199" y="49"/>
      <point x="199" y="127" type="qcurve" smooth="yes"/>
      <point x="199" y="234" type="line" smooth="yes"/>
      <point x="199" y="263"/>
      <point x="186" y="276" type="qcurve"/>
      <point x="171" y="288"/>
      <point x="144" y="288" type="qcurve" smooth="yes"/>
      <point x="84" y="288"/>
      <point x="54" y="324" type="qcurve"/>
      <point x="24" y="362"/>
      <point x="24" y="430" type="qcurve" smooth="yes"/>
      <point x="24" y="473" type="line" smooth="yes"/>
      <point x="24" y="601"/>
      <point x="144" y="601" type="qcurve" smooth="yes"/>
      <point x="261" y="601"/>
      <point x="261" y="464" type="qcurve" smooth="yes"/>
      <point x="261" y="404" type="line"/>
      <point x="199" y="404" type="line"/>
      <point x="199" y="466" type="line" smooth="yes"/>
      <point x="199" y="545"/>
      <point x="89" y="545"/>
      <point x="89" y="466" type="qcurve" smooth="yes"/>
      <point x="89" y="437" type="line" smooth="yes"/>
      <point x="89" y="391"/>
      <point x="102" y="370" type="qcurve"/>
      <point x="117" y="349"/>
    </contour>
  </outline>
</glyph>
<glyph name="Ydieresis" format="1">
  <advance width="280"/>
  <unicode hex="0178"/>
  <outline>
    <contour>
      <point x="121" y="889" type="line"/>
      <point x="59" y="889" type="line"/>
      <point x="59" y="956" type="line"/>
      <point x="121" y="956" type="line"/>
    </contour>
    <contour>
      <point x="220" y="889" type="line"/>
      <point x="157" y="889" type="line"/>
      <point x="157" y="956" type="line"/>
      <point x="220" y="956" type="line"/>
    </contour>
    <contour>
      <point x="290" y="834" type="line"/>
      <point x="171" y="426" type="line"/>
      <point x="171" y="0" type="line"/>
      <point x="107" y="0" type="line"/>
      <point x="107" y="428" type="line"/>
      <point x="-9" y="834" type="line"/>
      <point x="58" y="834" type="line"/>
      <point x="140" y="530" type="line"/>
      <point x="225" y="834" type="line"/>
    </contour>
  </outline>
</glyph>
